<svg width="24" height="24" viewBox="0 0 24 24" fill="none" xmlns="http://www.w3.org/2000/svg">
<path d="M17.0985 4C16.9659 4.00003 16.8363 4.03963 16.7263 4.11373C16.6163 4.18783 16.5309 4.29305 16.4811 4.41595C16.4312 4.53884 16.4192 4.67381 16.4465 4.80359C16.4738 4.93337 16.5391 5.05206 16.6343 5.14447L17.718 6.2282H17.1054C11.8381 6.2282 7.55401 10.5123 7.55401 15.7796C7.55276 15.8679 7.56908 15.9556 7.60201 16.0375C7.63493 16.1195 7.68382 16.1941 7.74582 16.2569C7.80783 16.3198 7.88171 16.3698 7.96318 16.4038C8.04465 16.4379 8.13208 16.4555 8.22039 16.4555C8.3087 16.4555 8.39613 16.4379 8.4776 16.4038C8.55907 16.3698 8.63295 16.3198 8.69496 16.2569C8.75696 16.1941 8.80585 16.1195 8.83877 16.0375C8.8717 15.9556 8.88802 15.8679 8.88677 15.7796C8.88677 11.2325 12.5583 7.56095 17.1054 7.56095H17.718L16.6343 8.64469C16.5703 8.70609 16.5193 8.77964 16.4841 8.86102C16.4489 8.9424 16.4303 9.02999 16.4294 9.11864C16.4285 9.2073 16.4453 9.29524 16.4788 9.37732C16.5124 9.4594 16.5619 9.53397 16.6246 9.59666C16.6873 9.65935 16.7619 9.70891 16.8439 9.74242C16.926 9.77593 17.014 9.79273 17.1026 9.79183C17.1913 9.79092 17.2789 9.77234 17.3602 9.73717C17.4416 9.702 17.5152 9.65094 17.5766 9.58698L19.7406 7.42299C19.822 7.36054 19.8879 7.28013 19.9332 7.18802C19.9784 7.09592 20.0018 6.9946 20.0014 6.89198C20.0011 6.78936 19.9771 6.6882 19.9312 6.59639C19.8854 6.50459 19.8189 6.42461 19.7371 6.36269L17.5766 4.20217C17.5145 4.1382 17.4401 4.08735 17.358 4.05262C17.2759 4.0179 17.1876 4 17.0985 4ZM6.88764 4.00694C5.3008 4.00694 4 5.30774 4 6.89458V17.1124C4 18.6992 5.3008 20 6.88764 20H17.1054C18.6923 20 19.9931 18.6992 19.9931 17.1124V13.5584C19.9943 13.47 19.978 13.3824 19.9451 13.3004C19.9121 13.2185 19.8633 13.1439 19.8012 13.081C19.7392 13.0181 19.6654 12.9682 19.5839 12.9341C19.5024 12.9 19.415 12.8825 19.3267 12.8825C19.2384 12.8825 19.1509 12.9 19.0695 12.9341C18.988 12.9682 18.9141 13.0181 18.8521 13.081C18.7901 13.1439 18.7412 13.2185 18.7083 13.3004C18.6754 13.3824 18.6591 13.47 18.6603 13.5584V17.1124C18.6603 17.9787 17.9717 18.6672 17.1054 18.6672H6.88764C6.02132 18.6672 5.33275 17.9787 5.33275 17.1124V6.89458C5.33275 6.02826 6.02132 5.3397 6.88764 5.3397H10.4416C10.53 5.34095 10.6176 5.32463 10.6996 5.2917C10.7815 5.25878 10.8561 5.20989 10.919 5.14789C10.9819 5.08588 11.0318 5.012 11.0659 4.93053C11.1 4.84906 11.1175 4.76163 11.1175 4.67332C11.1175 4.58501 11.1 4.49758 11.0659 4.41611C11.0318 4.33464 10.9819 4.26075 10.919 4.19875C10.8561 4.13675 10.7815 4.08786 10.6996 4.05493C10.6176 4.02201 10.53 4.00569 10.4416 4.00694H6.88764Z" fill="#F7F7F7"/>
</svg>
