<svg width="25" height="25" viewBox="0 0 25 25" fill="none" xmlns="http://www.w3.org/2000/svg">
<path d="M12.2795 9.66322L8.77706 6.11274L12.2795 2.56226L15.7819 6.11274L12.2795 9.66322ZM1.27185 20.8219V16.7642C1.27185 16.1893 1.46782 15.7075 1.85976 15.3186C2.2517 14.9298 2.72286 14.7353 3.27324 14.7353H6.55052C6.88408 14.7353 7.20097 14.8199 7.50118 14.9889C7.80138 15.158 8.04322 15.3863 8.22668 15.6737C8.71035 16.333 9.3066 16.8487 10.0154 17.2207C10.7242 17.5926 11.4789 17.7786 12.2795 17.7786C13.0967 17.7786 13.8598 17.5926 14.5686 17.2207C15.2774 16.8487 15.8653 16.333 16.3323 15.6737C16.5491 15.3863 16.8035 15.158 17.0953 14.9889C17.3872 14.8199 17.6916 14.7353 18.0085 14.7353H21.2857C21.8528 14.7353 22.3281 14.9298 22.7117 15.3186C23.0953 15.7075 23.2871 16.1893 23.2871 16.7642V20.8219H16.2823V18.5141C15.6985 18.9367 15.0689 19.258 14.3935 19.4778C13.718 19.6976 13.0133 19.8074 12.2795 19.8074C11.5623 19.8074 10.8618 19.6933 10.178 19.4651C9.49423 19.2368 8.86045 18.9114 8.27671 18.4887V20.8219H1.27185ZM4.27394 13.7209C3.44002 13.7209 2.7312 13.425 2.14746 12.8333C1.56372 12.2415 1.27185 11.523 1.27185 10.6776C1.27185 9.81538 1.56372 9.0926 2.14746 8.50931C2.7312 7.92602 3.44002 7.63437 4.27394 7.63437C5.12453 7.63437 5.83752 7.92602 6.41292 8.50931C6.98832 9.0926 7.27602 9.81538 7.27602 10.6776C7.27602 11.523 6.98832 12.2415 6.41292 12.8333C5.83752 13.425 5.12453 13.7209 4.27394 13.7209ZM20.2851 13.7209C19.4511 13.7209 18.7423 13.425 18.1586 12.8333C17.5748 12.2415 17.283 11.523 17.283 10.6776C17.283 9.81538 17.5748 9.0926 18.1586 8.50931C18.7423 7.92602 19.4511 7.63437 20.2851 7.63437C21.1356 7.63437 21.8486 7.92602 22.424 8.50931C22.9994 9.0926 23.2871 9.81538 23.2871 10.6776C23.2871 11.523 22.9994 12.2415 22.424 12.8333C21.8486 13.425 21.1356 13.7209 20.2851 13.7209Z" fill="url(#paint0_linear_825_919)"/>
<defs>
<linearGradient id="paint0_linear_825_919" x1="12.2795" y1="2.56226" x2="12.2795" y2="20.8219" gradientUnits="userSpaceOnUse">
<stop stop-color="#1064A1"/>
<stop offset="1" stop-color="#4CA8CF"/>
</linearGradient>
</defs>
</svg>
