<svg width="25" height="25" viewBox="0 0 25 25" fill="none" xmlns="http://www.w3.org/2000/svg">
<path d="M12.2794 9.66346L8.77694 6.11298L12.2794 2.5625L15.7818 6.11298L12.2794 9.66346ZM1.27173 20.8221V16.7644C1.27173 16.1896 1.4677 15.7077 1.85964 15.3189C2.25158 14.93 2.72274 14.7356 3.27312 14.7356H6.55039C6.88396 14.7356 7.20085 14.8201 7.50105 14.9892C7.80126 15.1583 8.0431 15.3865 8.22656 15.6739C8.71023 16.3333 9.30647 16.849 10.0153 17.2209C10.7241 17.5929 11.4788 17.7788 12.2794 17.7788C13.0966 17.7788 13.8596 17.5929 14.5685 17.2209C15.2773 16.849 15.8652 16.3333 16.3322 15.6739C16.549 15.3865 16.8033 15.1583 17.0952 14.9892C17.3871 14.8201 17.6915 14.7356 18.0083 14.7356H21.2856C21.8527 14.7356 22.328 14.93 22.7116 15.3189C23.0952 15.7077 23.287 16.1896 23.287 16.7644V20.8221H16.2822V18.5143C15.6984 18.937 15.0688 19.2582 14.3933 19.478C13.7179 19.6978 13.0132 19.8077 12.2794 19.8077C11.5622 19.8077 10.8617 19.6936 10.1779 19.4653C9.4941 19.2371 8.86033 18.9116 8.27659 18.4889V20.8221H1.27173ZM4.27381 13.7212C3.4399 13.7212 2.73108 13.4253 2.14734 12.8335C1.5636 12.2418 1.27173 11.5232 1.27173 10.6779C1.27173 9.81562 1.5636 9.09285 2.14734 8.50956C2.73108 7.92626 3.4399 7.63462 4.27381 7.63462C5.1244 7.63462 5.8374 7.92626 6.4128 8.50956C6.9882 9.09285 7.2759 9.81562 7.2759 10.6779C7.2759 11.5232 6.9882 12.2418 6.4128 12.8335C5.8374 13.4253 5.1244 13.7212 4.27381 13.7212ZM20.2849 13.7212C19.451 13.7212 18.7422 13.4253 18.1585 12.8335C17.5747 12.2418 17.2828 11.5232 17.2828 10.6779C17.2828 9.81562 17.5747 9.09285 18.1585 8.50956C18.7422 7.92626 19.451 7.63462 20.2849 7.63462C21.1355 7.63462 21.8485 7.92626 22.4239 8.50956C22.9993 9.09285 23.287 9.81562 23.287 10.6779C23.287 11.5232 22.9993 12.2418 22.4239 12.8335C21.8485 13.4253 21.1355 13.7212 20.2849 13.7212Z" fill="url(#paint0_linear_825_455)"/>
<defs>
<linearGradient id="paint0_linear_825_455" x1="12.3647" y1="20.8221" x2="12.3647" y2="2.5625" gradientUnits="userSpaceOnUse">
<stop stop-color="#4CA8CF"/>
<stop offset="1" stop-color="#82D1F2"/>
</linearGradient>
</defs>
</svg>
