<svg width="20" height="20" viewBox="0 0 20 20" fill="none" xmlns="http://www.w3.org/2000/svg">
<path d="M7.8 14.8C7.36 14.8 6.98333 14.6433 6.67 14.33C6.35667 14.0167 6.2 13.64 6.2 13.2V3.6C6.2 3.16 6.35667 2.78333 6.67 2.47C6.98333 2.15667 7.36 2 7.8 2H15C15.44 2 15.8167 2.15667 16.13 2.47C16.4433 2.78333 16.6 3.16 16.6 3.6V13.2C16.6 13.64 16.4433 14.0167 16.13 14.33C15.8167 14.6433 15.44 14.8 15 14.8H7.8ZM7.8 13.2H15V3.6H7.8V13.2ZM4.6 18C4.16 18 3.78333 17.8433 3.47 17.53C3.15667 17.2167 3 16.84 3 16.4V5.2H4.6V16.4H13.4V18H4.6Z" fill="#C5F1FF"/>
</svg>
