<svg width="25" height="24" viewBox="0 0 25 24" fill="none" xmlns="http://www.w3.org/2000/svg">
<path d="M7.8849 20H16.7125C17.7056 20 18.5056 19.2 18.5056 18.2069V7.17241C18.5056 6.33103 18.1746 5.53103 17.5815 4.92414C16.9883 4.31724 16.1746 4 15.3332 4H7.8849C6.8918 4 6.0918 4.8 6.0918 5.7931V18.2069C6.0918 19.2 6.8918 20 7.8849 20ZM15.347 15.8621H9.278C9.04352 15.8621 8.86421 15.6828 8.86421 15.4483C8.86421 15.2138 9.04352 15.0345 9.278 15.0345H15.347C15.5815 15.0345 15.7608 15.2138 15.7608 15.4483C15.7608 15.6828 15.5815 15.8621 15.347 15.8621ZM16.9883 5.51724C17.3332 5.86207 17.5539 6.28966 17.6366 6.75862H16.7125C16.1746 6.75862 15.747 6.33103 15.747 5.7931V4.86897C16.2159 4.95172 16.6435 5.17241 16.9883 5.51724ZM9.25042 10.8966H15.3194C15.5539 10.8966 15.7332 11.0759 15.7332 11.3103C15.7332 11.5448 15.5539 11.7241 15.3194 11.7241H9.25042C9.01593 11.7241 8.83662 11.5448 8.83662 11.3103C8.83662 11.0759 9.01593 10.8966 9.25042 10.8966ZM9.25042 12.9655H15.3194C15.5539 12.9655 15.7332 13.1448 15.7332 13.3793C15.7332 13.6138 15.5539 13.7931 15.3194 13.7931H9.25042C9.01593 13.7931 8.83662 13.6138 8.83662 13.3793C8.83662 13.1448 9.01593 12.9655 9.25042 12.9655Z" fill="#F7F7F7"/>
</svg>
