<svg width="12" height="12" viewBox="0 0 12 12" fill="none" xmlns="http://www.w3.org/2000/svg">
<g clip-path="url(#clip0_825_482)">
<g filter="url(#filter0_i_825_482)">
<path d="M6 12C4.33333 12 2.91667 11.4167 1.75 10.25C0.583333 9.08333 0 7.66667 0 6C0 4.33333 0.583333 2.91667 1.75 1.75C2.91667 0.583333 4.33333 0 6 0C6.15556 0 6.30833 0.00555556 6.45833 0.0166667C6.60833 0.0277778 6.75556 0.0444444 6.9 0.0666667C6.44444 0.388889 6.08056 0.808333 5.80833 1.325C5.53611 1.84167 5.4 2.4 5.4 3C5.4 4 5.75 4.85 6.45 5.55C7.15 6.25 8 6.6 9 6.6C9.61111 6.6 10.1722 6.46389 10.6833 6.19167C11.1944 5.91944 11.6111 5.55556 11.9333 5.1C11.9556 5.24444 11.9722 5.39167 11.9833 5.54167C11.9944 5.69167 12 5.84444 12 6C12 7.66667 11.4167 9.08333 10.25 10.25C9.08333 11.4167 7.66667 12 6 12Z" fill="#404040"/>
</g>
</g>
<defs>
<filter id="filter0_i_825_482" x="0" y="0" width="12" height="16" filterUnits="userSpaceOnUse" color-interpolation-filters="sRGB">
<feFlood flood-opacity="0" result="BackgroundImageFix"/>
<feBlend mode="normal" in="SourceGraphic" in2="BackgroundImageFix" result="shape"/>
<feColorMatrix in="SourceAlpha" type="matrix" values="0 0 0 0 0 0 0 0 0 0 0 0 0 0 0 0 0 0 127 0" result="hardAlpha"/>
<feOffset dy="4"/>
<feGaussianBlur stdDeviation="2"/>
<feComposite in2="hardAlpha" operator="arithmetic" k2="-1" k3="1"/>
<feColorMatrix type="matrix" values="0 0 0 0 0 0 0 0 0 0 0 0 0 0 0 0 0 0 0.25 0"/>
<feBlend mode="normal" in2="shape" result="effect1_innerShadow_825_482"/>
</filter>
<clipPath id="clip0_825_482">
<rect width="12" height="12" fill="white"/>
</clipPath>
</defs>
</svg>
