<svg width="25" height="25" viewBox="0 0 25 25" fill="none" xmlns="http://www.w3.org/2000/svg">
<path d="M4.14177 20.5911C3.59139 20.5911 3.12023 20.3925 2.72829 19.9951C2.33635 19.5978 2.14038 19.1202 2.14038 18.5623V6.3892C2.14038 5.83126 2.33635 5.35364 2.72829 4.95633C3.12023 4.55901 3.59139 4.36035 4.14177 4.36035H20.1529C20.7033 4.36035 21.1744 4.55901 21.5664 4.95633C21.9583 5.35364 22.1543 5.83126 22.1543 6.3892V18.5623C22.1543 19.1202 21.9583 19.5978 21.5664 19.9951C21.1744 20.3925 20.7033 20.5911 20.1529 20.5911H4.14177ZM4.14177 18.5623H20.1529V8.41804H4.14177V18.5623ZM7.6442 17.5479L6.24323 16.1277L8.82002 13.4902L6.21821 10.8527L7.6442 9.43247L11.647 13.4902L7.6442 17.5479ZM12.1473 17.5479V15.519H18.1515V17.5479H12.1473Z" fill="url(#paint0_linear_825_460)"/>
<defs>
<linearGradient id="paint0_linear_825_460" x1="12.2249" y1="20.5911" x2="12.2249" y2="4.36035" gradientUnits="userSpaceOnUse">
<stop stop-color="#4CA8CF"/>
<stop offset="1" stop-color="#82D1F2"/>
</linearGradient>
</defs>
</svg>
