<svg width="48" height="48" viewBox="0 0 25 25" fill="none" xmlns="http://www.w3.org/2000/svg">
<path d="M12.3574 4.11058C10.4471 4.11 8.59926 4.80598 7.14617 6.07337C5.69308 7.34076 4.73005 9.09641 4.43026 11.0246C4.13046 12.9528 4.51357 14.9271 5.51069 16.5924C6.50781 18.2578 8.05352 19.5049 9.86988 20.1096H10.0571C10.2279 20.1181 10.3954 20.0594 10.5252 19.9455C10.6033 19.8761 10.6653 19.7898 10.7069 19.6929C10.7486 19.596 10.7687 19.4909 10.7659 19.3851V19.2416V18.4967C10.7605 18.4523 10.7465 18.4095 10.7247 18.3708C10.7029 18.3321 10.6737 18.2982 10.6389 18.2712C10.6008 18.24 10.5565 18.2178 10.5092 18.206C10.4618 18.1942 10.4125 18.1931 10.3647 18.2028C8.56596 18.5992 8.18481 17.451 8.16475 17.3759C7.93856 16.7675 7.53468 16.2449 7.00793 15.8792L6.90763 15.804C6.98659 15.765 7.07436 15.7485 7.16173 15.7561C7.32838 15.7818 7.48587 15.8505 7.61927 15.9557C7.75268 16.061 7.85758 16.1993 7.92402 16.3576C8.1827 16.8179 8.606 17.1578 9.10485 17.3056C9.6037 17.4535 10.1392 17.3978 10.5987 17.1503C10.6484 17.1278 10.6923 17.0939 10.7271 17.0512C10.7619 17.0085 10.7866 16.9583 10.7993 16.9043C10.8265 16.5906 10.9587 16.2961 11.1738 16.0705C11.2234 16.0268 11.2593 15.9692 11.2772 15.9048C11.295 15.8404 11.2939 15.7721 11.2741 15.7083C11.2558 15.6444 11.2194 15.5876 11.1694 15.545C11.1193 15.5024 11.058 15.4759 10.9933 15.4691C9.40849 15.2846 7.7836 14.7173 7.7836 11.9221C7.77206 11.2192 8.0259 10.5388 8.4924 10.0222C8.53456 9.97502 8.56264 9.91648 8.5733 9.85351C8.58396 9.79053 8.57677 9.72576 8.55258 9.66683C8.36739 9.13371 8.36975 8.5513 8.55927 8.01977C9.17675 8.13255 9.75637 8.40289 10.2443 8.80571C10.2849 8.83409 10.3314 8.85254 10.3801 8.85965C10.4288 8.86676 10.4784 8.86234 10.5252 8.84672C11.1229 8.6838 11.7388 8.6011 12.3574 8.60069C12.9784 8.59767 13.5969 8.68043 14.1962 8.84672C14.2419 8.86228 14.2905 8.86667 14.3381 8.85955C14.3857 8.85243 14.431 8.83399 14.4704 8.80571C14.9578 8.40187 15.5376 8.1314 16.1555 8.01977C16.3391 8.54571 16.3391 9.12039 16.1555 9.64633C16.1313 9.70574 16.1247 9.7711 16.1366 9.83429C16.1485 9.89748 16.1783 9.9557 16.2223 10.0017C16.6816 10.5142 16.9327 11.1862 16.9245 11.8811C16.9245 14.6832 15.2996 15.2436 13.7081 15.4213C13.6433 15.4281 13.582 15.4545 13.532 15.4971C13.482 15.5397 13.4455 15.5966 13.4273 15.6605C13.408 15.7232 13.4072 15.7904 13.425 15.8536C13.4429 15.9168 13.4785 15.9732 13.5276 16.0159C13.6755 16.1737 13.7884 16.3621 13.8588 16.5685C13.9292 16.7748 13.9553 16.9943 13.9355 17.2118V19.3851C13.934 19.4914 13.9553 19.5966 13.9981 19.6935C14.0409 19.7903 14.1039 19.8764 14.1829 19.9455C14.2825 20.0231 14.3987 20.0754 14.5219 20.0979C14.6452 20.1205 14.7719 20.1128 14.8917 20.0754C16.6872 19.4509 18.2083 18.1965 19.185 16.5349C20.1617 14.8732 20.531 12.9116 20.2272 10.9981C19.9235 9.08465 18.9664 7.34301 17.5257 6.08218C16.0851 4.82134 14.254 4.12284 12.3574 4.11058Z" fill="#0E0E0E"/>
</svg>
