<svg width="48" height="48" viewBox="0 0 25 25" fill="none" xmlns="http://www.w3.org/2000/svg">
<path d="M12.2183 4.01442C10.308 4.01384 8.46023 4.70982 7.00713 5.97721C5.55404 7.2446 4.59102 9.00025 4.29122 10.9285C3.99143 12.8567 4.37453 14.831 5.37165 16.4963C6.36877 18.1616 7.91448 19.4087 9.73084 20.0134H9.91807C10.0889 20.0219 10.2564 19.9632 10.3861 19.8494C10.4642 19.7799 10.5263 19.6936 10.5679 19.5967C10.6095 19.4998 10.6297 19.3947 10.6269 19.289V19.1455V18.4005C10.6215 18.3562 10.6075 18.3134 10.5857 18.2746C10.5638 18.2359 10.5347 18.202 10.4998 18.175C10.4618 18.1439 10.4175 18.1216 10.3701 18.1098C10.3228 18.098 10.2735 18.0969 10.2257 18.1066C8.42692 18.503 8.04577 17.3549 8.02571 17.2797C7.79952 16.6713 7.39564 16.1487 6.86889 15.783L6.76859 15.7078C6.84755 15.6688 6.93532 15.6523 7.02269 15.66C7.18934 15.6856 7.34683 15.7543 7.48024 15.8595C7.61364 15.9648 7.71854 16.1031 7.78498 16.2614C8.04366 16.7217 8.46696 17.0616 8.96581 17.2095C9.46467 17.3573 10.0002 17.3016 10.4597 17.0542C10.5094 17.0316 10.5533 16.9977 10.5881 16.955C10.6228 16.9124 10.6476 16.8621 10.6603 16.8081C10.6874 16.4944 10.8197 16.1999 11.0348 15.9744C11.0844 15.9307 11.1203 15.873 11.1381 15.8086C11.156 15.7443 11.1549 15.6759 11.1351 15.6121C11.1168 15.5483 11.0803 15.4914 11.0303 15.4488C10.9803 15.4062 10.919 15.3798 10.8542 15.3729C9.26945 15.1884 7.64456 14.6212 7.64456 11.826C7.63302 11.1231 7.88686 10.4427 8.35336 9.92605C8.39553 9.87886 8.4236 9.82032 8.43426 9.75735C8.44493 9.69437 8.43774 9.6296 8.41354 9.57067C8.22835 9.03755 8.23071 8.45514 8.42023 7.92361C9.03771 8.03639 9.61733 8.30673 10.1053 8.70955C10.1459 8.73793 10.1924 8.75638 10.2411 8.76349C10.2897 8.7706 10.3394 8.76617 10.3861 8.75056C10.9838 8.58764 11.5997 8.50494 12.2183 8.50452C12.8393 8.50151 13.4579 8.58427 14.0572 8.75056C14.1029 8.76612 14.1514 8.77051 14.1991 8.76339C14.2467 8.75627 14.292 8.73783 14.3314 8.70955C14.8187 8.30571 15.3986 8.03524 16.0164 7.92361C16.2001 8.44955 16.2001 9.02423 16.0164 9.55016C15.9922 9.60957 15.9857 9.67494 15.9976 9.73813C16.0095 9.80132 16.0393 9.85954 16.0833 9.90555C16.5426 10.418 16.7936 11.0901 16.7854 11.785C16.7854 14.587 15.1605 15.1474 13.5691 15.3251C13.5043 15.3319 13.443 15.3584 13.393 15.401C13.3429 15.4436 13.3065 15.5004 13.2882 15.5643C13.2689 15.6271 13.2682 15.6942 13.286 15.7574C13.3038 15.8206 13.3395 15.8771 13.3885 15.9197C13.5364 16.0775 13.6494 16.266 13.7198 16.4723C13.7902 16.6787 13.8163 16.8981 13.7964 17.1157V19.289C13.7949 19.3952 13.8163 19.5005 13.8591 19.5973C13.9018 19.6942 13.9649 19.7802 14.0438 19.8494C14.1434 19.927 14.2596 19.9792 14.3829 20.0018C14.5061 20.0243 14.6329 20.0166 14.7526 19.9792C16.5482 19.3547 18.0692 18.1004 19.046 16.4387C20.0227 14.777 20.3919 12.8154 20.0882 10.902C19.7844 8.98849 18.8273 7.24685 17.3867 5.98602C15.946 4.72518 14.115 4.02668 12.2183 4.01442Z" fill="#F7F7F7"/>
</svg>
