<svg width="40" height="40" viewBox="0 0 40 40" fill="none" xmlns="http://www.w3.org/2000/svg">
<path d="M37.4864 0.28193C37.3233 0.101903 37.089 0 36.8444 0H2.87023C2.62566 0 2.39129 0.101903 2.22824 0.28193C2.0618 0.461956 1.98028 0.703125 2.00406 0.94769L5.06452 35.231C5.09509 35.591 5.34645 35.8899 5.69292 35.9918L19.6161 39.966C19.6909 39.9898 19.7724 40 19.8539 40C19.9354 40 20.0136 39.9898 20.0917 39.966L34.0251 35.9918C34.3716 35.8899 34.6195 35.591 34.6535 35.231L37.7106 0.94769C37.7344 0.703125 37.6528 0.461956 37.4864 0.28193ZM30.1596 12.1026H13.8009L14.1916 16.5285H29.7656L28.5971 29.6094L19.8505 32.252L19.7656 32.2249L11.1209 29.606L10.6488 24.2765H14.8845L15.0679 26.3451L19.9015 27.3573L24.6467 26.3451L25.1528 20.7473H10.3329L9.18137 7.87364H30.5367L30.1596 12.1026Z" fill="#207FB4"/>
</svg>
