<svg width="30" height="20" viewBox="0 0 30 20" fill="none" xmlns="http://www.w3.org/2000/svg">
<g clip-path="url(#clip0_825_776)">
<path d="M5 3.75C5 3.0625 5.5625 2.5 6.25 2.5H26.25C26.9375 2.5 27.5 1.9375 27.5 1.25C27.5 0.5625 26.9375 0 26.25 0H5C3.625 0 2.5 1.125 2.5 2.5V16.25H1.875C0.8375 16.25 0 17.0875 0 18.125C0 19.1625 0.8375 20 1.875 20H17.5V16.25H5V3.75ZM28.75 5H21.25C20.5625 5 20 5.5625 20 6.25V18.75C20 19.4375 20.5625 20 21.25 20H28.75C29.4375 20 30 19.4375 30 18.75V6.25C30 5.5625 29.4375 5 28.75 5ZM27.5 16.25H22.5V7.5H27.5V16.25Z" fill="#0E0E0E"/>
</g>
<defs>
<clipPath id="clip0_825_776">
<rect width="30" height="20" fill="white"/>
</clipPath>
</defs>
</svg>
