<svg width="32" height="32" viewBox="0 0 32 32" fill="none" xmlns="http://www.w3.org/2000/svg">
<g clip-path="url(#clip0_1131_40)">
<path fill-rule="evenodd" clip-rule="evenodd" d="M23.3846 32H8.61538C3.86585 32 0 28.1354 0 23.3846V8.61539C0 3.86462 3.86585 0 8.61538 0H23.3846C28.1341 0 32 3.86462 32 8.61539V23.3846C32 28.1354 28.1341 32 23.3846 32ZM16 24.615C11.2504 24.615 7.3846 20.7504 7.3846 15.9997C7.3846 11.2489 11.2504 7.38428 16 7.38428C20.7495 7.38428 24.6154 11.2489 24.6154 15.9997C24.6154 20.7504 20.7495 24.615 16 24.615ZM16 9.84582C12.6068 9.84582 9.84614 12.6064 9.84614 15.9997C9.84614 19.3929 12.6068 22.1535 16 22.1535C19.3932 22.1535 22.1538 19.3929 22.1538 15.9997C22.1538 12.6064 19.3932 9.84582 16 9.84582ZM27.0769 6.76901C27.0769 7.78861 26.2503 8.61516 25.2307 8.61516C24.2111 8.61516 23.3846 7.78861 23.3846 6.76901C23.3846 5.7494 24.2111 4.92285 25.2307 4.92285C26.2503 4.92285 27.0769 5.7494 27.0769 6.76901Z" fill="#F7F7F7"/>
</g>
<defs>
<clipPath id="clip0_1131_40">
<rect width="32" height="32" fill="white"/>
</clipPath>
</defs>
</svg>
