<svg width="32" height="32" viewBox="0 0 32 32" fill="none" xmlns="http://www.w3.org/2000/svg">
<g clip-path="url(#clip0_825_2700)">
<g clip-path="url(#clip1_825_2700)">
<path d="M23.7873 29.9852L8.23993 30C4.81951 30.0031 2.01866 27.2077 2.01477 23.7873L2 8.23993C1.99689 4.81951 4.79231 2.01866 8.21272 2.01477L23.7601 2C27.1805 1.99689 29.9813 4.79231 29.9852 8.21272L30 23.7601C30.0039 27.1813 27.2077 29.9821 23.7873 29.9852Z" fill="#595959"/>
<path d="M15.9999 24.6149C11.2504 24.6149 7.38452 20.7503 7.38452 15.9995C7.38452 11.2488 11.2504 7.38416 15.9999 7.38416C20.7494 7.38416 24.6153 11.2488 24.6153 15.9995C24.6153 20.7503 20.7494 24.6149 15.9999 24.6149ZM15.9999 9.84569C12.6067 9.84569 9.84606 12.6063 9.84606 15.9995C9.84606 19.3928 12.6067 22.1534 15.9999 22.1534C19.3931 22.1534 22.1538 19.3928 22.1538 15.9995C22.1538 12.6063 19.3931 9.84569 15.9999 9.84569Z" fill="black"/>
<path d="M25.2307 8.61528C26.2503 8.61528 27.0768 7.78873 27.0768 6.76913C27.0768 5.74952 26.2503 4.92297 25.2307 4.92297C24.2111 4.92297 23.3845 5.74952 23.3845 6.76913C23.3845 7.78873 24.2111 8.61528 25.2307 8.61528Z" fill="black"/>
<path d="M23.3846 32H8.61538C3.86585 32 0 28.1354 0 23.3846V8.61538C0 3.86462 3.86585 0 8.61538 0H23.3846C28.1341 0 32 3.86462 32 8.61538V23.3846C32 28.1354 28.1341 32 23.3846 32ZM8.61538 2.46154C5.22215 2.46154 2.46154 5.22215 2.46154 8.61538V23.3846C2.46154 26.7778 5.22215 29.5385 8.61538 29.5385H23.3846C26.7778 29.5385 29.5385 26.7778 29.5385 23.3846V8.61538C29.5385 5.22215 26.7778 2.46154 23.3846 2.46154H8.61538Z" fill="black"/>
</g>
</g>
<defs>
<clipPath id="clip0_825_2700">
<rect width="32" height="32" fill="white"/>
</clipPath>
<clipPath id="clip1_825_2700">
<rect width="32" height="32" fill="white"/>
</clipPath>
</defs>
</svg>
