<svg width="40" height="40" viewBox="0 0 40 40" fill="none" xmlns="http://www.w3.org/2000/svg">
<g clip-path="url(#clip0_825_818)">
<path d="M36.3636 0H3.63636C1.62727 0 0 1.62727 0 3.63636V36.3636C0 38.3727 1.62727 40 3.63636 40H36.3636C38.3727 40 40 38.3727 40 36.3636V3.63636C40 1.62727 38.3727 0 36.3636 0ZM20 29.7818C20 33.0127 18.0182 34.8236 14.7273 34.8236C11.4764 34.8236 9.40546 32.9236 9.40546 29.8509H12.9273C12.9364 30.9909 13.6164 31.7109 14.6673 31.7109C15.7473 31.7109 16.3273 31.0309 16.3273 29.7509V19.9964H20V29.7818ZM29.9655 34.8236C26.3127 34.8236 24.0145 33.1036 23.9527 30.3218H27.4545C27.5436 31.3727 28.5927 32.0418 30.1145 32.0418C31.4855 32.0418 32.4273 31.3818 32.4273 30.4309C32.4273 29.6309 31.7964 29.2 30.1455 28.8709L28.2455 28.4909C25.6036 27.9909 24.2436 26.5509 24.2436 24.28C24.2436 21.4582 26.5055 19.6073 29.9855 19.6073C33.3673 19.6073 35.7073 21.4382 35.7673 24.1091H32.3764C32.2964 23.0891 31.3255 22.3782 30.0327 22.3782C28.7436 22.3782 27.8945 22.9891 27.8945 23.9491C27.8945 24.74 28.5345 25.2 30.0545 25.5L31.9127 25.86C34.7655 26.4109 36.0455 27.7 36.0455 29.9909C36.0473 33.0036 33.7473 34.8236 29.9655 34.8236Z" fill="#207FB4"/>
</g>
<defs>
<clipPath id="clip0_825_818">
<rect width="40" height="40" fill="white"/>
</clipPath>
</defs>
</svg>
