<svg width="12" height="12" viewBox="0 0 12 12" fill="none" xmlns="http://www.w3.org/2000/svg">
<g clip-path="url(#clip0_825_946)">
<g filter="url(#filter0_i_825_946)">
<path d="M6 8.72727C5.24545 8.72727 4.60227 8.46136 4.07045 7.92955C3.53864 7.39773 3.27273 6.75455 3.27273 6C3.27273 5.24545 3.53864 4.60227 4.07045 4.07045C4.60227 3.53864 5.24545 3.27273 6 3.27273C6.75455 3.27273 7.39773 3.53864 7.92955 4.07045C8.46136 4.60227 8.72727 5.24545 8.72727 6C8.72727 6.75455 8.46136 7.39773 7.92955 7.92955C7.39773 8.46136 6.75455 8.72727 6 8.72727ZM2.18182 6.54545H0V5.45455H2.18182V6.54545ZM12 6.54545H9.81818V5.45455H12V6.54545ZM5.45455 2.18182V0H6.54545V2.18182H5.45455ZM5.45455 12V9.81818H6.54545V12H5.45455ZM2.94545 3.68182L1.56818 2.35909L2.34545 1.55455L3.65455 2.91818L2.94545 3.68182ZM9.65455 10.4455L8.33182 9.06818L9.05455 8.31818L10.4318 9.64091L9.65455 10.4455ZM8.31818 2.94545L9.64091 1.56818L10.4455 2.34545L9.08182 3.65455L8.31818 2.94545ZM1.55455 9.65455L2.93182 8.33182L3.68182 9.05455L2.35909 10.4318L1.55455 9.65455Z" fill="#B3B3B3"/>
</g>
</g>
<defs>
<filter id="filter0_i_825_946" x="0" y="0" width="12" height="12" filterUnits="userSpaceOnUse" color-interpolation-filters="sRGB">
<feFlood flood-opacity="0" result="BackgroundImageFix"/>
<feBlend mode="normal" in="SourceGraphic" in2="BackgroundImageFix" result="shape"/>
<feColorMatrix in="SourceAlpha" type="matrix" values="0 0 0 0 0 0 0 0 0 0 0 0 0 0 0 0 0 0 127 0" result="hardAlpha"/>
<feOffset/>
<feGaussianBlur stdDeviation="1"/>
<feComposite in2="hardAlpha" operator="arithmetic" k2="-1" k3="1"/>
<feColorMatrix type="matrix" values="0 0 0 0 0 0 0 0 0 0 0 0 0 0 0 0 0 0 0.4 0"/>
<feBlend mode="normal" in2="shape" result="effect1_innerShadow_825_946"/>
</filter>
<clipPath id="clip0_825_946">
<rect width="12" height="12" fill="white"/>
</clipPath>
</defs>
</svg>
