<svg width="44" height="40" viewBox="0 0 44 40" fill="none" xmlns="http://www.w3.org/2000/svg">
<g clip-path="url(#clip0_1501_1159)">
<path fill-rule="evenodd" clip-rule="evenodd" d="M31.0009 2.00278C30.2587 1.97999 29.4818 2.09814 28.7028 2.32873C27.1448 2.78989 25.5123 3.68859 23.8369 4.93292C23.1803 5.42057 22.5177 5.97801 21.8529 6.56945C21.2028 5.99302 20.5539 5.45055 19.9118 4.97366C18.2377 3.73034 16.6096 2.83129 15.0552 2.37117C13.5007 1.91105 11.9541 1.89679 10.6838 2.5664C9.41356 3.23601 8.65393 4.46519 8.31315 5.92435C7.97238 7.3835 8.00992 9.12116 8.3522 11.0665C8.47109 11.7422 8.64065 12.4511 8.83377 13.1733C8.10794 13.3741 7.40307 13.5853 6.74944 13.8184C4.77683 14.5219 3.14462 15.3634 1.95604 16.3649C0.767456 17.3663 0 18.5818 0 19.9164C0 21.251 0.767456 22.4647 1.95604 23.4662C3.14462 24.4676 4.77683 25.3109 6.74944 26.0143C7.44836 26.2636 8.20507 26.488 8.98624 26.7002C8.70525 27.6588 8.4776 28.589 8.32245 29.4707C7.97989 31.4177 7.94372 33.1555 8.28526 34.618C8.62681 36.0805 9.38683 37.3166 10.6634 37.9895C11.9399 38.6625 13.4935 38.6459 15.0514 38.1848C16.6094 37.7236 18.2401 36.8266 19.9155 35.5823C20.566 35.0991 21.2241 34.5479 21.8827 33.9627C22.5447 34.5515 23.2054 35.1052 23.8592 35.5908C25.5332 36.8341 27.1632 37.7314 28.7177 38.1916C30.2721 38.6517 31.8187 38.6659 33.089 37.9963C34.3593 37.3267 35.117 36.0975 35.4578 34.6384C35.7986 33.1792 35.761 31.4433 35.4188 29.4979C35.2632 28.6137 35.0354 27.6804 34.7531 26.7188C35.5601 26.5015 36.3407 26.271 37.0606 26.0143C39.0332 25.3109 40.6654 24.4676 41.854 23.4662C43.0425 22.4647 43.81 21.251 43.81 19.9164C43.81 18.5818 43.0425 17.3663 41.854 16.3649C40.6654 15.3634 39.0332 14.5219 37.0606 13.8184C36.3975 13.582 35.6819 13.3681 34.9446 13.1648C35.1393 12.4382 35.3122 11.7242 35.4318 11.0445C35.7743 9.09753 35.8105 7.35795 35.469 5.89549C35.1274 4.43302 34.3655 3.19857 33.089 2.52565C32.4507 2.1892 31.7432 2.02557 31.0009 2.00278ZM30.9136 3.77173C31.3793 3.78336 31.7767 3.88456 32.1166 4.06372C32.7963 4.42206 33.2988 5.11947 33.5668 6.26727C33.8349 7.41507 33.8256 8.96587 33.5092 10.7643C33.4009 11.3801 33.2436 12.0327 33.0648 12.7014C31.1175 12.2735 28.9837 11.956 26.7096 11.7694C25.5679 10.3253 24.3948 9.00972 23.2121 7.84269C23.8377 7.28513 24.4592 6.76367 25.0659 6.31311C26.6136 5.16366 28.0788 4.38153 29.3015 4.01959C29.9129 3.83861 30.4478 3.7601 30.9136 3.77173ZM12.8481 3.77682C13.3166 3.76488 13.8526 3.84319 14.4657 4.02468C15.692 4.38766 17.1598 5.16945 18.7088 6.3199C19.3033 6.76142 19.9109 7.27295 20.5235 7.81723C19.332 8.99381 18.1493 10.3208 17 11.7778C14.7355 11.9679 12.6104 12.2871 10.6727 12.7166C10.4953 12.0517 10.3379 11.4024 10.2301 10.7898C9.91343 8.98977 9.90553 7.43876 10.1744 6.28764C10.4432 5.13653 10.9498 4.43386 11.6358 4.07221C11.9788 3.89139 12.3796 3.78876 12.8481 3.77682ZM21.8827 9.09386C22.6582 9.86439 23.4339 10.7076 24.2032 11.6149C23.4473 11.5861 22.6821 11.569 21.905 11.569C21.1124 11.569 20.3327 11.5866 19.5622 11.6166C20.3317 10.7086 21.107 9.86497 21.8827 9.09386ZM21.905 13.3244C23.1996 13.3244 24.4614 13.373 25.6888 13.4551C26.5333 14.5626 27.3586 15.7375 28.145 16.9811C28.8359 18.0738 29.4612 19.1649 30.0304 20.2423C29.4552 21.3341 28.8195 22.4398 28.1189 23.5476C27.5023 24.5228 26.8584 25.449 26.2038 26.342C24.8174 26.4478 23.3809 26.5066 21.905 26.5066C20.3936 26.5066 18.9248 26.4443 17.5076 26.3335C16.864 25.4533 16.2309 24.5412 15.6241 23.5816C14.9252 22.4763 14.2925 21.3726 13.7183 20.2831C14.2949 19.1874 14.9305 18.0775 15.6334 16.9659C16.4157 15.7288 17.2386 14.5606 18.0785 13.4585C19.319 13.3745 20.5955 13.3244 21.905 13.3244ZM28.1394 13.6724C29.7087 13.8512 31.1822 14.0994 32.5535 14.3973C32.1466 15.6152 31.6454 16.8873 31.0381 18.2C30.6438 17.5061 30.2355 16.8097 29.7942 16.1119C29.2595 15.2663 28.7026 14.4601 28.1394 13.6724ZM15.5683 13.686C15.017 14.459 14.4746 15.2495 13.9507 16.078C13.5038 16.7847 13.087 17.4904 12.6882 18.1933C12.0862 16.8884 11.588 15.6235 11.184 14.4126C12.5451 14.1141 14.0099 13.8668 15.5683 13.686ZM34.437 14.8591C35.1119 15.0455 35.7636 15.2401 36.3614 15.4532C38.1799 16.1017 39.6183 16.8696 40.5506 17.6551C41.4828 18.4406 41.8874 19.1897 41.8874 19.9164C41.8874 20.6431 41.4828 21.3922 40.5506 22.1776C39.6183 22.9631 38.1799 23.731 36.3614 24.3795C35.6971 24.6164 34.9672 24.8312 34.2083 25.0348C33.667 23.5061 32.976 21.9112 32.1537 20.2831C33.0992 18.4138 33.863 16.5913 34.437 14.8591ZM9.34137 14.8676C9.90882 16.5825 10.6628 18.3869 11.5949 20.2372C10.7672 21.8748 10.0728 23.4788 9.52917 25.0161C8.79705 24.8179 8.09187 24.6089 7.44856 24.3795C5.63011 23.731 4.19171 22.9631 3.25944 22.1776C2.32717 21.3921 1.92257 20.6431 1.92257 19.9164C1.92257 19.1897 2.32717 18.4406 3.25944 17.6551C4.19171 16.8696 5.63011 16.1017 7.44856 15.4532C8.03719 15.2433 8.67801 15.0516 9.34137 14.8676ZM21.905 15.9235C19.2874 15.9235 17.1451 17.8796 17.1451 20.2695C17.1451 22.6594 19.2874 24.6155 21.905 24.6155C24.5226 24.6155 26.6649 22.6594 26.6649 20.2695C26.6649 17.8796 24.5226 15.9235 21.905 15.9235ZM12.7105 22.3253C13.111 23.0317 13.5275 23.7404 13.9767 24.4508C14.3282 25.0066 14.6871 25.5476 15.0514 26.0788C13.773 25.917 12.5577 25.712 11.4164 25.4694C11.7793 24.4545 12.2135 23.401 12.7105 22.3253ZM31.0623 22.3253C31.5613 23.4036 31.9957 24.4587 32.3601 25.4762C31.2153 25.7185 29.9962 25.9228 28.7139 26.0839C29.0831 25.5462 29.4476 24.9984 29.8035 24.4355C30.2494 23.7304 30.6643 23.0265 31.0623 22.3253ZM10.8679 27.1568C12.5908 27.5295 14.4583 27.8158 16.4385 28.0023C17.7604 29.7479 19.1375 31.3165 20.5235 32.6878C19.9037 33.2395 19.2895 33.7573 18.6883 34.2038C17.1407 35.3532 15.6736 36.1337 14.4509 36.4956C13.2281 36.8575 12.3156 36.8098 11.6358 36.4515C10.956 36.0931 10.4554 35.3957 10.1874 34.2479C9.91932 33.1001 9.92672 31.551 10.2432 29.7525C10.3867 28.9367 10.6012 28.063 10.8679 27.1568ZM32.9105 27.1636C33.1794 28.0753 33.3945 28.9522 33.539 29.7729C33.8557 31.573 33.8636 33.124 33.5947 34.2751C33.3259 35.4262 32.8231 36.1306 32.137 36.4922C31.451 36.8539 30.5296 36.901 29.3034 36.538C28.0771 36.1751 26.6093 35.3933 25.0603 34.2428C24.4548 33.7931 23.8363 33.2711 23.2121 32.7149C24.6074 31.3383 25.9942 29.7618 27.325 28.0057C29.3102 27.8204 31.1829 27.5359 32.9105 27.1636ZM18.9226 28.1805C19.9001 28.2292 20.8904 28.262 21.905 28.262C22.886 28.262 23.8443 28.2311 24.7907 28.1856C23.8232 29.3774 22.837 30.4609 21.8548 31.4366C20.8732 30.4589 19.8888 29.3734 18.9226 28.1805Z" fill="#207FB4"/>
</g>
<defs>
<clipPath id="clip0_1501_1159">
<path d="M0 0H43.81V40H9.99999C4.47714 40 0 35.5228 0 30V0Z" fill="white"/>
</clipPath>
</defs>
</svg>
