<svg width="48" height="48" viewBox="0 0 48 48" fill="none" xmlns="http://www.w3.org/2000/svg">
<path d="M22.6244 13.5409C23.1675 13.3155 23.2085 12.8154 23.2085 12.6658C23.2085 12.5182 23.1675 12.0161 22.6244 11.7906C22.3518 11.6779 22.1387 11.4648 22.0259 11.1922C21.9132 10.9196 21.9132 10.6183 22.0259 10.3457L22.7474 8.60564C22.981 8.04201 23.6287 7.77352 24.1944 8.00717C24.7375 8.23262 25.1208 7.90674 25.2253 7.80222C25.3298 7.69769 25.6557 7.31238 25.4302 6.7713C25.3175 6.49871 25.3175 6.19743 25.4302 5.92484C25.543 5.65225 25.7561 5.43909 26.0287 5.32637L27.7688 4.60493C28.3324 4.37128 28.9801 4.63977 29.2157 5.2034C29.4412 5.74448 29.9413 5.78752 30.0909 5.78752C30.2385 5.78752 30.7406 5.74653 30.9661 5.2034C31.0788 4.93081 31.2919 4.71765 31.5645 4.60493C31.8371 4.4922 32.1384 4.4922 32.411 4.60493L34.1511 5.32637C34.4236 5.43909 34.6368 5.65225 34.7495 5.92484C34.8622 6.19743 34.8622 6.49871 34.7495 6.7713C34.5241 7.31443 34.8499 7.69769 34.9545 7.80222C35.059 7.90674 35.4443 8.23262 35.9854 8.00717C36.258 7.89445 36.5593 7.89445 36.8319 8.00717C37.1044 8.1199 37.3176 8.33305 37.4303 8.60564L38.1518 10.3457C38.2645 10.6183 38.2645 10.9196 38.1518 11.1922C38.039 11.4648 37.8259 11.6779 37.5533 11.7906C37.0122 12.0161 36.9692 12.5162 36.9692 12.6658C36.9692 12.8154 37.0122 13.3155 37.5533 13.5409C38.1169 13.7746 38.3854 14.4243 38.1518 14.9879L37.4303 16.728C37.3176 17.0006 37.1044 17.2137 36.8319 17.3264C36.5593 17.4392 36.258 17.4392 35.9854 17.3264C35.4443 17.103 35.059 17.4269 34.9545 17.5314C34.8499 17.6359 34.5241 18.0212 34.7495 18.5623C34.9832 19.1259 34.7147 19.7757 34.1511 20.0093L32.411 20.7307C32.2737 20.7881 32.1302 20.8148 31.9867 20.8148C31.8433 20.8148 31.6998 20.7861 31.5625 20.7307C31.2899 20.618 31.0767 20.4049 30.964 20.1323C30.7386 19.5891 30.2385 19.5482 30.0889 19.5482C29.9413 19.5482 29.4391 19.5891 29.2137 20.1323C28.9801 20.6959 28.3303 20.9644 27.7667 20.7307L26.0267 20.0093C25.463 19.7757 25.1945 19.1259 25.4282 18.5623C25.6536 18.0192 25.3278 17.6359 25.2232 17.5314C25.1187 17.4269 24.7354 17.101 24.1923 17.3264C23.6287 17.558 22.981 17.2896 22.7474 16.7259L22.0259 14.9859C21.7923 14.4222 22.0608 13.7746 22.6244 13.5409ZM30.0909 15.7217C31.7756 15.7217 33.1468 14.3505 33.1468 12.6658C33.1468 10.9811 31.7756 9.60992 30.0909 9.60992C28.4062 9.60992 27.035 10.9811 27.035 12.6658C27.035 14.3505 28.4062 15.7217 30.0909 15.7217Z" fill="#207FB4"/>
<path d="M22.3961 32.7798H18.7781C18.4873 32.7798 18.2512 32.5443 18.2512 32.253V25.1001C18.2512 24.8088 18.4873 24.5732 18.7781 24.5732H22.3961C22.687 24.5732 22.923 24.8088 22.923 25.1001C22.923 25.3915 22.687 25.627 22.3961 25.627H19.305V31.7261H22.3961C22.687 31.7261 22.923 31.9616 22.923 32.253C22.923 32.5443 22.6875 32.7798 22.3961 32.7798Z" fill="#207FB4"/>
<path d="M21.2992 29.2034H18.7781C18.4873 29.2034 18.2512 28.9679 18.2512 28.6765C18.2512 28.3852 18.4873 28.1497 18.7781 28.1497H21.2992C21.59 28.1497 21.8261 28.3852 21.8261 28.6765C21.8261 28.9679 21.5906 29.2034 21.2992 29.2034Z" fill="#207FB4"/>
<path d="M13.8027 29.2034H11.3401C11.0493 29.2034 10.8132 28.9679 10.8132 28.6765V25.1001C10.8132 24.8088 11.0493 24.5732 11.3401 24.5732H13.8027C14.8475 24.5732 15.6974 25.4231 15.6974 26.4679V27.3093C15.6974 28.353 14.8475 29.2034 13.8027 29.2034ZM11.867 28.1497H13.8027C14.2664 28.1497 14.6436 27.7724 14.6436 27.3088V26.4674C14.6436 26.0037 14.2664 25.6265 13.8027 25.6265H11.867V28.1497Z" fill="#207FB4"/>
<path d="M15.1705 32.7798C14.8797 32.7798 14.6436 32.5443 14.6436 32.253V30.0443C14.6436 29.5807 14.2664 29.2034 13.8027 29.2034H11.867V32.253C11.867 32.5443 11.6309 32.7798 11.3401 32.7798C11.0493 32.7798 10.8132 32.5443 10.8132 32.253V28.6765C10.8132 28.3852 11.0493 28.1497 11.3401 28.1497H13.8027C14.8475 28.1497 15.6974 28.9995 15.6974 30.0443V32.253C15.6974 32.5443 15.4613 32.7798 15.1705 32.7798Z" fill="#207FB4"/>
<path d="M36.6059 25.627H32.0938C31.8024 25.627 31.5669 25.3915 31.5669 25.1001C31.5669 24.8088 31.8024 24.5732 32.0938 24.5732H36.6059C36.8973 24.5732 37.1328 24.8088 37.1328 25.1001C37.1328 25.3915 36.8968 25.627 36.6059 25.627Z" fill="#207FB4"/>
<path d="M34.3494 32.7798C34.058 32.7798 33.8225 32.5443 33.8225 32.253V25.1001C33.8225 24.8088 34.058 24.5732 34.3494 24.5732C34.6407 24.5732 34.8763 24.8088 34.8763 25.1001V32.253C34.8763 32.5443 34.6407 32.7798 34.3494 32.7798Z" fill="#207FB4"/>
<path d="M27.5109 32.7798H26.8476C25.7601 32.7798 24.8755 31.92 24.8755 30.8631C24.8755 30.5717 25.111 30.3362 25.4024 30.3362C25.6937 30.3362 25.9292 30.5717 25.9292 30.8631C25.9292 31.3388 26.3413 31.7261 26.8476 31.7261H27.5109C28.0594 31.7261 28.5057 31.3062 28.5057 30.7898V30.1402C28.5057 29.6239 28.0594 29.2039 27.5109 29.2039H26.9245C25.7944 29.2039 24.8755 28.3114 24.8755 27.2139V26.5643C24.8755 25.4668 25.7944 24.5743 26.9245 24.5743H27.5878C28.6748 24.5743 29.5594 25.4341 29.5594 26.4905C29.5594 26.7819 29.3239 27.0174 29.0325 27.0174C28.7412 27.0174 28.5057 26.7819 28.5057 26.4905C28.5057 26.0153 28.0942 25.628 27.5878 25.628H26.9245C26.376 25.628 25.9292 26.0479 25.9292 26.5643V27.2139C25.9292 27.7303 26.376 28.1502 26.9245 28.1502H27.5109C28.6405 28.1502 29.5594 29.0427 29.5594 30.1402V30.7898C29.5594 31.8873 28.64 32.7798 27.5109 32.7798Z" fill="#207FB4"/>
<path d="M20.1475 43.9564C19.8566 43.9564 19.6206 43.7209 19.6206 43.4295V37.8188C19.6206 37.2588 19.1649 36.803 18.6053 36.803H17.2502C16.6901 36.803 16.2349 37.2588 16.2349 37.8188V43.429C16.2349 43.7204 15.9989 43.9559 15.708 43.9559C15.4172 43.9559 15.1812 43.7204 15.1812 43.429V37.8188C15.1812 36.6776 16.1095 35.7493 17.2502 35.7493H18.6053C19.7465 35.7493 20.6743 36.6776 20.6743 37.8188V43.429C20.6743 43.7204 20.4383 43.9564 20.1475 43.9564Z" fill="#207FB4"/>
<path d="M20.1475 40.38H15.7075C15.4167 40.38 15.1807 40.1445 15.1807 39.8531C15.1807 39.5617 15.4167 39.3262 15.7075 39.3262H20.1475C20.4383 39.3262 20.6744 39.5617 20.6744 39.8531C20.6744 40.1445 20.4383 40.38 20.1475 40.38Z" fill="#207FB4"/>
<path d="M31.3445 43.9564C31.0531 43.9564 30.8176 43.7209 30.8176 43.4295V36.2767C30.8176 35.9853 31.0531 35.7498 31.3445 35.7498C31.6359 35.7498 31.8714 35.9853 31.8714 36.2767V43.4295C31.8714 43.7204 31.6359 43.9564 31.3445 43.9564Z" fill="#207FB4"/>
<path d="M26.5527 40.8157H23.9341C23.6433 40.8157 23.4072 40.5802 23.4072 40.2888V36.2767C23.4072 35.9853 23.6433 35.7498 23.9341 35.7498H26.5527C27.6117 35.7498 28.4731 36.6118 28.4731 37.6708V38.8953C28.4726 39.9538 27.6112 40.8157 26.5527 40.8157ZM24.4604 39.762H26.5521C27.03 39.762 27.4189 39.3731 27.4189 38.8947V37.6703C27.4189 37.1924 27.0305 36.803 26.5521 36.803H24.4604V39.762Z" fill="#207FB4"/>
<path d="M23.9336 43.9564C23.6428 43.9564 23.4067 43.7209 23.4067 43.4295V40.2888C23.4067 39.9975 23.6428 39.762 23.9336 39.762C24.2244 39.762 24.4605 39.9975 24.4605 40.2888V43.4295C24.4605 43.7204 24.225 43.9564 23.9336 43.9564Z" fill="#207FB4"/>
<path d="M36.8294 39.9907C36.538 39.9907 36.3025 39.7551 36.3025 39.4638C36.3025 39.1724 36.538 38.9369 36.8294 38.9369C42.2325 38.9369 46.6287 34.5417 46.6287 29.1386C46.6287 25.3767 44.5302 22.0063 41.1513 20.343C40.9869 20.2623 40.8768 20.1022 40.8594 19.9204C40.7272 18.5421 40.3921 17.1975 39.8626 15.923C39.7509 15.6543 39.8784 15.3461 40.1471 15.2344C40.4174 15.1227 40.7246 15.2502 40.8362 15.5189C41.3684 16.8008 41.7182 18.1485 41.8779 19.5305C45.4659 21.4151 47.6825 25.0696 47.6825 29.1381C47.6825 35.1223 42.8141 39.9907 36.8294 39.9907Z" fill="#207FB4"/>
<path d="M11.1168 39.9907C5.13252 39.9907 0.263672 35.1223 0.263672 29.1386C0.263672 23.1544 5.13252 18.2855 11.1168 18.2855H12.3265C13.1373 14.2681 15.5794 10.7391 19.08 8.5515C19.3265 8.39765 19.6516 8.473 19.806 8.71905C19.9598 8.96562 19.885 9.29071 19.6384 9.44508C16.2664 11.5526 13.9503 14.9994 13.2838 18.9009C13.2406 19.1538 13.0209 19.3393 12.7643 19.3393H11.1168C5.71314 19.3393 1.31742 23.735 1.31742 29.1381C1.31742 34.5412 5.71314 38.9374 11.1168 38.9374C11.4076 38.9374 11.6436 39.1729 11.6436 39.4643C11.6436 39.7557 11.4076 39.9907 11.1168 39.9907Z" fill="#207FB4"/>
<path d="M31.9867 21.3415C31.7715 21.3415 31.5604 21.2985 31.3616 21.2165C30.9578 21.0505 30.6442 20.7349 30.4782 20.3332C30.3901 20.118 30.2179 20.0729 30.0909 20.0729C29.9617 20.0729 29.7916 20.118 29.7035 20.3332C29.3592 21.1632 28.402 21.5608 27.5699 21.2165L25.8278 20.4951C24.9957 20.1507 24.6001 19.1916 24.9445 18.3615C25.0387 18.136 24.9281 17.9782 24.8543 17.9044C24.7621 17.8122 24.6083 17.7241 24.3952 17.8122C23.5631 18.1545 22.6059 17.7589 22.2596 16.9289L21.5381 15.1888C21.1938 14.3567 21.5894 13.3995 22.4215 13.0552C22.6367 12.9671 22.6818 12.7949 22.6818 12.6679C22.6818 12.5387 22.6367 12.3686 22.4235 12.2805C22.0198 12.1145 21.7062 11.7989 21.5402 11.3971C21.3721 10.9934 21.3721 10.5507 21.5402 10.1469L22.2616 8.40686C22.608 7.57474 23.5651 7.17918 24.3972 7.5235C24.6124 7.61163 24.7641 7.5235 24.8543 7.43332C24.9465 7.34109 25.0346 7.18943 24.9465 6.97423C24.7805 6.57047 24.7805 6.12776 24.9465 5.724C25.1146 5.32024 25.4282 5.00666 25.8299 4.84065L27.5699 4.11921C28.402 3.77489 29.3592 4.1725 29.7056 5.00256C29.7937 5.21572 29.9658 5.26081 30.0929 5.26081C30.222 5.26081 30.3922 5.21572 30.4803 5.00256C30.6483 4.5988 30.9619 4.28522 31.3657 4.11716C31.7694 3.9491 32.2121 3.95115 32.6159 4.11716L34.356 4.8386C34.7597 5.00666 35.0733 5.32024 35.2414 5.72195C35.4094 6.12571 35.4094 6.57047 35.2414 6.97218C35.1532 7.18533 35.2414 7.33904 35.3316 7.42922C35.4238 7.52145 35.5754 7.60958 35.7886 7.52145C36.1924 7.35544 36.6371 7.35544 37.0388 7.52145C37.4426 7.68952 37.7562 8.0031 37.9242 8.40686L38.6436 10.1469C38.8117 10.5507 38.8117 10.9934 38.6436 11.3971C38.4756 11.8009 38.162 12.1145 37.7582 12.2825C37.5451 12.3707 37.5 12.5428 37.5 12.6699C37.5 12.797 37.5451 12.9691 37.7603 13.0573C38.164 13.2233 38.4776 13.5389 38.6436 13.9427C38.8117 14.3464 38.8117 14.7891 38.6436 15.1929L37.9222 16.933C37.7562 17.3367 37.4426 17.6503 37.0388 17.8163C36.6351 17.9823 36.1903 17.9823 35.7886 17.8163C35.5734 17.7261 35.4217 17.8163 35.3316 17.9065C35.2414 17.9967 35.1512 18.1504 35.2414 18.3635C35.5857 19.1957 35.1901 20.1528 34.358 20.4971L32.618 21.2186C32.413 21.3005 32.2019 21.3415 31.9867 21.3415ZM30.0909 19.0194C30.5664 19.0194 31.1751 19.2592 31.4518 19.9294C31.5112 20.0729 31.6219 20.1835 31.7653 20.243C31.9088 20.3024 32.0666 20.3024 32.2101 20.243L33.9502 19.5215C34.2453 19.3986 34.3867 19.0583 34.2637 18.7632C33.985 18.091 34.2473 17.4925 34.5835 17.1564C34.9196 16.8202 35.5181 16.5599 36.1883 16.8366C36.3338 16.8961 36.4875 16.8961 36.633 16.8366C36.7765 16.7772 36.8872 16.6665 36.9466 16.5231L37.668 14.783C37.7275 14.6395 37.7275 14.4838 37.668 14.3403C37.6086 14.1968 37.4979 14.0861 37.3545 14.0267C36.6843 13.748 36.4445 13.1413 36.4445 12.6658C36.4445 12.1903 36.6822 11.5816 37.3545 11.3049C37.4979 11.2455 37.6086 11.1348 37.668 10.9913C37.7275 10.8479 37.7275 10.69 37.668 10.5466L36.9466 8.80652C36.8872 8.66305 36.7765 8.55237 36.633 8.49294C36.4895 8.4335 36.3317 8.4335 36.1883 8.49294C35.5201 8.77168 34.9196 8.51138 34.5814 8.17321C34.2453 7.83913 33.985 7.23862 34.2637 6.56842C34.3232 6.42495 34.3232 6.26713 34.2637 6.12366C34.2043 5.9802 34.0936 5.86952 33.9502 5.81009L32.2101 5.08865C32.0646 5.02921 31.9109 5.02921 31.7653 5.08865C31.6219 5.14808 31.5092 5.25876 31.4518 5.40223C31.1751 6.07243 30.5664 6.31222 30.0909 6.31222C29.6154 6.31222 29.0067 6.07448 28.73 5.40427C28.607 5.10914 28.2668 4.96772 27.9716 5.0907L26.2316 5.81009C26.0881 5.86952 25.9774 5.9802 25.918 6.12366C25.8586 6.26713 25.8586 6.42495 25.918 6.56842C26.1967 7.24067 25.9344 7.83913 25.5962 8.17526C25.2621 8.51138 24.6637 8.77168 23.9914 8.49294C23.6963 8.36996 23.3561 8.51138 23.2331 8.80652L22.5117 10.5466C22.4522 10.69 22.4522 10.8479 22.5117 10.9893C22.5711 11.1327 22.6818 11.2455 22.8252 11.3029C23.4975 11.5816 23.7352 12.1883 23.7352 12.6658C23.7352 13.1413 23.4954 13.748 22.8252 14.0267C22.5301 14.1497 22.3887 14.4899 22.5117 14.785L23.2331 16.5251C23.3561 16.8202 23.6983 16.9617 23.9914 16.8387C24.6616 16.562 25.2601 16.8223 25.5962 17.1584C25.9323 17.4925 26.1947 18.091 25.9159 18.7632C25.793 19.0583 25.9344 19.3986 26.2295 19.5215L27.9696 20.243C28.2647 20.3659 28.6049 20.2245 28.7279 19.9294C29.0067 19.2592 29.6133 19.0194 30.0909 19.0194ZM30.0909 16.2484C28.1151 16.2484 26.5083 14.6416 26.5083 12.6658C26.5083 10.69 28.1151 9.08321 30.0909 9.08321C32.0666 9.08321 33.6735 10.69 33.6735 12.6658C33.6735 14.6416 32.0666 16.2484 30.0909 16.2484ZM30.0909 10.1367C28.6951 10.1367 27.5617 11.2721 27.5617 12.6658C27.5617 14.0595 28.6972 15.1949 30.0909 15.1949C31.4846 15.1949 32.62 14.0595 32.62 12.6658C32.62 11.2721 31.4846 10.1367 30.0909 10.1367Z" fill="#207FB4"/>
</svg>
