<svg width="48" height="40" viewBox="0 0 48 40" fill="none" xmlns="http://www.w3.org/2000/svg">
<path d="M24 0C18.2468 0 14.3783 3.38832 12.3926 10.1664C12.1868 10.8679 12.8219 11.4444 13.2326 10.9318C15.3274 8.3173 17.6816 7.45181 20.2942 8.33258C22.1739 8.96607 23.5172 10.8068 25.0047 12.8434C27.4258 16.1595 30.2288 19.9993 36.3526 19.9993C42.1059 19.9993 45.9753 16.6096 47.96 9.83156C48.1659 9.13 47.5307 8.55347 47.12 9.06609C45.0252 11.6806 42.671 12.5475 40.0584 11.6667C38.1798 11.0332 36.8364 9.19251 35.349 7.15591C32.9268 3.83843 30.1228 0 24 0ZM11.6474 19.9993C5.89414 19.9993 2.02468 23.389 0.0400228 30.1671C-0.165854 30.8686 0.469277 31.4451 0.880001 30.9325C2.9748 28.318 5.32901 27.4511 7.94159 28.3333C9.82021 28.9682 11.1636 30.8075 12.651 32.8427C15.0732 36.1602 17.8772 40 24 40C29.7532 40 33.6227 36.6103 35.6074 29.8322C35.8132 29.1307 35.1781 28.5542 34.7674 29.0668C32.6726 31.6813 30.3184 32.5482 27.7058 31.666C25.8261 31.0325 24.4828 29.1918 22.9953 27.1566C20.5742 23.8391 17.7712 19.9993 11.6474 19.9993Z" fill="#207FB4"/>
</svg>
