<svg width="32" height="32" viewBox="0 0 32 32" fill="none" xmlns="http://www.w3.org/2000/svg">
<g clip-path="url(#clip0_825_597)">
<path d="M29.0909 0H2.90909C1.30182 0 0 1.30182 0 2.90909V29.0909C0 30.6982 1.30182 32 2.90909 32H29.0909C30.6982 32 32 30.6982 32 29.0909V2.90909C32 1.30182 30.6967 0 29.0909 0ZM27.184 13.7804C26.9949 13.7978 26.8044 13.8095 26.6124 13.8095C24.4378 13.8095 22.5265 12.6924 21.4138 11.0007C21.4138 15.4356 21.4138 20.4829 21.4138 20.5673C21.4138 24.4727 18.2473 27.6378 14.3433 27.6378C10.4393 27.6364 7.27273 24.4698 7.27273 20.5658C7.27273 16.6604 10.4393 13.4953 14.3433 13.4953C14.4916 13.4953 14.6356 13.5084 14.7796 13.5171V17.0022C14.6342 16.9847 14.4931 16.9585 14.3433 16.9585C12.3505 16.9585 10.7345 18.5745 10.7345 20.5673C10.7345 22.56 12.3491 24.176 14.3433 24.176C16.3375 24.176 18.0975 22.6051 18.0975 20.6124C18.0975 20.5324 18.1324 4.36509 18.1324 4.36509H21.4618C21.7745 7.34255 24.1789 9.69309 27.184 9.90836V13.7804Z" fill="#CCCCCC"/>
</g>
<defs>
<clipPath id="clip0_825_597">
<rect width="32" height="32" fill="white"/>
</clipPath>
</defs>
</svg>
