<svg width="32" height="32" viewBox="0 0 32 32" fill="none" xmlns="http://www.w3.org/2000/svg">
<g clip-path="url(#clip0_825_86)">
<path d="M16.0001 0C7.17784 0 0.000103251 7.17774 0.000103251 16C0.000103251 18.7548 0.711755 21.4637 2.06132 23.8539L0.0258423 31.1165C-0.0409403 31.3551 0.0237555 31.6111 0.196277 31.7885C0.329147 31.9256 0.510016 32 0.695755 32C0.751408 32 0.807755 31.993 0.862712 31.9798L8.44254 30.1023C10.757 31.3447 13.3636 32 16.0001 32C24.8224 32 32.0001 24.8223 32.0001 16C32.0001 7.17774 24.8224 0 16.0001 0ZM24.0488 21.6459C23.7065 22.5934 22.0648 23.4581 21.2759 23.5743C20.5678 23.6779 19.6718 23.7224 18.6881 23.4136C18.0919 23.2257 17.3267 22.9767 16.3465 22.5586C12.2262 20.8014 9.53541 16.7047 9.3295 16.4341C9.12428 16.1635 7.65228 14.2351 7.65228 12.2393C7.65228 10.2435 8.71315 9.26191 9.09019 8.85565C9.46723 8.44939 9.91176 8.34783 10.1858 8.34783C10.4599 8.34783 10.7333 8.3513 10.9733 8.36243C11.2258 8.37496 11.5646 8.26713 11.8978 9.05878C12.2401 9.8713 13.0617 11.8671 13.1632 12.071C13.2662 12.2741 13.3344 12.5113 13.198 12.7819C13.0617 13.0525 12.9935 13.2216 12.7876 13.4588C12.5817 13.696 12.3563 13.9875 12.1712 14.1697C11.9653 14.3722 11.7518 14.5913 11.9911 14.9976C12.2304 15.4038 13.0547 16.7318 14.2763 17.8073C15.845 19.1889 17.1688 19.6174 17.5792 19.8205C17.9897 20.0237 18.2297 19.9896 18.469 19.719C18.7083 19.4477 19.4958 18.5343 19.7691 18.1287C20.0425 17.7231 20.3166 17.7899 20.6937 17.9256C21.0707 18.0605 23.0902 19.0414 23.5006 19.2445C23.9111 19.4477 24.1851 19.5492 24.2881 19.7183C24.3911 19.8866 24.3911 20.6991 24.0488 21.6459Z" fill="black"/>
</g>
<defs>
<clipPath id="clip0_825_86">
<rect width="32" height="32" fill="white"/>
</clipPath>
</defs>
</svg>
