<svg width="40" height="40" viewBox="0 0 40 40" fill="none" xmlns="http://www.w3.org/2000/svg">
<path d="M5 5C2.23833 5 0 7.51814 0 10.625V23.7501C0 26.857 2.23833 29.3751 5 29.3751H17.1419L27.1582 34.9159C27.8065 35.2422 28.4942 34.5659 28.2975 33.799L26.6667 29.3751H35C37.7617 29.3751 40 26.8533 40 23.7464V10.625C40 7.51814 37.7617 5 35 5H5ZM17.0801 8.75002C17.242 8.74923 17.4043 8.78535 17.5618 8.85988C18.2002 9.15801 18.5023 9.97836 18.2357 10.6946C17.1607 13.599 16.6178 18.1494 16.6178 24.2189C16.6178 24.817 16.2781 25.3513 15.7747 25.5482C15.6431 25.5988 15.5045 25.6251 15.3678 25.6251C14.9912 25.6251 14.6264 25.4318 14.3848 25.0868C12.8231 22.8518 11.6021 19.2292 10.8171 16.4149L7.82552 24.7462C7.62385 25.305 7.1118 25.6552 6.5918 25.6214C6.0568 25.5839 5.60065 25.1719 5.45898 24.5887C5.38232 24.2737 3.57992 16.7905 3.33659 10.2149C3.30659 9.43862 3.84125 8.78368 4.53125 8.75368C5.21458 8.67681 5.80174 9.32143 5.83008 10.0977C5.95008 13.3377 6.49234 16.8939 6.98568 19.5789L9.88281 11.5039C10.0878 10.9339 10.5776 10.5742 11.1426 10.6324C11.6876 10.6811 12.1424 11.1237 12.2624 11.7237C12.274 11.778 13.0275 15.4893 14.2708 18.9637C14.5158 15.0356 15.0677 11.9542 15.931 9.61794C16.1297 9.07794 16.5942 8.75239 17.0801 8.75002ZM22.9915 10.625C23.2056 10.6233 23.4207 10.6463 23.6328 10.6946C25.8695 11.2196 27.1305 14.4767 26.5072 18.1068C26.1372 20.2611 25.1615 22.1147 23.8965 23.0616C23.2882 23.5172 22.6373 23.7501 21.9889 23.7501C21.7806 23.7501 21.5739 23.7274 21.3672 23.6805C19.1322 23.1555 17.8695 19.8984 18.4928 16.2684C18.8628 14.114 19.8385 12.2604 21.1035 11.3135C21.706 10.8621 22.3494 10.6303 22.9915 10.625ZM32.9915 10.625C33.2056 10.6233 33.4207 10.6463 33.6328 10.6946C35.8695 11.2196 37.1305 14.4767 36.5072 18.1068C36.1372 20.2611 35.1615 22.1147 33.8965 23.0616C33.2882 23.5172 32.6373 23.7501 31.9889 23.7501C31.7806 23.7501 31.5739 23.7274 31.3672 23.6805C29.1322 23.1555 27.8695 19.8984 28.4928 16.2684C28.8628 14.114 29.8385 12.2604 31.1035 11.3135C31.706 10.8621 32.3494 10.6303 32.9915 10.625ZM23.0143 13.4375C22.8577 13.4375 22.6836 13.5092 22.4902 13.6536C21.7919 14.1749 21.1873 15.4137 20.9473 16.803C20.5539 19.0943 21.2382 20.7729 21.8815 20.9229C22.0582 20.9679 22.2714 20.8996 22.513 20.7215C23.2114 20.2003 23.816 18.9615 24.056 17.5721C24.4477 15.2808 23.7651 13.6022 23.1217 13.4522C23.0884 13.4428 23.051 13.4375 23.0143 13.4375ZM33.0143 13.4375C32.8577 13.4375 32.6836 13.5092 32.4902 13.6536C31.7919 14.1749 31.1873 15.4137 30.9473 16.803C30.5539 19.0943 31.2382 20.7729 31.8815 20.9229C32.0582 20.9679 32.273 20.8996 32.513 20.7215C33.2114 20.2003 33.816 18.9615 34.056 17.5721C34.4477 15.2808 33.7651 13.6022 33.1217 13.4522C33.0884 13.4428 33.051 13.4375 33.0143 13.4375Z" fill="#4CA8CF"/>
</svg>
