<svg width="40" height="40" viewBox="0 0 40 40" fill="none" xmlns="http://www.w3.org/2000/svg">
<g clip-path="url(#clip0_825_822)">
<path d="M20 0C8.9713 0 0 8.97217 0 20C0 31.0278 8.9713 40 20 40C31.0287 40 40 31.0278 40 20C40 8.97217 31.0287 0 20 0ZM20 4.34783C23.7043 4.34783 27.1009 5.63913 29.78 7.78696C28.9487 8.34 28.4348 9.3 28.4348 10.3478C28.4348 11.7391 29.2174 12.9565 30.087 14.3478C30.7826 15.4783 31.4783 16.9565 31.4783 19.0435C31.4783 20.5217 31.0435 22.3478 30.1739 24.6087L28.4348 30.3478L22.2609 11.913C23.3043 11.8261 24.2609 11.7391 24.2609 11.7391C25.1304 11.6522 25.0435 10.3478 24.1739 10.3478C24.1739 10.3478 24.1739 10.3478 24.087 10.3478C24.087 10.3478 21.3043 10.6087 19.4783 10.6087C17.8261 10.6087 14.9565 10.3478 14.9565 10.3478C14.9565 10.3478 14.9565 10.3478 14.8696 10.3478C14 10.3478 13.913 11.7391 14.7826 11.7391C14.7826 11.7391 15.6522 11.8261 16.6087 11.913L19.3043 19.2174L15.5652 30.4348L9.30435 11.8261C10.3478 11.7391 11.3043 11.6522 11.3043 11.6522C12.1739 11.5652 12.087 10.2609 11.2174 10.2609C11.2174 10.2609 11.2174 10.2609 11.1304 10.2609C11.1304 10.2609 9.25913 10.4365 7.57826 10.4991C10.4374 6.76522 14.9287 4.34783 20 4.34783ZM4.34783 20C4.34783 18.4348 4.58348 16.9261 5.01043 15.5009L11.4661 33.1148C7.18348 30.3226 4.34783 25.4983 4.34783 20ZM15.3722 34.9565L20 21.3913L24.9435 34.8443C23.3887 35.3609 21.7296 35.6522 20 35.6522C18.3887 35.6522 16.8348 35.4078 15.3722 34.9565ZM28.96 32.8261L33.5652 19.4783C34.2487 17.7391 34.6174 16.2243 34.7739 14.8661C35.333 16.4757 35.6522 18.1983 35.6522 20C35.6522 25.3139 33.0035 29.9974 28.96 32.8261Z" fill="#207FB4"/>
</g>
<defs>
<clipPath id="clip0_825_822">
<rect width="40" height="40" fill="white"/>
</clipPath>
</defs>
</svg>
