<svg width="12" height="20" viewBox="0 0 12 20" fill="none" xmlns="http://www.w3.org/2000/svg">
<path d="M11 18C11.5523 18 12 18.4477 12 19C12 19.5523 11.5523 20 11 20C10.4477 20 10 19.5523 10 19C10 18.4477 10.4477 18 11 18Z" fill="#64B9DE"/>
<path d="M1 18C1.55229 18 2 18.4477 2 19C2 19.5523 1.55229 20 1 20C0.447716 20 5.48678e-07 19.5523 5.24537e-07 19C5.00396e-07 18.4477 0.447716 18 1 18Z" fill="#64B9DE"/>
<path d="M6 18C6.55229 18 7 18.4477 7 19C7 19.5523 6.55229 20 6 20C5.44772 20 5 19.5523 5 19C5 18.4477 5.44772 18 6 18Z" fill="#64B9DE"/>
<path d="M11 12C11.5523 12 12 12.4477 12 13C12 13.5523 11.5523 14 11 14C10.4477 14 10 13.5523 10 13C10 12.4477 10.4477 12 11 12Z" fill="#64B9DE"/>
<path d="M1 12C1.55228 12 2 12.4477 2 13C2 13.5523 1.55229 14 1 14C0.447716 14 2.8641e-07 13.5523 2.62269e-07 13C2.38128e-07 12.4477 0.447716 12 1 12Z" fill="#64B9DE"/>
<path d="M6 12C6.55228 12 7 12.4477 7 13C7 13.5523 6.55229 14 6 14C5.44772 14 5 13.5523 5 13C5 12.4477 5.44772 12 6 12Z" fill="#64B9DE"/>
<path d="M11 6C11.5523 6 12 6.44772 12 7C12 7.55228 11.5523 8 11 8C10.4477 8 10 7.55228 10 7C10 6.44772 10.4477 6 11 6Z" fill="#64B9DE"/>
<path d="M11 0C11.5523 -2.41411e-08 12 0.447715 12 1C12 1.55228 11.5523 2 11 2C10.4477 2 10 1.55228 10 1C10 0.447715 10.4477 2.41411e-08 11 0Z" fill="#64B9DE"/>
<path d="M1 6C1.55228 6 2 6.44772 2 7C2 7.55229 1.55228 8 1 8C0.447715 8 2.41414e-08 7.55229 0 7C-2.41409e-08 6.44772 0.447715 6 1 6Z" fill="#64B9DE"/>
<path d="M6 6C6.55228 6 7 6.44772 7 7C7 7.55228 6.55228 8 6 8C5.44772 8 5 7.55229 5 7C5 6.44772 5.44772 6 6 6Z" fill="#64B9DE"/>
<path d="M6 2.18557e-07C6.55228 1.94416e-07 7 0.447715 7 1C7 1.55228 6.55228 2 6 2C5.44772 2 5 1.55228 5 1C5 0.447716 5.44771 2.42698e-07 6 2.18557e-07Z" fill="#64B9DE"/>
</svg>
