<svg width="49" height="49" viewBox="0 0 49 49" fill="none" xmlns="http://www.w3.org/2000/svg">
<path d="M3.46559 16.7761C3.46559 17.6164 2.79355 18.2977 1.96454 18.2977C1.13554 18.2977 0.463501 17.6164 0.463501 16.7761C0.463501 15.9357 1.13554 15.2544 1.96454 15.2544C2.79355 15.2544 3.46559 15.9357 3.46559 16.7761Z" fill="#64B9DE"/>
<path d="M3.46559 1.55972C3.46559 2.4001 2.79355 3.08136 1.96454 3.08136C1.13554 3.08136 0.463501 2.4001 0.463501 1.55972C0.463501 0.719345 1.13554 0.0380859 1.96454 0.0380859C2.79355 0.0380859 3.46559 0.719345 3.46559 1.55972Z" fill="#64B9DE"/>
<path d="M21.4781 31.9924C21.4781 32.8328 20.8061 33.514 19.9771 33.514C19.148 33.514 18.476 32.8328 18.476 31.9924C18.476 31.152 19.148 30.4708 19.9771 30.4708C20.8061 30.4708 21.4781 31.152 21.4781 31.9924Z" fill="#64B9DE"/>
<path d="M21.4781 39.6006C21.4781 40.441 20.8061 41.1222 19.9771 41.1222C19.148 41.1222 18.476 40.441 18.476 39.6006C18.476 38.7602 19.148 38.079 19.9771 38.079C20.8061 38.079 21.4781 38.7602 21.4781 39.6006Z" fill="#64B9DE"/>
<path d="M3.46559 9.16789C3.46559 10.0083 2.79355 10.6895 1.96454 10.6895C1.13554 10.6895 0.463501 10.0083 0.463501 9.16789C0.463501 8.32752 1.13554 7.64626 1.96454 7.64626C2.79355 7.64626 3.46559 8.32752 3.46559 9.16789Z" fill="#64B9DE"/>
<path d="M12.4718 16.7761C12.4718 17.6164 11.7998 18.2977 10.9708 18.2977C10.1418 18.2977 9.46976 17.6164 9.46976 16.7761C9.46976 15.9357 10.1418 15.2544 10.9708 15.2544C11.7998 15.2544 12.4718 15.9357 12.4718 16.7761Z" fill="#64B9DE"/>
<path d="M12.4718 1.55972C12.4718 2.4001 11.7998 3.08136 10.9708 3.08136C10.1418 3.08136 9.46976 2.4001 9.46976 1.55972C9.46976 0.719345 10.1418 0.0380859 10.9708 0.0380859C11.7998 0.0380859 12.4718 0.719345 12.4718 1.55972Z" fill="#64B9DE"/>
<path d="M30.4843 47.2088C30.4843 48.0491 29.8123 48.7304 28.9833 48.7304C28.1543 48.7304 27.4823 48.0491 27.4823 47.2088C27.4823 46.3684 28.1543 45.6871 28.9833 45.6871C29.8123 45.6871 30.4843 46.3684 30.4843 47.2088Z" fill="#64B9DE"/>
<path d="M30.4843 31.9924C30.4843 32.8328 29.8123 33.514 28.9833 33.514C28.1543 33.514 27.4823 32.8328 27.4823 31.9924C27.4823 31.152 28.1543 30.4708 28.9833 30.4708C29.8123 30.4708 30.4843 31.152 30.4843 31.9924Z" fill="#64B9DE"/>
<path d="M30.4843 39.6006C30.4843 40.441 29.8123 41.1222 28.9833 41.1222C28.1543 41.1222 27.4823 40.441 27.4823 39.6006C27.4823 38.7602 28.1543 38.079 28.9833 38.079C29.8123 38.079 30.4843 38.7602 30.4843 39.6006Z" fill="#64B9DE"/>
<path d="M12.4718 9.16789C12.4718 10.0083 11.7998 10.6895 10.9708 10.6895C10.1418 10.6895 9.46976 10.0083 9.46976 9.16789C9.46976 8.32752 10.1418 7.64626 10.9708 7.64626C11.7998 7.64626 12.4718 8.32752 12.4718 9.16789Z" fill="#64B9DE"/>
<path d="M21.4781 16.7761C21.4781 17.6164 20.8061 18.2977 19.9771 18.2977C19.148 18.2977 18.476 17.6164 18.476 16.7761C18.476 15.9357 19.148 15.2544 19.9771 15.2544C20.8061 15.2544 21.4781 15.9357 21.4781 16.7761Z" fill="#64B9DE"/>
<path d="M30.4843 16.7761C30.4843 17.6164 29.8123 18.2977 28.9833 18.2977C28.1543 18.2977 27.4823 17.6164 27.4823 16.7761C27.4823 15.9357 28.1543 15.2544 28.9833 15.2544C29.8123 15.2544 30.4843 15.9357 30.4843 16.7761Z" fill="#64B9DE"/>
<path d="M21.4781 1.55972C21.4781 2.4001 20.8061 3.08136 19.9771 3.08136C19.148 3.08136 18.476 2.4001 18.476 1.55972C18.476 0.719345 19.148 0.0380859 19.9771 0.0380859C20.8061 0.0380859 21.4781 0.719345 21.4781 1.55972Z" fill="#64B9DE"/>
<path d="M39.4906 47.2088C39.4906 48.0491 38.8186 48.7304 37.9896 48.7304C37.1606 48.7304 36.4885 48.0491 36.4885 47.2088C36.4885 46.3684 37.1606 45.6871 37.9896 45.6871C38.8186 45.6871 39.4906 46.3684 39.4906 47.2088Z" fill="#64B9DE"/>
<path d="M48.4969 47.2088C48.4969 48.0491 47.8248 48.7304 46.9958 48.7304C46.1668 48.7304 45.4948 48.0491 45.4948 47.2088C45.4948 46.3684 46.1668 45.6871 46.9958 45.6871C47.8248 45.6871 48.4969 46.3684 48.4969 47.2088Z" fill="#64B9DE"/>
<path d="M39.4906 31.9924C39.4906 32.8328 38.8186 33.514 37.9896 33.514C37.1606 33.514 36.4885 32.8328 36.4885 31.9924C36.4885 31.152 37.1606 30.4708 37.9896 30.4708C38.8186 30.4708 39.4906 31.152 39.4906 31.9924Z" fill="#64B9DE"/>
<path d="M39.4906 39.6006C39.4906 40.441 38.8186 41.1222 37.9896 41.1222C37.1606 41.1222 36.4885 40.441 36.4885 39.6006C36.4885 38.7602 37.1606 38.079 37.9896 38.079C38.8186 38.079 39.4906 38.7602 39.4906 39.6006Z" fill="#64B9DE"/>
<path d="M21.4781 9.16789C21.4781 10.0083 20.8061 10.6895 19.9771 10.6895C19.148 10.6895 18.476 10.0083 18.476 9.16789C18.476 8.32752 19.148 7.64626 19.9771 7.64626C20.8061 7.64626 21.4781 8.32752 21.4781 9.16789Z" fill="#64B9DE"/>
<path d="M48.4969 31.9924C48.4969 32.8328 47.8248 33.514 46.9958 33.514C46.1668 33.514 45.4948 32.8328 45.4948 31.9924C45.4948 31.152 46.1668 30.4708 46.9958 30.4708C47.8248 30.4708 48.4969 31.152 48.4969 31.9924Z" fill="#64B9DE"/>
<path d="M48.4969 39.6006C48.4969 40.441 47.8248 41.1222 46.9958 41.1222C46.1668 41.1222 45.4948 40.441 45.4948 39.6006C45.4948 38.7602 46.1668 38.079 46.9958 38.079C47.8248 38.079 48.4969 38.7602 48.4969 39.6006Z" fill="#64B9DE"/>
<path d="M30.4843 9.16789C30.4843 10.0083 29.8123 10.6895 28.9833 10.6895C28.1543 10.6895 27.4823 10.0083 27.4823 9.16789C27.4823 8.32752 28.1543 7.64626 28.9833 7.64626C29.8123 7.64626 30.4843 8.32752 30.4843 9.16789Z" fill="#64B9DE"/>
</svg>
