<svg width="49" height="49" viewBox="0 0 49 49" fill="none" xmlns="http://www.w3.org/2000/svg">
<path d="M3.46546 16.7761C3.46546 17.6164 2.79342 18.2977 1.96442 18.2977C1.13542 18.2977 0.463379 17.6164 0.463379 16.7761C0.463379 15.9357 1.13542 15.2544 1.96442 15.2544C2.79342 15.2544 3.46546 15.9357 3.46546 16.7761Z" fill="#075187"/>
<path d="M3.46546 1.55972C3.46546 2.4001 2.79342 3.08136 1.96442 3.08136C1.13542 3.08136 0.463379 2.4001 0.463379 1.55972C0.463379 0.719345 1.13542 0.0380859 1.96442 0.0380859C2.79342 0.0380859 3.46546 0.719345 3.46546 1.55972Z" fill="#075187"/>
<path d="M21.478 31.9924C21.478 32.8328 20.8059 33.514 19.9769 33.514C19.1479 33.514 18.4759 32.8328 18.4759 31.9924C18.4759 31.152 19.1479 30.4708 19.9769 30.4708C20.8059 30.4708 21.478 31.152 21.478 31.9924Z" fill="#075187"/>
<path d="M21.478 39.6006C21.478 40.441 20.8059 41.1222 19.9769 41.1222C19.1479 41.1222 18.4759 40.441 18.4759 39.6006C18.4759 38.7602 19.1479 38.079 19.9769 38.079C20.8059 38.079 21.478 38.7602 21.478 39.6006Z" fill="#075187"/>
<path d="M3.46546 9.16789C3.46546 10.0083 2.79342 10.6895 1.96442 10.6895C1.13542 10.6895 0.463379 10.0083 0.463379 9.16789C0.463379 8.32752 1.13542 7.64626 1.96442 7.64626C2.79342 7.64626 3.46546 8.32752 3.46546 9.16789Z" fill="#075187"/>
<path d="M12.4717 16.7761C12.4717 17.6164 11.7997 18.2977 10.9707 18.2977C10.1417 18.2977 9.46963 17.6164 9.46963 16.7761C9.46963 15.9357 10.1417 15.2544 10.9707 15.2544C11.7997 15.2544 12.4717 15.9357 12.4717 16.7761Z" fill="#075187"/>
<path d="M12.4717 1.55972C12.4717 2.4001 11.7997 3.08136 10.9707 3.08136C10.1417 3.08136 9.46963 2.4001 9.46963 1.55972C9.46963 0.719345 10.1417 0.0380859 10.9707 0.0380859C11.7997 0.0380859 12.4717 0.719345 12.4717 1.55972Z" fill="#075187"/>
<path d="M30.4842 47.2088C30.4842 48.0491 29.8122 48.7304 28.9832 48.7304C28.1542 48.7304 27.4821 48.0491 27.4821 47.2088C27.4821 46.3684 28.1542 45.6871 28.9832 45.6871C29.8122 45.6871 30.4842 46.3684 30.4842 47.2088Z" fill="#075187"/>
<path d="M30.4842 31.9924C30.4842 32.8328 29.8122 33.514 28.9832 33.514C28.1542 33.514 27.4821 32.8328 27.4821 31.9924C27.4821 31.152 28.1542 30.4708 28.9832 30.4708C29.8122 30.4708 30.4842 31.152 30.4842 31.9924Z" fill="#075187"/>
<path d="M30.4842 39.6006C30.4842 40.441 29.8122 41.1222 28.9832 41.1222C28.1542 41.1222 27.4821 40.441 27.4821 39.6006C27.4821 38.7602 28.1542 38.079 28.9832 38.079C29.8122 38.079 30.4842 38.7602 30.4842 39.6006Z" fill="#075187"/>
<path d="M12.4717 9.16789C12.4717 10.0083 11.7997 10.6895 10.9707 10.6895C10.1417 10.6895 9.46963 10.0083 9.46963 9.16789C9.46963 8.32752 10.1417 7.64626 10.9707 7.64626C11.7997 7.64626 12.4717 8.32752 12.4717 9.16789Z" fill="#075187"/>
<path d="M21.478 16.7761C21.478 17.6164 20.8059 18.2977 19.9769 18.2977C19.1479 18.2977 18.4759 17.6164 18.4759 16.7761C18.4759 15.9357 19.1479 15.2544 19.9769 15.2544C20.8059 15.2544 21.478 15.9357 21.478 16.7761Z" fill="#075187"/>
<path d="M30.4842 16.7761C30.4842 17.6164 29.8122 18.2977 28.9832 18.2977C28.1542 18.2977 27.4821 17.6164 27.4821 16.7761C27.4821 15.9357 28.1542 15.2544 28.9832 15.2544C29.8122 15.2544 30.4842 15.9357 30.4842 16.7761Z" fill="#075187"/>
<path d="M21.478 1.55972C21.478 2.4001 20.8059 3.08136 19.9769 3.08136C19.1479 3.08136 18.4759 2.4001 18.4759 1.55972C18.4759 0.719345 19.1479 0.0380859 19.9769 0.0380859C20.8059 0.0380859 21.478 0.719345 21.478 1.55972Z" fill="#075187"/>
<path d="M39.4905 47.2088C39.4905 48.0491 38.8184 48.7304 37.9894 48.7304C37.1604 48.7304 36.4884 48.0491 36.4884 47.2088C36.4884 46.3684 37.1604 45.6871 37.9894 45.6871C38.8184 45.6871 39.4905 46.3684 39.4905 47.2088Z" fill="#075187"/>
<path d="M48.4967 47.2088C48.4967 48.0491 47.8247 48.7304 46.9957 48.7304C46.1667 48.7304 45.4946 48.0491 45.4946 47.2088C45.4946 46.3684 46.1667 45.6871 46.9957 45.6871C47.8247 45.6871 48.4967 46.3684 48.4967 47.2088Z" fill="#075187"/>
<path d="M39.4905 31.9924C39.4905 32.8328 38.8184 33.514 37.9894 33.514C37.1604 33.514 36.4884 32.8328 36.4884 31.9924C36.4884 31.152 37.1604 30.4708 37.9894 30.4708C38.8184 30.4708 39.4905 31.152 39.4905 31.9924Z" fill="#075187"/>
<path d="M39.4905 39.6006C39.4905 40.441 38.8184 41.1222 37.9894 41.1222C37.1604 41.1222 36.4884 40.441 36.4884 39.6006C36.4884 38.7602 37.1604 38.079 37.9894 38.079C38.8184 38.079 39.4905 38.7602 39.4905 39.6006Z" fill="#075187"/>
<path d="M21.478 9.16789C21.478 10.0083 20.8059 10.6895 19.9769 10.6895C19.1479 10.6895 18.4759 10.0083 18.4759 9.16789C18.4759 8.32752 19.1479 7.64626 19.9769 7.64626C20.8059 7.64626 21.478 8.32752 21.478 9.16789Z" fill="#075187"/>
<path d="M48.4967 31.9924C48.4967 32.8328 47.8247 33.514 46.9957 33.514C46.1667 33.514 45.4946 32.8328 45.4946 31.9924C45.4946 31.152 46.1667 30.4708 46.9957 30.4708C47.8247 30.4708 48.4967 31.152 48.4967 31.9924Z" fill="#075187"/>
<path d="M48.4967 39.6006C48.4967 40.441 47.8247 41.1222 46.9957 41.1222C46.1667 41.1222 45.4946 40.441 45.4946 39.6006C45.4946 38.7602 46.1667 38.079 46.9957 38.079C47.8247 38.079 48.4967 38.7602 48.4967 39.6006Z" fill="#075187"/>
<path d="M30.4842 9.16789C30.4842 10.0083 29.8122 10.6895 28.9832 10.6895C28.1542 10.6895 27.4821 10.0083 27.4821 9.16789C27.4821 8.32752 28.1542 7.64626 28.9832 7.64626C29.8122 7.64626 30.4842 8.32752 30.4842 9.16789Z" fill="#075187"/>
</svg>
