<svg width="60" height="60" viewBox="0 0 60 60" fill="none" xmlns="http://www.w3.org/2000/svg">
<path d="M0 5C0 2.23858 2.23858 0 5 0H55C57.7614 0 60 2.23858 60 5V55C60 57.7614 57.7614 60 55 60H5C2.23858 60 0 57.7614 0 55V5Z" fill="url(#paint0_linear_1515_45)"/>
<path d="M28.3607 19.5491C28.9039 19.3237 28.9449 18.8236 28.9449 18.674C28.9449 18.5264 28.9039 18.0243 28.3607 17.7988C28.0882 17.6861 27.875 17.4729 27.7623 17.2003C27.6496 16.9278 27.6496 16.6265 27.7623 16.3539L28.4837 14.6138C28.7174 14.0502 29.365 13.7817 29.9307 14.0154C30.4738 14.2408 30.8571 13.9149 30.9616 13.8104C31.0661 13.7059 31.392 13.3206 31.1666 12.7795C31.0538 12.5069 31.0538 12.2056 31.1666 11.933C31.2793 11.6604 31.4924 11.4473 31.765 11.3345L33.5051 10.6131C34.0687 10.3795 34.7164 10.648 34.9521 11.2116C35.1775 11.7527 35.6776 11.7957 35.8272 11.7957C35.9748 11.7957 36.4769 11.7547 36.7024 11.2116C36.8151 10.939 37.0283 10.7258 37.3009 10.6131C37.5734 10.5004 37.8747 10.5004 38.1473 10.6131L39.8874 11.3345C40.16 11.4473 40.3731 11.6604 40.4858 11.933C40.5986 12.2056 40.5986 12.5069 40.4858 12.7795C40.2604 13.3226 40.5863 13.7059 40.6908 13.8104C40.7953 13.9149 41.1806 14.2408 41.7217 14.0154C41.9943 13.9026 42.2956 13.9026 42.5682 14.0154C42.8408 14.1281 43.0539 14.3412 43.1666 14.6138L43.8881 16.3539C44.0008 16.6265 44.0008 16.9278 43.8881 17.2003C43.7754 17.4729 43.5622 17.6861 43.2896 17.7988C42.7485 18.0243 42.7055 18.5243 42.7055 18.674C42.7055 18.8236 42.7485 19.3237 43.2896 19.5491C43.8532 19.7828 44.1217 20.4325 43.8881 20.9961L43.1666 22.7362C43.0539 23.0087 42.8408 23.2219 42.5682 23.3346C42.2956 23.4474 41.9943 23.4474 41.7217 23.3346C41.1806 23.1112 40.7953 23.4351 40.6908 23.5396C40.5863 23.6441 40.2604 24.0294 40.4858 24.5705C40.7195 25.1341 40.451 25.7838 39.8874 26.0175L38.1473 26.7389C38.01 26.7963 37.8665 26.823 37.7231 26.823C37.5796 26.823 37.4361 26.7943 37.2988 26.7389C37.0262 26.6262 36.8131 26.413 36.7003 26.1405C36.4749 25.5973 35.9748 25.5563 35.8252 25.5563C35.6776 25.5563 35.1755 25.5973 34.95 26.1405C34.7164 26.7041 34.0667 26.9726 33.503 26.7389L31.763 26.0175C31.1994 25.7838 30.9309 25.1341 31.1645 24.5705C31.39 24.0274 31.0641 23.6441 30.9596 23.5396C30.855 23.4351 30.4718 23.1092 29.9286 23.3346C29.365 23.5662 28.7174 23.2977 28.4837 22.7341L27.7623 20.994C27.5286 20.4304 27.7971 19.7828 28.3607 19.5491ZM35.8272 21.7298C37.512 21.7298 38.8831 20.3587 38.8831 18.674C38.8831 16.9892 37.512 15.6181 35.8272 15.6181C34.1425 15.6181 32.7714 16.9892 32.7714 18.674C32.7714 20.3587 34.1425 21.7298 35.8272 21.7298Z" fill="#B3B3B3"/>
<path d="M28.1325 38.7879H24.5144C24.2236 38.7879 23.9875 38.5524 23.9875 38.261V31.1082C23.9875 30.8168 24.2236 30.5813 24.5144 30.5813H28.1325C28.4233 30.5813 28.6593 30.8168 28.6593 31.1082C28.6593 31.3995 28.4233 31.635 28.1325 31.635H25.0413V37.7342H28.1325C28.4233 37.7342 28.6593 37.9697 28.6593 38.261C28.6593 38.5524 28.4238 38.7879 28.1325 38.7879Z" fill="#B3B3B3"/>
<path d="M27.0355 35.2115H24.5144C24.2236 35.2115 23.9875 34.976 23.9875 34.6846C23.9875 34.3932 24.2236 34.1577 24.5144 34.1577H27.0355C27.3264 34.1577 27.5624 34.3932 27.5624 34.6846C27.5624 34.976 27.3269 35.2115 27.0355 35.2115Z" fill="#B3B3B3"/>
<path d="M19.539 35.2115H17.0764C16.7856 35.2115 16.5496 34.976 16.5496 34.6846V31.1082C16.5496 30.8168 16.7856 30.5813 17.0764 30.5813H19.539C20.5838 30.5813 21.4337 31.4311 21.4337 32.4759V33.3174C21.4337 34.3611 20.5838 35.2115 19.539 35.2115ZM17.6033 34.1577H19.539C20.0027 34.1577 20.3799 33.7805 20.3799 33.3168V32.4754C20.3799 32.0118 20.0027 31.6345 19.539 31.6345H17.6033V34.1577Z" fill="#B3B3B3"/>
<path d="M20.9068 38.7879C20.616 38.7879 20.3799 38.5524 20.3799 38.261V36.0524C20.3799 35.5887 20.0027 35.2115 19.539 35.2115H17.6033V38.261C17.6033 38.5524 17.3673 38.7879 17.0764 38.7879C16.7856 38.7879 16.5496 38.5524 16.5496 38.261V34.6846C16.5496 34.3932 16.7856 34.1577 17.0764 34.1577H19.539C20.5838 34.1577 21.4337 35.0076 21.4337 36.0524V38.261C21.4337 38.5524 21.1977 38.7879 20.9068 38.7879Z" fill="#B3B3B3"/>
<path d="M42.3423 31.635H37.8301C37.5387 31.635 37.3032 31.3995 37.3032 31.1082C37.3032 30.8168 37.5387 30.5813 37.8301 30.5813H42.3423C42.6336 30.5813 42.8691 30.8168 42.8691 31.1082C42.8691 31.3995 42.6331 31.635 42.3423 31.635Z" fill="#B3B3B3"/>
<path d="M40.0857 38.7879C39.7944 38.7879 39.5588 38.5524 39.5588 38.261V31.1082C39.5588 30.8168 39.7944 30.5813 40.0857 30.5813C40.3771 30.5813 40.6126 30.8168 40.6126 31.1082V38.261C40.6126 38.5524 40.3771 38.7879 40.0857 38.7879Z" fill="#B3B3B3"/>
<path d="M33.2472 38.7879H32.5839C31.4964 38.7879 30.6118 37.9281 30.6118 36.8712C30.6118 36.5798 30.8473 36.3443 31.1387 36.3443C31.4301 36.3443 31.6656 36.5798 31.6656 36.8712C31.6656 37.3469 32.0776 37.7342 32.5839 37.7342H33.2472C33.7957 37.7342 34.242 37.3143 34.242 36.7979V36.1483C34.242 35.632 33.7957 35.212 33.2472 35.212H32.6608C31.5307 35.212 30.6118 34.3195 30.6118 33.222V32.5724C30.6118 31.4749 31.5307 30.5824 32.6608 30.5824H33.3242C34.4111 30.5824 35.2957 31.4423 35.2957 32.4986C35.2957 32.79 35.0602 33.0255 34.7689 33.0255C34.4775 33.0255 34.242 32.79 34.242 32.4986C34.242 32.0234 33.8305 31.6361 33.3242 31.6361H32.6608C32.1124 31.6361 31.6656 32.0561 31.6656 32.5724V33.222C31.6656 33.7384 32.1124 34.1583 32.6608 34.1583H33.2472C34.3769 34.1583 35.2957 35.0508 35.2957 36.1483V36.7979C35.2957 37.8954 34.3763 38.7879 33.2472 38.7879Z" fill="#B3B3B3"/>
<path d="M25.8838 49.9646C25.593 49.9646 25.3569 49.7291 25.3569 49.4377V43.827C25.3569 43.2669 24.9012 42.8112 24.3416 42.8112H22.9865C22.4265 42.8112 21.9712 43.2669 21.9712 43.827V49.4372C21.9712 49.7285 21.7352 49.9641 21.4444 49.9641C21.1535 49.9641 20.9175 49.7285 20.9175 49.4372V43.827C20.9175 42.6858 21.8458 41.7574 22.9865 41.7574H24.3416C25.4829 41.7574 26.4107 42.6858 26.4107 43.827V49.4372C26.4107 49.7285 26.1746 49.9646 25.8838 49.9646Z" fill="#B3B3B3"/>
<path d="M25.8838 46.3881H21.4439C21.153 46.3881 20.917 46.1526 20.917 45.8612C20.917 45.5699 21.153 45.3344 21.4439 45.3344H25.8838C26.1747 45.3344 26.4107 45.5699 26.4107 45.8612C26.4107 46.1526 26.1747 46.3881 25.8838 46.3881Z" fill="#B3B3B3"/>
<path d="M37.0808 49.9645C36.7895 49.9645 36.554 49.729 36.554 49.4377V42.2848C36.554 41.9934 36.7895 41.7579 37.0808 41.7579C37.3722 41.7579 37.6077 41.9934 37.6077 42.2848V49.4377C37.6077 49.7285 37.3722 49.9645 37.0808 49.9645Z" fill="#B3B3B3"/>
<path d="M32.289 46.8238H29.6704C29.3796 46.8238 29.1436 46.5883 29.1436 46.297V42.2848C29.1436 41.9934 29.3796 41.7579 29.6704 41.7579H32.289C33.348 41.7579 34.2095 42.6199 34.2095 43.6789V44.9034C34.2089 45.9619 33.3475 46.8238 32.289 46.8238ZM30.1968 45.7701H32.2885C32.7663 45.7701 33.1552 45.3813 33.1552 44.9029V43.6784C33.1552 43.2005 32.7669 42.8112 32.2885 42.8112H30.1968V45.7701Z" fill="#B3B3B3"/>
<path d="M29.6699 49.9646C29.3791 49.9646 29.1431 49.7291 29.1431 49.4377V46.297C29.1431 46.0057 29.3791 45.7701 29.6699 45.7701C29.9608 45.7701 30.1968 46.0057 30.1968 46.297V49.4377C30.1968 49.7286 29.9613 49.9646 29.6699 49.9646Z" fill="#B3B3B3"/>
<path d="M42.5657 45.9988C42.2743 45.9988 42.0388 45.7633 42.0388 45.4719C42.0388 45.1805 42.2743 44.945 42.5657 44.945C47.9688 44.945 52.365 40.5498 52.365 35.1467C52.365 31.3848 50.2665 28.0144 46.8876 26.3511C46.7233 26.2705 46.6131 26.1103 46.5958 25.9285C46.4635 24.5502 46.1284 23.2056 45.5989 21.9311C45.4872 21.6624 45.6147 21.3542 45.8834 21.2425C46.1537 21.1308 46.4609 21.2583 46.5726 21.527C47.1047 22.8089 47.4546 24.1566 47.6142 25.5386C51.2022 27.4233 53.4188 31.0777 53.4188 35.1462C53.4188 41.1304 48.5505 45.9988 42.5657 45.9988Z" fill="#B3B3B3"/>
<path d="M16.8531 45.9987C10.8689 45.9987 6 41.1304 6 35.1467C6 29.1624 10.8689 24.2936 16.8531 24.2936H18.0628C18.8737 20.2762 21.3157 16.7471 24.8163 14.5596C25.0629 14.4057 25.3879 14.4811 25.5423 14.7271C25.6962 14.9737 25.6214 15.2988 25.3748 15.4531C22.0028 17.5606 19.6866 21.0075 19.0201 24.909C18.9769 25.1619 18.7572 25.3473 18.5006 25.3473H16.8531C11.4495 25.3473 7.05375 29.743 7.05375 35.1461C7.05375 40.5492 11.4495 44.9455 16.8531 44.9455C17.1439 44.9455 17.38 45.181 17.38 45.4724C17.38 45.7637 17.1439 45.9987 16.8531 45.9987Z" fill="#B3B3B3"/>
<path d="M37.723 27.3496C37.5078 27.3496 37.2967 27.3066 37.0979 27.2246C36.6942 27.0586 36.3806 26.743 36.2146 26.3413C36.1264 26.1261 35.9543 26.081 35.8272 26.081C35.6981 26.081 35.528 26.1261 35.4398 26.3413C35.0955 27.1713 34.1384 27.5689 33.3063 27.2246L31.5641 26.5032C30.732 26.1589 30.3365 25.1997 30.6808 24.3696C30.7751 24.1442 30.6644 23.9863 30.5906 23.9126C30.4984 23.8203 30.3447 23.7322 30.1315 23.8203C29.2994 24.1626 28.3423 23.767 27.9959 22.937L27.2745 21.1969C26.9301 20.3648 27.3257 19.4077 28.1578 19.0633C28.373 18.9752 28.4181 18.803 28.4181 18.676C28.4181 18.5469 28.373 18.3767 28.1599 18.2886C27.7561 18.1226 27.4425 17.807 27.2765 17.4053C27.1084 17.0015 27.1084 16.5588 27.2765 16.155L27.9979 14.415C28.3443 13.5829 29.3014 13.1873 30.1336 13.5316C30.3488 13.6198 30.5004 13.5316 30.5906 13.4414C30.6828 13.3492 30.771 13.1975 30.6828 12.9823C30.5168 12.5786 30.5168 12.1359 30.6828 11.7321C30.8509 11.3284 31.1645 11.0148 31.5662 10.8488L33.3063 10.1273C34.1384 9.78301 35.0955 10.1806 35.4419 11.0107C35.53 11.2238 35.7022 11.2689 35.8292 11.2689C35.9584 11.2689 36.1285 11.2238 36.2166 11.0107C36.3847 10.6069 36.6983 10.2933 37.102 10.1253C37.5058 9.95722 37.9485 9.95927 38.3522 10.1253L40.0923 10.8467C40.4961 11.0148 40.8096 11.3284 40.9777 11.7301C41.1458 12.1338 41.1458 12.5786 40.9777 12.9803C40.8896 13.1934 40.9777 13.3472 41.0679 13.4373C41.1601 13.5296 41.3118 13.6177 41.5249 13.5296C41.9287 13.3636 42.3734 13.3636 42.7752 13.5296C43.1789 13.6976 43.4925 14.0112 43.6606 14.415L44.3799 16.155C44.548 16.5588 44.548 17.0015 44.3799 17.4053C44.2119 17.809 43.8983 18.1226 43.4945 18.2907C43.2814 18.3788 43.2363 18.551 43.2363 18.678C43.2363 18.8051 43.2814 18.9773 43.4966 19.0654C43.9003 19.2314 44.2139 19.547 44.3799 19.9508C44.548 20.3546 44.548 20.7973 44.3799 21.201L43.6585 22.9411C43.4925 23.3448 43.1789 23.6584 42.7752 23.8244C42.3714 23.9904 41.9266 23.9904 41.5249 23.8244C41.3097 23.7343 41.1581 23.8244 41.0679 23.9146C40.9777 24.0048 40.8875 24.1585 40.9777 24.3717C41.322 25.2038 40.9265 26.1609 40.0943 26.5052L38.3543 27.2267C38.1493 27.3087 37.9382 27.3496 37.723 27.3496ZM35.8272 25.0275C36.3027 25.0275 36.9114 25.2673 37.1881 25.9375C37.2475 26.081 37.3582 26.1917 37.5017 26.2511C37.6451 26.3105 37.803 26.3105 37.9464 26.2511L39.6865 25.5297C39.9816 25.4067 40.123 25.0665 40.0001 24.7713C39.7213 24.0991 39.9837 23.5006 40.3198 23.1645C40.6559 22.8284 41.2544 22.5681 41.9246 22.8447C42.0701 22.9042 42.2238 22.9042 42.3693 22.8447C42.5128 22.7853 42.6235 22.6746 42.6829 22.5312L43.4044 20.7911C43.4638 20.6476 43.4638 20.4919 43.4044 20.3484C43.3449 20.2049 43.2342 20.0943 43.0908 20.0348C42.4206 19.7561 42.1808 19.1494 42.1808 18.6739C42.1808 18.1984 42.4185 17.5897 43.0908 17.313C43.2342 17.2536 43.3449 17.1429 43.4044 16.9994C43.4638 16.856 43.4638 16.6982 43.4044 16.5547L42.6829 14.8146C42.6235 14.6712 42.5128 14.5605 42.3693 14.5011C42.2259 14.4416 42.0681 14.4416 41.9246 14.5011C41.2564 14.7798 40.6559 14.5195 40.3177 14.1813C39.9816 13.8473 39.7213 13.2467 40.0001 12.5765C40.0595 12.4331 40.0595 12.2753 40.0001 12.1318C39.9406 11.9883 39.83 11.8776 39.6865 11.8182L37.9464 11.0968C37.8009 11.0373 37.6472 11.0373 37.5017 11.0968C37.3582 11.1562 37.2455 11.2669 37.1881 11.4103C36.9114 12.0805 36.3027 12.3203 35.8272 12.3203C35.3517 12.3203 34.743 12.0826 34.4663 11.4124C34.3433 11.1173 34.0031 10.9758 33.708 11.0988L31.9679 11.8182C31.8244 11.8776 31.7138 11.9883 31.6543 12.1318C31.5949 12.2753 31.5949 12.4331 31.6543 12.5765C31.9331 13.2488 31.6707 13.8473 31.3325 14.1834C30.9985 14.5195 30.4 14.7798 29.7278 14.5011C29.4326 14.3781 29.0924 14.5195 28.9694 14.8146L28.248 16.5547C28.1885 16.6982 28.1885 16.856 28.248 16.9974C28.3074 17.1409 28.4181 17.2536 28.5616 17.311C29.2338 17.5897 29.4716 18.1964 29.4716 18.6739C29.4716 19.1494 29.2318 19.7561 28.5616 20.0348C28.2664 20.1578 28.125 20.498 28.248 20.7932L28.9694 22.5332C29.0924 22.8284 29.4347 22.9698 29.7278 22.8468C30.398 22.5701 30.9964 22.8304 31.3325 23.1665C31.6687 23.5006 31.931 24.0991 31.6523 24.7713C31.5293 25.0665 31.6707 25.4067 31.9659 25.5297L33.7059 26.2511C34.0011 26.3741 34.3413 26.2326 34.4642 25.9375C34.743 25.2673 35.3497 25.0275 35.8272 25.0275ZM35.8272 22.2565C33.8514 22.2565 32.2446 20.6497 32.2446 18.6739C32.2446 16.6982 33.8514 15.0913 35.8272 15.0913C37.803 15.0913 39.4098 16.6982 39.4098 18.6739C39.4098 20.6497 37.803 22.2565 35.8272 22.2565ZM35.8272 16.1448C34.4315 16.1448 33.2981 17.2802 33.2981 18.6739C33.2981 20.0676 34.4335 21.2031 35.8272 21.2031C37.2209 21.2031 38.3563 20.0676 38.3563 18.6739C38.3563 17.2802 37.2209 16.1448 35.8272 16.1448Z" fill="#B3B3B3"/>
<defs>
<linearGradient id="paint0_linear_1515_45" x1="30" y1="0" x2="30" y2="60" gradientUnits="userSpaceOnUse">
<stop stop-color="#EDEDED"/>
<stop offset="0.0001" stop-color="#DEDEDE"/>
<stop offset="1" stop-color="#DEDEDE"/>
</linearGradient>
</defs>
</svg>
