<svg width="60" height="60" viewBox="0 0 60 60" fill="none" xmlns="http://www.w3.org/2000/svg">
<path d="M0 5C0 2.23858 2.23858 0 5 0H55C57.7614 0 60 2.23858 60 5V55C60 57.7614 57.7614 60 55 60H5C2.23858 60 0 57.7614 0 55V5Z" fill="url(#paint0_linear_1012_131)"/>
<path d="M29.1753 11V23.1739H23.0877C19.7351 23.1739 17 20.4391 17 17.087C17 13.7348 19.7351 11 23.0877 11H29.1753ZM29.1753 24.913V37.087H23.0877C19.7351 37.087 17 34.3522 17 31C17 27.6478 19.7351 24.913 23.0877 24.913H29.1753ZM29.1753 38.8261V44.913C29.1753 48.2652 26.4402 51 23.0877 51C19.7351 51 17 48.2652 17 44.913C17 41.5609 19.7351 38.8261 23.0877 38.8261H29.1753ZM43.09 17.087C43.09 20.4391 40.3549 23.1739 37.0023 23.1739H30.9147V11H37.0023C40.3549 11 43.09 13.7348 43.09 17.087ZM37.0023 24.913C35.3878 24.913 33.8394 25.5543 32.6977 26.6959C31.556 27.8374 30.9147 29.3856 30.9147 31C30.9147 32.6144 31.556 34.1626 32.6977 35.3041C33.8394 36.4457 35.3878 37.087 37.0023 37.087C38.6169 37.087 40.1653 36.4457 41.307 35.3041C42.4486 34.1626 43.09 32.6144 43.09 31C43.09 29.3856 42.4486 27.8374 41.307 26.6959C40.1653 25.5543 38.6169 24.913 37.0023 24.913Z" fill="#B3B3B3"/>
<defs>
<linearGradient id="paint0_linear_1012_131" x1="30" y1="0" x2="30" y2="60" gradientUnits="userSpaceOnUse">
<stop stop-color="#EDEDED"/>
<stop offset="0.0001" stop-color="#DEDEDE"/>
<stop offset="1" stop-color="#DEDEDE"/>
</linearGradient>
</defs>
</svg>
