<svg width="60" height="60" viewBox="0 0 60 60" fill="none" xmlns="http://www.w3.org/2000/svg">
<rect width="60" height="60" rx="5" fill="url(#paint0_linear_544_301)"/>
<path d="M31.2857 23.3333H23.6667C19.9848 23.3333 17 20.3486 17 16.6667C17 12.9848 19.9848 10 23.6667 10H31.2857V23.3333Z" fill="#E64A19"/>
<path d="M30.3333 36.6667H23.6667C19.9848 36.6667 17 33.6819 17 30C17 26.3181 19.9848 23.3333 23.6667 23.3333H30.3333V36.6667Z" fill="#7C4DFF"/>
<path d="M23.6667 50C19.9848 50 17 47.0152 17 43.3333C17 39.6514 19.9848 36.6667 23.6667 36.6667H30.3333V43.3333C30.3333 47.0152 27.3486 50 23.6667 50Z" fill="#66BB6A"/>
<path d="M37.0002 23.3333H30.3335V10H37.0002C40.6821 10 43.6668 12.9848 43.6668 16.6667C43.6668 20.3486 40.6821 23.3333 37.0002 23.3333Z" fill="#FF7043"/>
<path d="M37.0002 36.6667C40.6821 36.6667 43.6668 33.6819 43.6668 30C43.6668 26.3181 40.6821 23.3333 37.0002 23.3333C33.3183 23.3333 30.3335 26.3181 30.3335 30C30.3335 33.6819 33.3183 36.6667 37.0002 36.6667Z" fill="#29B6F6"/>
<defs>
<linearGradient id="paint0_linear_544_301" x1="30" y1="0" x2="30" y2="60" gradientUnits="userSpaceOnUse">
<stop stop-color="white"/>
<stop offset="1" stop-color="#B3B3B3"/>
</linearGradient>
</defs>
</svg>
