<svg width="60" height="60" viewBox="0 0 60 60" fill="none" xmlns="http://www.w3.org/2000/svg">
<rect width="60" height="60" rx="5" fill="url(#paint0_linear_544_288)"/>
<path d="M29.1739 10V22.1739H23.087C19.7348 22.1739 17 19.4391 17 16.087C17 12.7348 19.7348 10 23.087 10H29.1739ZM29.1739 23.913V36.087H23.087C19.7348 36.087 17 33.3522 17 30C17 26.6478 19.7348 23.913 23.087 23.913H29.1739ZM29.1739 37.8261V43.913C29.1739 47.2652 26.4391 50 23.087 50C19.7348 50 17 47.2652 17 43.913C17 40.5609 19.7348 37.8261 23.087 37.8261H29.1739ZM43.087 16.087C43.087 19.4391 40.3522 22.1739 37 22.1739H30.913V10H37C40.3522 10 43.087 12.7348 43.087 16.087ZM37 23.913C35.3856 23.913 33.8374 24.5543 32.6959 25.6959C31.5543 26.8374 30.913 28.3856 30.913 30C30.913 31.6144 31.5543 33.1626 32.6959 34.3041C33.8374 35.4457 35.3856 36.087 37 36.087C38.6144 36.087 40.1626 35.4457 41.3041 34.3041C42.4457 33.1626 43.087 31.6144 43.087 30C43.087 28.3856 42.4457 26.8374 41.3041 25.6959C40.1626 24.5543 38.6144 23.913 37 23.913Z" fill="black"/>
<defs>
<linearGradient id="paint0_linear_544_288" x1="30" y1="0" x2="30" y2="60" gradientUnits="userSpaceOnUse">
<stop stop-color="#404040"/>
<stop offset="1" stop-color="#1A1A1A"/>
</linearGradient>
</defs>
</svg>
