<svg width="60" height="60" viewBox="0 0 60 60" fill="none" xmlns="http://www.w3.org/2000/svg">
<path d="M0 5C0 2.23858 2.23858 0 5 0H55C57.7614 0 60 2.23858 60 5V55C60 57.7614 57.7614 60 55 60H5C2.23858 60 0 57.7614 0 55V5Z" fill="url(#paint0_linear_1014_141)"/>
<path d="M47.4864 10.2819C47.3233 10.1019 47.089 10 46.8444 10H12.8702C12.6257 10 12.3913 10.1019 12.2282 10.2819C12.0618 10.462 11.9803 10.7031 12.0041 10.9477L15.0645 45.231C15.0951 45.591 15.3464 45.8899 15.6929 45.9918L29.6161 49.966C29.6909 49.9898 29.7724 50 29.8539 50C29.9354 50 30.0136 49.9898 30.0917 49.966L44.0251 45.9918C44.3716 45.8899 44.6195 45.591 44.6535 45.231L47.7106 10.9477C47.7344 10.7031 47.6528 10.462 47.4864 10.2819ZM40.1596 22.1026H23.8009L24.1916 26.5285H39.7656L38.5971 39.6094L29.8505 42.252L29.7656 42.2249L21.1209 39.606L20.6488 34.2765H24.8845L25.0679 36.3451L29.9015 37.3573L34.6467 36.3451L35.1528 30.7473H20.3329L19.1814 17.8736H40.5367L40.1596 22.1026Z" fill="#B3B3B3"/>
<defs>
<linearGradient id="paint0_linear_1014_141" x1="30" y1="0" x2="30" y2="60" gradientUnits="userSpaceOnUse">
<stop stop-color="#EDEDED"/>
<stop offset="0.0001" stop-color="#DEDEDE"/>
<stop offset="1" stop-color="#DEDEDE"/>
</linearGradient>
</defs>
</svg>
