<svg width="60" height="60" viewBox="0 0 60 60" fill="none" xmlns="http://www.w3.org/2000/svg">
<rect width="60" height="60" rx="5" fill="url(#paint0_linear_544_306)"/>
<path d="M29.6501 30.899C28.6521 29.29 27.9281 27.956 26.9251 25.444C25.2291 21.201 37.2401 17.367 32.3701 10C34.4811 15.089 24.7931 18.235 23.8931 22.473C23.0701 26.371 29.6451 30.899 29.6501 30.899Z" fill="#F44336"/>
<path d="M29.878 23.271C29.686 25.787 32.107 27.128 32.177 28.966C32.233 30.462 30.73 31.709 30.73 31.709C30.73 31.709 33.458 31.173 34.309 28.891C35.254 26.357 32.475 24.622 32.761 22.593C33.028 20.655 38.792 17.05 38.792 17.05C38.792 17.05 30.311 17.612 29.878 23.271Z" fill="#F44336"/>
<path d="M38.0841 31.056C39.8381 30.662 41.3171 31.779 41.3171 33.066C41.3171 35.967 37.2961 38.709 37.2961 38.709C37.2961 38.709 43.5211 37.967 43.5211 33.204C43.5211 30.054 40.4641 29.267 38.0841 31.056ZM35.1291 33.396C35.1291 33.396 37.0701 32.013 37.5871 31.494C32.8241 32.505 21.9491 32.641 21.9491 31.763C21.9491 30.954 25.4561 30.125 25.4561 30.125C25.4561 30.125 17.6831 30.013 17.6831 32.306C17.6831 34.696 27.8581 34.867 35.1291 33.396Z" fill="#F5F5F5"/>
<path d="M33.9349 35.572C29.4259 37.071 21.1209 36.592 23.5809 34.579C22.3829 34.579 20.6069 35.542 20.6069 36.468C20.6069 38.325 29.5889 39.759 36.2369 37.04L33.9349 35.572Z" fill="#F5F5F5"/>
<path d="M24.6862 38.74C23.0502 38.74 21.9912 39.794 21.9912 40.562C21.9912 42.953 31.7512 43.194 35.6182 40.767L33.1602 39.135C30.2712 40.405 23.0142 40.58 24.6862 38.74Z" fill="#F5F5F5"/>
<path d="M42.281 42.633C42.281 41.697 41.226 41.256 40.848 41.045C43.076 46.418 18.531 46.001 18.531 42.829C18.531 42.108 20.338 41.402 22.008 41.736L20.588 40.897C17.26 40.375 15 41.838 15 43.018C15 48.521 42.281 48.256 42.281 42.633Z" fill="#F5F5F5"/>
<path d="M45 44.605C40.854 48.7 30.341 50.192 19.769 47.662C30.341 52.165 44.95 49.629 45 44.605Z" fill="#F5F5F5"/>
<defs>
<linearGradient id="paint0_linear_544_306" x1="30" y1="0" x2="30" y2="60" gradientUnits="userSpaceOnUse">
<stop stop-color="#404CA9"/>
<stop offset="1" stop-color="#24224E"/>
</linearGradient>
</defs>
</svg>
