<svg width="60" height="60" viewBox="0 0 60 60" fill="none" xmlns="http://www.w3.org/2000/svg">
<rect width="60" height="60" rx="5" fill="url(#paint0_linear_544_293)"/>
<path d="M32.253 10C34.4533 15.0915 24.3642 18.2357 23.4265 22.477C22.567 26.3746 29.4213 30.9034 29.4275 30.9034C28.3867 29.2907 27.621 27.9623 26.5771 25.4525C24.8111 21.2081 37.3319 17.3668 32.253 10ZM38.9541 17.0512C38.9541 17.0512 30.1026 17.62 29.6526 23.2772C29.4525 25.7963 31.9811 27.1215 32.0529 28.9531C32.1123 30.4502 30.5527 31.7035 30.5527 31.7035C30.5527 31.7035 33.3907 31.1628 34.2783 28.8781C35.2628 26.3433 32.3593 24.6305 32.653 22.6021C32.9343 20.6611 38.9541 17.0512 38.9541 17.0512ZM25.0518 30.1283C25.0518 30.1283 16.9505 30.0126 16.9505 32.3036C16.9505 34.6978 27.5553 34.8759 35.1285 33.4038C35.1285 33.4038 37.1413 32.0192 37.6789 31.5035C32.7156 32.5162 21.4012 32.6287 21.4012 31.7536C21.4012 30.9472 25.0518 30.1283 25.0518 30.1283ZM40.6294 30.1283C39.8355 30.1908 38.9791 30.4971 38.204 31.0534C40.0293 30.6596 41.5795 31.7911 41.5795 33.0788C41.5795 35.9792 37.3788 38.7047 37.3788 38.7047C37.3788 38.7047 43.8799 37.9671 43.8799 33.2038C43.8799 31.0409 42.3765 29.9908 40.6294 30.1283ZM23.1015 34.579C21.8575 34.579 20.001 35.5542 20.001 36.4793C20.001 38.339 29.3525 39.7705 36.2786 37.0544L33.8783 35.5792C29.1837 37.0826 20.5386 36.5918 23.1015 34.579ZM24.2517 38.7547C22.5483 38.7547 21.4262 39.783 21.4262 40.555C21.4262 42.9429 31.5998 43.1836 35.6285 40.755L33.0781 39.1298C30.0683 40.4018 22.5139 40.5956 24.2517 38.7547ZM18.5757 40.9051C15.8003 40.8488 14 42.0959 14 43.1304C14 48.6313 42.4046 48.3782 42.4046 42.7554C42.4046 41.8208 41.3263 41.3676 40.9294 41.1551C43.2517 46.531 17.6756 46.1028 17.6756 42.9304C17.6756 42.2084 19.5572 41.5177 21.3012 41.8552L19.826 41.0051C19.3915 40.9394 18.9727 40.9144 18.5757 40.9051ZM45.4051 44.6057C41.0857 48.7001 30.1401 50.1847 19.1258 47.6562C30.137 52.1631 45.352 49.6346 45.4051 44.6057Z" fill="black"/>
<defs>
<linearGradient id="paint0_linear_544_293" x1="30" y1="0" x2="30" y2="60" gradientUnits="userSpaceOnUse">
<stop stop-color="#404040"/>
<stop offset="1" stop-color="#1A1A1A"/>
</linearGradient>
</defs>
</svg>
