<svg width="60" height="60" viewBox="0 0 60 60" fill="none" xmlns="http://www.w3.org/2000/svg">
<path d="M0 5C0 2.23858 2.23858 0 5 0H55C57.7614 0 60 2.23858 60 5V55C60 57.7614 57.7614 60 55 60H5C2.23858 60 0 57.7614 0 55V5Z" fill="url(#paint0_linear_1017_157)"/>
<g clip-path="url(#clip0_1017_157)">
<path d="M32.2558 10C34.4565 15.0915 24.3658 18.2357 23.428 22.477C22.5684 26.3746 29.4237 30.9034 29.4299 30.9034C28.389 29.2907 27.6231 27.9623 26.579 25.4525C24.8128 21.2081 37.3356 17.3668 32.2558 10ZM38.9579 17.0512C38.9579 17.0512 30.1051 17.62 29.655 23.2772C29.4549 25.7963 31.9838 27.1216 32.0557 28.9531C32.1151 30.4502 30.5553 31.7035 30.5553 31.7035C30.5553 31.7035 33.3937 31.1628 34.2815 28.8781C35.2661 26.3433 32.3621 24.6305 32.6559 22.6021C32.9373 20.6611 38.9579 17.0512 38.9579 17.0512ZM25.0535 30.1283C25.0535 30.1283 16.9509 30.0126 16.9509 32.3036C16.9509 34.6978 27.5574 34.8759 35.1317 33.4038C35.1317 33.4038 37.1449 32.0192 37.6825 31.5035C32.7185 32.5162 21.4024 32.6287 21.4024 31.7536C21.4024 30.9472 25.0535 30.1283 25.0535 30.1283ZM40.6335 30.1283C39.8395 30.1908 38.983 30.4971 38.2077 31.0534C40.0333 30.6596 41.5838 31.7911 41.5838 33.0788C41.5838 35.9792 37.3824 38.7047 37.3824 38.7047C37.3824 38.7047 43.8845 37.9671 43.8845 33.2038C43.8845 31.0409 42.3809 29.9908 40.6335 30.1283ZM23.1029 34.579C21.8588 34.579 20.0019 35.5542 20.0019 36.4793C20.0019 38.339 29.3549 39.7705 36.2821 37.0544L33.8813 35.5792C29.1861 37.0826 20.5396 36.5918 23.1029 34.579ZM24.2533 38.7547C22.5496 38.7547 21.4274 39.783 21.4274 40.555C21.4274 42.9429 31.6025 43.1836 35.6319 40.755L33.0811 39.1298C30.0707 40.4018 22.5152 40.5956 24.2533 38.7547ZM18.5765 40.9051C15.8006 40.8488 14 42.0959 14 43.1304C14 48.6313 42.409 48.3782 42.409 42.7554C42.409 41.8208 41.3306 41.3676 40.9336 41.1551C43.2562 46.531 17.6762 46.1028 17.6762 42.9304C17.6762 42.2084 19.558 41.5177 21.3023 41.8552L19.8269 41.0051C19.3923 40.9394 18.9735 40.9144 18.5765 40.9051ZM45.41 44.6057C41.0899 48.7001 30.1426 50.1847 19.1266 47.6562C30.1395 52.1631 45.3569 49.6346 45.41 44.6057Z" fill="#B3B3B3"/>
</g>
<defs>
<linearGradient id="paint0_linear_1017_157" x1="30" y1="0" x2="30" y2="60" gradientUnits="userSpaceOnUse">
<stop stop-color="#EDEDED"/>
<stop offset="0.0001" stop-color="#DEDEDE"/>
<stop offset="1" stop-color="#DEDEDE"/>
</linearGradient>
<clipPath id="clip0_1017_157">
<rect width="31.41" height="40" fill="white" transform="translate(14 10)"/>
</clipPath>
</defs>
</svg>
