<svg width="60" height="60" viewBox="0 0 60 60" fill="none" xmlns="http://www.w3.org/2000/svg">
<rect width="60" height="60" rx="5" fill="#FFE0A2"/>
<path d="M46.3636 10H13.6364C11.6273 10 10 11.6273 10 13.6364V46.3636C10 48.3727 11.6273 50 13.6364 50H46.3636C48.3727 50 50 48.3727 50 46.3636V13.6364C50 11.6273 48.3727 10 46.3636 10ZM30 39.7818C30 43.0127 28.0182 44.8236 24.7273 44.8236C21.4764 44.8236 19.4055 42.9236 19.4055 39.8509H22.9273C22.9364 40.9909 23.6164 41.7109 24.6673 41.7109C25.7473 41.7109 26.3273 41.0309 26.3273 39.7509V29.9964H30V39.7818ZM39.9655 44.8236C36.3127 44.8236 34.0145 43.1036 33.9527 40.3218H37.4545C37.5436 41.3727 38.5927 42.0418 40.1145 42.0418C41.4855 42.0418 42.4273 41.3818 42.4273 40.4309C42.4273 39.6309 41.7964 39.2 40.1455 38.8709L38.2455 38.4909C35.6036 37.9909 34.2436 36.5509 34.2436 34.28C34.2436 31.4582 36.5055 29.6073 39.9855 29.6073C43.3673 29.6073 45.7073 31.4382 45.7673 34.1091H42.3764C42.2964 33.0891 41.3255 32.3782 40.0327 32.3782C38.7436 32.3782 37.8945 32.9891 37.8945 33.9491C37.8945 34.74 38.5345 35.2 40.0545 35.5L41.9127 35.86C44.7655 36.4109 46.0455 37.7 46.0455 39.9909C46.0473 43.0036 43.7473 44.8236 39.9655 44.8236Z" fill="#FEA900"/>
</svg>
