<svg width="60" height="60" viewBox="0 0 60 60" fill="none" xmlns="http://www.w3.org/2000/svg">
<rect width="60" height="60" rx="5" fill="url(#paint0_linear_544_294)"/>
<path d="M35.7078 18.0005C35.2911 17.9901 34.9266 18.1498 34.7391 18.6116C34.4196 19.3859 35.2147 20.1428 35.4995 20.5386C35.6974 20.8129 35.9543 21.1219 36.0967 21.431C36.1904 21.6358 36.2043 21.8407 36.2842 22.056C36.4821 22.5872 36.798 23.1913 37.0515 23.6844C37.18 23.9344 37.3223 24.1948 37.4855 24.417C37.5862 24.5524 37.7564 24.6149 37.7841 24.8233C37.6175 25.0594 37.6071 25.4239 37.5133 25.7225C37.0897 27.0593 37.2494 28.7225 37.864 29.7086C38.055 30.0141 38.5029 30.6634 39.114 30.4169C39.6487 30.1981 39.5306 29.5211 39.6834 28.9204C39.7181 28.7885 39.6973 28.6878 39.7667 28.5975V28.6253C39.9265 28.9516 40.0896 29.278 40.2528 29.6009C40.6174 30.1843 41.2598 30.7919 41.8014 31.2051C42.0827 31.4169 42.3049 31.7849 42.6695 31.9099V31.8821H42.6417C42.5722 31.771 42.4611 31.7259 42.3708 31.6391C42.159 31.4308 41.9229 31.1704 41.7493 30.9308C41.2528 30.2606 40.8153 29.5246 40.4195 28.7607C40.2285 28.3961 40.0619 27.9933 39.9021 27.6218C39.8396 27.476 39.8396 27.2607 39.7112 27.1843C39.5341 27.4586 39.2772 27.6774 39.1417 28.0003C38.9265 28.5142 38.8952 29.1426 38.8154 29.7919C38.7668 29.8093 38.7876 29.7954 38.7633 29.8197C38.3848 29.7259 38.2494 29.3371 38.1105 29.0037C37.7564 28.16 37.6869 26.7989 38.0029 25.8302C38.0827 25.5767 38.4473 24.7851 38.3015 24.5524C38.232 24.3198 37.9959 24.1879 37.8675 24.0108C37.7043 23.792 37.5446 23.5038 37.4334 23.2504C37.1418 22.5907 36.8675 21.8268 36.5585 21.1601C36.4126 20.8407 36.1661 20.5213 35.9613 20.2365C35.7356 19.924 35.4856 19.6949 35.3085 19.3129C35.2495 19.181 35.1627 18.9657 35.2564 18.8268C35.2842 18.7331 35.3258 18.6949 35.4196 18.6637C35.5758 18.5421 36.0133 18.7019 36.18 18.7713C36.614 18.9518 36.9786 19.1255 37.3466 19.3685C37.5237 19.4866 37.7008 19.7122 37.9161 19.7782H38.1591C38.5445 19.865 38.9716 19.8025 39.3258 19.9136C39.9577 20.1046 40.5237 20.4032 41.0341 20.7261C42.6 21.7122 43.8812 23.1184 44.7527 24.7955C44.8951 25.0663 44.9576 25.3267 45.0826 25.6114C45.3291 26.1878 45.6451 26.785 45.8951 27.3475C46.1416 27.9135 46.3847 28.4794 46.7353 28.9482C46.9194 29.1947 47.6346 29.3301 47.9575 29.4655C48.1832 29.5627 48.5582 29.6634 48.77 29.7919C49.1832 30.0384 49.579 30.3336 49.9644 30.6079C50.1589 30.7433 50.7492 31.0384 50.7804 31.2849C49.8256 31.2606 49.0964 31.3474 48.4749 31.6113C48.2978 31.6877 48.0131 31.6877 47.9853 31.9099C48.0791 32.0106 48.0964 32.1634 48.1728 32.2884C48.3221 32.528 48.5721 32.8509 48.7978 33.021C49.0443 33.205 49.2943 33.4029 49.5582 33.5661C50.0235 33.8474 50.5443 34.0106 50.9957 34.2953C51.2596 34.4654 51.5269 34.6772 51.7839 34.8647C51.9123 34.9619 51.9957 35.1078 52.1623 35.1668V35.139C52.0755 35.0279 52.0547 34.8751 51.9748 34.7606L51.6172 34.4029C51.2734 33.9481 50.836 33.5453 50.3707 33.212C49.9992 32.9446 49.1693 32.5835 49.0165 32.153L48.9888 32.1252C49.2492 32.0974 49.5582 32.0002 49.8013 31.9342C50.211 31.8266 50.5721 31.8544 50.9922 31.7467C51.1832 31.6912 51.3741 31.6356 51.5651 31.5835V31.4724C51.3533 31.2572 51.2005 30.9655 50.9679 30.7676C50.3603 30.2502 49.6971 29.7329 49.0131 29.3023C48.6346 29.0628 48.1659 28.9065 47.7666 28.7051C47.6312 28.6357 47.3951 28.601 47.3048 28.4864C47.093 28.219 46.9784 27.8788 46.8152 27.5663C46.4749 26.91 46.1416 26.1948 45.8395 25.5038C45.6347 25.0351 45.4993 24.5698 45.2423 24.1462C44.0097 22.1219 42.6833 20.8963 40.6278 19.6949C40.1903 19.4379 39.666 19.3407 39.1105 19.2088C38.8084 19.188 38.5133 19.1706 38.2112 19.1532C38.0307 19.0768 37.8397 18.8546 37.6696 18.7435C37.2425 18.4762 36.4022 18.0109 35.7078 18.0005ZM38.6487 20.9449C38.4508 20.9414 38.3084 20.9692 38.1591 21.0004V21.0282H38.1869C38.2807 21.2226 38.4508 21.3476 38.5688 21.5143C38.6591 21.7053 38.7459 21.8962 38.8362 22.0872L38.864 22.0594C39.0306 21.9414 39.1105 21.7504 39.1105 21.4622C39.0411 21.3928 39.0306 21.3025 38.9751 21.2192C38.8952 21.1046 38.7459 21.0421 38.6487 20.9449ZM9.66316 32.2189C9.39581 32.2294 9.10414 32.2814 8.78818 32.3821C8.26041 32.5419 8 32.8578 8 33.5002V40.2223H9.78121V33.6634L12.2499 39.2709C12.5555 39.9688 12.9721 40.2188 13.7881 40.2188C14.6075 40.2188 15.0068 39.9688 15.3124 39.2709L17.7811 33.8057V40.2223H19.5588V33.5002C19.5588 32.8578 19.3019 32.5419 18.7706 32.3821C17.5068 31.9828 16.6561 32.3266 16.2741 33.1911L13.7395 38.8924L11.2881 33.1911C11.0104 32.5419 10.4548 32.1877 9.66316 32.2189ZM31.3329 32.2224C30.6315 32.2224 28.4475 32.3057 28.4475 34.0002V35.0974C28.4475 35.8751 29.1315 36.5105 30.6141 36.6668C30.7808 36.6772 30.9475 36.6911 31.1141 36.6911C31.1141 36.6911 32.8433 36.6564 32.8919 36.6668C33.8918 36.6668 33.7807 37.4445 33.7807 37.5556V38.4445C33.7807 38.566 33.753 39.3334 32.8815 39.3334H28.4475V40.2223H32.8988C33.4821 40.2223 34.0481 40.1007 34.4995 39.8889C35.2495 39.5452 35.5585 39.0799 35.5585 38.4688V37.198C35.5585 35.8335 33.8641 35.7779 32.8919 35.7779H31.1141C30.4162 35.7779 30.3086 35.3543 30.2253 34.889V34.0002C30.3086 33.646 30.4648 33.1668 31.0829 33.1113H35.5585V32.2224H31.3329ZM38.2077 32.2224C36.8953 32.403 36.4335 33.0557 36.4335 34.0002V38.4445C36.4335 39.3091 36.9161 39.8299 37.9091 40.1007C38.2425 40.1945 38.5445 40.2327 38.8293 40.2327L40.8084 40.2223H41.9715L42.9611 41.1111H44.9611L43.5861 39.8716C44.2319 39.6042 44.4333 39.1945 44.4333 38.4272V34.0002C44.4333 33.0557 43.8187 32.403 42.5063 32.2224H38.2077ZM45.3361 32.2224V38.4063C45.3361 39.4792 45.9437 40.0834 47.5513 40.2049C47.7006 40.2118 47.8534 40.2223 48.0027 40.2223H52.447V39.3334H48.3395C47.4228 39.3334 47.1138 38.948 47.1138 38.3994V32.2224H45.3361ZM39.2667 33.1113H41.5549C42.159 33.1113 42.5653 33.5974 42.6556 34.0002C42.6556 34.0002 42.6695 38.139 42.6695 38.4445C42.6695 38.7501 42.4993 38.889 42.4993 38.889L42.0167 38.4445H40.0028L40.9924 39.3334H39.2667C38.6487 39.3334 38.3015 38.8751 38.2112 38.4445V34.0904C38.2112 33.6182 38.5723 33.1113 39.2667 33.1113ZM20.4477 34.889C20.4824 34.9238 20.4477 38.6771 20.4477 38.7501C20.4616 39.5278 21.4477 40.2084 22.9928 40.2223H25.7809V40.2813C25.7809 40.4479 25.9024 41.0035 24.892 41.1111C24.8816 41.1111 20.4581 41.1111 20.4477 41.1111V42H25.083C25.8677 41.9757 27.5691 41.7986 27.5586 40.4375C27.5586 40.4132 27.5656 34.889 27.5586 34.889H25.7809V39.3334C25.7531 39.3334 23.5796 39.3403 23.1421 39.3334C22.2844 39.3195 22.2115 38.8299 22.2254 38.6424V34.889H20.4477Z" fill="black"/>
<defs>
<linearGradient id="paint0_linear_544_294" x1="30" y1="0" x2="30" y2="60" gradientUnits="userSpaceOnUse">
<stop stop-color="#404040"/>
<stop offset="1" stop-color="#1A1A1A"/>
</linearGradient>
</defs>
</svg>
