<svg width="60" height="60" viewBox="0 0 60 60" fill="none" xmlns="http://www.w3.org/2000/svg">
<path d="M0 5C0 2.23858 2.23858 0 5 0H55C57.7614 0 60 2.23858 60 5V55C60 57.7614 57.7614 60 55 60H5C2.23858 60 0 57.7614 0 55V5Z" fill="url(#paint0_linear_1012_139)"/>
<path d="M34.6301 18.0005C34.2597 17.9901 33.9356 18.1498 33.769 18.6116C33.485 19.3859 34.1918 20.1428 34.4449 20.5386C34.6208 20.8129 34.8492 21.1219 34.9758 21.431C35.0591 21.6358 35.0715 21.8407 35.1424 22.056C35.3184 22.5872 35.5992 23.1913 35.8246 23.6844C35.9388 23.9344 36.0653 24.1948 36.2104 24.417C36.2999 24.5524 36.4511 24.6149 36.4758 24.8233C36.3277 25.0594 36.3184 25.4239 36.2351 25.7225C35.8585 27.0593 36.0005 28.7225 36.5468 29.7086C36.7166 30.0141 37.1147 30.6634 37.6579 30.4169C38.1332 30.1981 38.0283 29.5211 38.1641 28.9204C38.195 28.7885 38.1765 28.6878 38.2382 28.5975V28.6253C38.3802 28.9516 38.5252 29.278 38.6703 29.6009C38.9944 30.1843 39.5654 30.7919 40.0469 31.2051C40.2969 31.4169 40.4944 31.7849 40.8185 31.9099V31.8821H40.7938C40.7321 31.771 40.6333 31.7259 40.553 31.6391C40.3648 31.4308 40.1549 31.1704 40.0006 30.9308C39.5592 30.2606 39.1703 29.5246 38.8184 28.7607C38.6487 28.3961 38.5005 27.9933 38.3586 27.6218C38.303 27.476 38.303 27.2607 38.1888 27.1843C38.0314 27.4586 37.803 27.6774 37.6826 28.0003C37.4913 28.5142 37.4635 29.1426 37.3925 29.7919C37.3493 29.8093 37.3678 29.7954 37.3462 29.8197C37.0098 29.7259 36.8894 29.3371 36.7659 29.0037C36.4511 28.16 36.3894 26.7989 36.6703 25.8302C36.7412 25.5767 37.0653 24.7851 36.9357 24.5524C36.874 24.3198 36.6641 24.1879 36.5499 24.0108C36.4048 23.792 36.2628 23.5038 36.1641 23.2504C35.9048 22.5907 35.661 21.8268 35.3863 21.1601C35.2566 20.8407 35.0375 20.5213 34.8554 20.2365C34.6548 19.924 34.4326 19.6949 34.2751 19.313C34.2227 19.181 34.1455 18.9657 34.2288 18.8268C34.2535 18.7331 34.2906 18.6949 34.3739 18.6637C34.5128 18.5421 34.9017 18.7019 35.0499 18.7713C35.4357 18.9518 35.7597 19.1255 36.0869 19.3685C36.2443 19.4866 36.4017 19.7122 36.5931 19.7782H36.8091C37.1517 19.865 37.5314 19.8025 37.8462 19.9136C38.4079 20.1046 38.911 20.4032 39.3647 20.7261C40.7567 21.7122 41.8957 23.1184 42.6704 24.7955C42.7969 25.0663 42.8525 25.3267 42.9636 25.6114C43.1827 26.1878 43.4636 26.785 43.6858 27.3475C43.905 27.9135 44.121 28.4794 44.4327 28.9482C44.5963 29.1947 45.2321 29.3301 45.5192 29.4655C45.7198 29.5627 46.0531 29.6634 46.2414 29.7919C46.6087 30.0384 46.9606 30.3336 47.3032 30.6079C47.476 30.7433 48.0007 31.0384 48.0285 31.2849C47.1797 31.2606 46.5315 31.3474 45.9791 31.6113C45.8217 31.6877 45.5686 31.6877 45.5439 31.9099C45.6272 32.0106 45.6426 32.1634 45.7105 32.2884C45.8433 32.528 46.0655 32.8509 46.2661 33.021C46.4852 33.205 46.7075 33.4029 46.9421 33.5661C47.3556 33.8474 47.8186 34.0106 48.2199 34.2953C48.4544 34.4654 48.6921 34.6772 48.9205 34.8647C49.0347 34.9619 49.1088 35.1078 49.2569 35.1668V35.139C49.1797 35.0279 49.1612 34.8751 49.0902 34.7606L48.7723 34.4029C48.4668 33.9481 48.0779 33.5453 47.6643 33.212C47.334 32.9446 46.5964 32.5835 46.4606 32.153L46.4359 32.1252C46.6674 32.0974 46.9421 32.0002 47.1581 31.9342C47.5223 31.8266 47.8433 31.8544 48.2168 31.7467C48.3865 31.6912 48.5563 31.6356 48.726 31.5835V31.4724C48.5378 31.2572 48.402 30.9655 48.1952 30.7676C47.655 30.2502 47.0655 29.7329 46.4575 29.3023C46.121 29.0628 45.7044 28.9065 45.3494 28.7051C45.2291 28.6357 45.0192 28.601 44.9389 28.4864C44.7507 28.219 44.6488 27.8788 44.5037 27.5663C44.2013 26.91 43.905 26.1948 43.6364 25.5038C43.4543 25.0351 43.334 24.5698 43.1056 24.1462C42.0099 22.1219 40.8308 20.8963 39.0036 19.6949C38.6147 19.4379 38.1487 19.3407 37.6548 19.2088C37.3863 19.188 37.124 19.1706 36.8554 19.1532C36.6949 19.0768 36.5252 18.8546 36.374 18.7435C35.9943 18.4762 35.2474 18.0109 34.6301 18.0005ZM37.2443 20.9449C37.0684 20.9414 36.9419 20.9692 36.8091 21.0004V21.0282H36.8338C36.9172 21.2226 37.0684 21.3476 37.1733 21.5143C37.2536 21.7053 37.3308 21.8962 37.411 22.0872L37.4357 22.0594C37.5839 21.9414 37.6548 21.7504 37.6548 21.4622C37.5931 21.3928 37.5838 21.3025 37.5345 21.2192C37.4635 21.1046 37.3308 21.0421 37.2443 20.9449ZM11.4784 32.2189C11.2408 32.2294 10.9815 32.2814 10.7006 32.3821C10.2315 32.5419 10 32.8578 10 33.5002V40.2223H11.5834V33.6634L13.7778 39.2709C14.0495 39.9688 14.4198 40.2188 15.1452 40.2188C15.8736 40.2188 16.2285 39.9688 16.5001 39.2709L18.6946 33.8057V40.2223H20.2749V33.5002C20.2749 32.8578 20.0465 32.5419 19.5743 32.3821C18.4508 31.9828 17.6946 32.3266 17.3551 33.1911L15.1019 38.8924L12.9229 33.1911C12.676 32.5419 12.1821 32.1877 11.4784 32.2189ZM30.7411 32.2224C30.1177 32.2224 28.1763 32.3057 28.1763 34.0002V35.0974C28.1763 35.8751 28.7843 36.5105 30.1022 36.6668C30.2504 36.6772 30.3985 36.6911 30.5467 36.6911C30.5467 36.6911 32.0837 36.6564 32.127 36.6668C33.0159 36.6668 32.9171 37.4445 32.9171 37.5556V38.4445C32.9171 38.566 32.8924 39.3334 32.1177 39.3334H28.1763V40.2223H32.1331C32.6517 40.2223 33.1548 40.1007 33.556 39.8889C34.2227 39.5452 34.4974 39.0799 34.4974 38.4688V37.198C34.4974 35.8335 32.9912 35.7779 32.127 35.7779H30.5467C29.9263 35.7779 29.8306 35.3543 29.7565 34.889V34.0002C29.8306 33.646 29.9695 33.1668 30.5189 33.1113H34.4974V32.2224H30.7411ZM36.8524 32.2224C35.6857 32.403 35.2752 33.0557 35.2752 34.0002V38.4445C35.2752 39.3091 35.7042 39.8299 36.5869 40.1007C36.8832 40.1945 37.1517 40.2327 37.4048 40.2327L39.1641 40.2223H40.1981L41.0777 41.1111H42.8556L41.6333 39.8716C42.2074 39.6042 42.3864 39.1945 42.3864 38.4272V34.0002C42.3864 33.0557 41.8401 32.403 40.6734 32.2224H36.8524ZM43.1889 32.2224V38.4063C43.1889 39.4792 43.729 40.0834 45.1581 40.2049C45.2908 40.2118 45.4266 40.2223 45.5593 40.2223H49.51V39.3334H45.8587C45.0439 39.3334 44.7692 38.948 44.7692 38.3994V32.2224H43.1889ZM37.7937 33.1113H39.8277C40.3648 33.1113 40.7259 33.5974 40.8061 34.0002C40.8061 34.0002 40.8185 38.139 40.8185 38.4445C40.8185 38.7501 40.6672 38.889 40.6672 38.889L40.2382 38.4445H38.4481L39.3277 39.3334H37.7937C37.2443 39.3334 36.9357 38.8751 36.8554 38.4445V34.0904C36.8554 33.6182 37.1764 33.1113 37.7937 33.1113ZM21.065 34.889C21.0959 34.9238 21.065 38.6771 21.065 38.7501C21.0774 39.5278 21.9539 40.2084 23.3274 40.2223H25.8059V40.2813C25.8059 40.4479 25.9139 41.0035 25.0157 41.1111C25.0065 41.1111 21.0743 41.1111 21.065 41.1111V42H25.1855C25.883 41.9757 27.3954 41.7986 27.3861 40.4375C27.3861 40.4132 27.3923 34.889 27.3861 34.889H25.8059V39.3334C25.7812 39.3334 23.849 39.3403 23.4601 39.3334C22.6978 39.3195 22.633 38.8299 22.6453 38.6424V34.889H21.065Z" fill="#B3B3B3"/>
<defs>
<linearGradient id="paint0_linear_1012_139" x1="30" y1="0" x2="30" y2="60" gradientUnits="userSpaceOnUse">
<stop stop-color="#EDEDED"/>
<stop offset="0.0001" stop-color="#DEDEDE"/>
<stop offset="1" stop-color="#DEDEDE"/>
</linearGradient>
</defs>
</svg>
