<svg width="60" height="60" viewBox="0 0 60 60" fill="none" xmlns="http://www.w3.org/2000/svg">
<rect width="60" height="60" rx="5" fill="url(#paint0_linear_544_307)"/>
<path d="M8.00185 38.2223H9.77957V31.6623L12.2489 37.2705C12.5535 37.9695 12.9702 38.2167 13.7878 38.2167C14.6053 38.2167 15.0053 37.9695 15.3099 37.2705L17.7793 31.8058V38.2223H19.557V31.5022C19.557 30.8568 19.3005 30.5439 18.7709 30.3827C17.5052 29.9846 16.6552 30.3281 16.271 31.1901L13.7387 36.8936L11.286 31.1901C10.9175 30.329 10.0527 29.9846 8.78608 30.3827C8.25647 30.5439 8 30.8559 8 31.5012V38.2214L8.00185 38.2223Z" fill="#00796B"/>
<path d="M20.4448 32.8891H22.2225V36.6436C22.2086 36.8288 22.2818 37.3205 23.1392 37.3334C23.5762 37.3408 25.7511 37.3334 25.778 37.3334V32.8891H27.5557C27.5631 32.8891 27.5557 38.4149 27.5557 38.438C27.5649 39.8009 25.8631 39.9769 25.0808 40H20.4458V39.1111C20.455 39.1111 24.878 39.1121 24.891 39.1111C25.8983 39.0047 25.7789 38.4501 25.7789 38.2815V38.2223H22.9901C21.4439 38.2084 20.4578 37.5269 20.4467 36.7501C20.4448 36.6779 20.48 32.9225 20.4448 32.8891Z" fill="#00796B"/>
<path d="M28.4447 38.2223H32.8954C33.4788 38.2223 34.0454 38.1001 34.4954 37.889C35.2454 37.5445 35.5546 37.0788 35.5546 36.4668V35.2002C35.5546 33.8335 33.8602 33.778 32.888 33.778H31.1103C30.4113 33.778 30.3048 33.3558 30.2215 32.8891V32.0003C30.3048 31.6447 30.4603 31.167 31.0761 31.1114C31.7918 31.1114 35.5537 31.1114 35.5537 31.1114V30.2226H31.3261C30.627 30.2226 28.4428 30.3059 28.4428 32.0003V33.0993C28.4428 33.8771 29.1261 34.5104 30.6094 34.6659C30.7761 34.677 30.9427 34.6881 31.1085 34.6881C31.1085 34.6881 32.8362 34.6548 32.8862 34.6659C33.8861 34.6659 33.775 35.4437 33.775 35.5548V36.4436C33.775 36.5659 33.7473 37.3325 32.876 37.3325C32.8093 37.3325 28.4419 37.3325 28.4419 37.3325V38.2223H28.4447Z" fill="#F57F17"/>
<path d="M45.332 36.4066C45.332 37.4797 45.9385 38.0815 47.5468 38.2019C47.6968 38.2121 47.8477 38.2213 47.9986 38.2213H52.4429V37.3325H48.3366C47.419 37.3325 47.1097 36.9473 47.1097 36.3964V30.2216H45.332V36.4066Z" fill="#F57F17"/>
<path d="M36.4287 36.4446V32.0003C36.4287 31.0559 36.8917 30.404 38.2027 30.2226H38.8249H42.0165H42.5026C43.8136 30.404 44.4284 31.0549 44.4284 32.0003V36.4279C44.4284 37.1936 44.2294 37.6047 43.5803 37.8714L44.958 39.1102H42.9581L41.9674 38.2214H40.8036L38.8258 38.2325C38.5397 38.2325 38.2379 38.1926 37.9064 38.1019C36.912 37.8306 36.4287 37.3084 36.4287 36.4446ZM38.2064 36.4446C38.2972 36.877 38.6444 37.3334 39.2619 37.3334H40.9878L39.999 36.4446H42.0128L42.4933 36.8908C42.4933 36.8908 42.6655 36.7501 42.6655 36.4446C42.6655 36.139 42.6507 32.0003 42.6507 32.0003C42.56 31.5984 42.1526 31.1114 41.5507 31.1114H39.2629C38.5694 31.1114 38.2074 31.6188 38.2074 32.091L38.2064 36.4446Z" fill="#F57F17"/>
<path d="M50.7753 29.2856C49.8207 29.2596 49.092 29.3485 48.4689 29.6106C48.2921 29.6856 48.0097 29.6874 47.98 29.9096C48.0773 30.0115 48.0921 30.1642 48.1699 30.2892C48.318 30.53 48.5698 30.8531 48.7939 31.0216C49.0393 31.2068 49.292 31.4049 49.5541 31.5651C50.0207 31.8494 50.542 32.0123 50.992 32.2975C51.2568 32.4651 51.5197 32.678 51.779 32.8669C51.9068 32.9614 51.9919 33.1067 52.1586 33.166C52.1586 33.1567 52.1586 33.1484 52.1586 33.1391C52.0716 33.028 52.0484 32.8752 51.9688 32.7586C51.8512 32.641 51.7336 32.5234 51.616 32.4058C51.2716 31.9484 50.8327 31.5457 50.3679 31.2123C49.9966 30.9457 49.1661 30.5855 49.0106 30.1541C49.0013 30.1448 48.993 30.1365 48.9828 30.1263C49.2457 30.0966 49.5541 30.0013 49.7966 29.9365C50.205 29.8272 50.5688 29.8559 50.9901 29.7467C51.1799 29.692 51.3697 29.6383 51.5596 29.5837C51.5596 29.5476 51.5596 29.5115 51.5596 29.4754C51.3466 29.2569 51.1938 28.968 50.9623 28.7698C50.354 28.2523 49.6911 27.7356 49.0087 27.3042C48.63 27.0653 48.1615 26.9097 47.7606 26.707C47.6254 26.6384 47.3884 26.6033 47.2995 26.4903C47.0884 26.2218 46.9745 25.8801 46.8116 25.5681C46.4708 24.9126 46.1357 24.1959 45.8348 23.5061C45.6283 23.0358 45.494 22.571 45.2376 22.1488C44.0052 20.1229 42.6784 18.8998 40.6248 17.698C40.1877 17.4425 39.6609 17.3416 39.1044 17.2091C38.8054 17.1916 38.5072 17.173 38.2082 17.1545C38.0258 17.0777 37.8369 16.8555 37.6647 16.7471C36.9841 16.3166 35.2379 15.3814 34.7342 16.611C34.4157 17.3869 35.2101 18.1443 35.4944 18.5378C35.6935 18.8137 35.949 19.123 36.0916 19.4341C36.1851 19.6378 36.2018 19.8424 36.2814 20.0581C36.4786 20.5896 36.7906 21.1951 37.0462 21.6868C37.1749 21.9358 37.3175 22.1969 37.4804 22.4191C37.5804 22.5553 37.7517 22.6154 37.7795 22.8265C37.6119 23.0608 37.6026 23.4247 37.5082 23.7228C37.0841 25.0607 37.2443 26.7227 37.861 27.7115C38.0498 28.0152 38.4961 28.6671 39.1091 28.4171C39.6452 28.1986 39.5257 27.5217 39.6785 26.9245C39.7128 26.7894 39.6915 26.6903 39.76 26.5996C39.76 26.6088 39.76 26.6171 39.76 26.6273C39.9229 26.9523 40.085 27.2792 40.2488 27.6041C40.6109 28.1865 41.2525 28.7948 41.7951 29.2059C42.0766 29.4189 42.2988 29.7874 42.6636 29.9115C42.6636 29.9022 42.6636 29.8939 42.6636 29.8837C42.6543 29.8837 42.646 29.8837 42.6358 29.8837C42.5654 29.7735 42.4543 29.7281 42.3645 29.6393C42.1525 29.4309 41.9155 29.1726 41.7405 28.9337C41.246 28.2625 40.809 27.5273 40.4109 26.7625C40.2211 26.3968 40.0553 25.9949 39.8952 25.6227C39.8331 25.4792 39.834 25.2626 39.7053 25.1885C39.5294 25.4607 39.272 25.6811 39.1359 26.0024C38.9193 26.5162 38.8906 27.144 38.8109 27.793C38.7628 27.8097 38.7841 27.7986 38.7563 27.8199C38.3785 27.7282 38.2452 27.3403 38.1045 27.006C37.7489 26.1616 37.6832 24.8024 37.9961 23.8311C38.0767 23.5793 38.4424 22.7877 38.2952 22.5553C38.2248 22.3229 37.9915 22.1886 37.8619 22.0118C37.6999 21.7932 37.5397 21.5044 37.4277 21.2516C37.1369 20.5933 36.861 19.8276 36.5545 19.1619C36.4082 18.8433 36.161 18.5221 35.9573 18.2397C35.7323 17.9267 35.4796 17.6962 35.3055 17.3175C35.2435 17.1832 35.1592 16.9675 35.2509 16.8286C35.2805 16.7351 35.3212 16.6962 35.4138 16.6657C35.5712 16.5434 36.0092 16.7055 36.174 16.774C36.6092 16.9545 36.9721 17.1267 37.3406 17.3712C37.5175 17.4888 37.6962 17.7156 37.91 17.7786C37.9915 17.7786 38.073 17.7786 38.1545 17.7786C38.5369 17.8665 38.9646 17.8064 39.3211 17.9147C39.9526 18.1063 40.5174 18.4045 41.0303 18.7285C42.5951 19.7165 43.8737 21.122 44.7487 22.7997C44.8894 23.07 44.9505 23.3274 45.0737 23.6135C45.3237 24.1913 45.6394 24.7857 45.8875 25.3505C46.1357 25.9144 46.3783 26.4829 46.7292 26.9523C46.9143 27.1986 47.6273 27.331 47.9504 27.468C48.1773 27.5643 48.5495 27.6634 48.7643 27.793C49.1754 28.0412 49.5735 28.3365 49.9578 28.6069C50.154 28.743 50.7457 29.0402 50.7753 29.2856Z" fill="#00796B"/>
<path d="M38.6451 18.947C38.4461 18.9433 38.3053 18.9683 38.1562 19.0017C38.1562 19.0109 38.1562 19.0193 38.1562 19.0295C38.1655 19.0295 38.1738 19.0295 38.184 19.0295C38.2794 19.2239 38.4461 19.3507 38.5636 19.5183C38.6544 19.7081 38.7442 19.8979 38.8349 20.0877C38.8442 20.0785 38.8525 20.0702 38.8618 20.0609C39.0294 19.9424 39.1071 19.7535 39.1062 19.4637C39.0386 19.3924 39.0284 19.3035 38.9701 19.2193C38.8923 19.1054 38.7423 19.0415 38.6451 18.947Z" fill="#00796B"/>
<defs>
<linearGradient id="paint0_linear_544_307" x1="30" y1="0" x2="30" y2="60" gradientUnits="userSpaceOnUse">
<stop stop-color="white"/>
<stop offset="1" stop-color="#B3B3B3"/>
</linearGradient>
</defs>
</svg>
