<svg width="60" height="60" viewBox="0 0 60 60" fill="none" xmlns="http://www.w3.org/2000/svg">
<rect width="60" height="60" rx="5" fill="url(#paint0_linear_544_292)"/>
<path d="M29.7476 50C29.2116 50 28.6803 49.8599 28.2107 49.5892L23.3179 46.6918C22.5867 46.2828 22.9434 46.1381 23.1843 46.055C24.1592 45.7141 24.3562 45.6366 25.3964 45.0456C25.5056 44.983 25.6485 45.0054 25.7605 45.0717L29.5198 47.3024C29.6551 47.3762 29.8484 47.3762 29.9736 47.3024L44.6305 38.8418C44.7659 38.7643 44.8546 38.6074 44.8546 38.4459V21.5331C44.8546 21.3641 44.7668 21.2137 44.6277 21.1297L29.9773 12.6756C29.8419 12.5953 29.6617 12.5953 29.5263 12.6756L14.8778 21.1288C14.7359 21.2091 14.6453 21.3669 14.6453 21.5284V38.4422C14.6453 38.6037 14.7331 38.7578 14.8731 38.8343L18.8873 41.1528C21.0666 42.2425 22.3981 40.9586 22.3981 39.6672V22.9748C22.3981 22.7367 22.5849 22.5527 22.8239 22.5527H24.6802C24.9118 22.5527 25.1022 22.7357 25.1022 22.9748V39.6756C25.1022 42.5814 23.5177 44.251 20.7622 44.251C19.9144 44.251 19.2468 44.251 17.383 43.334L13.5379 41.1183C12.5873 40.5674 12 39.5393 12 38.4431V21.5293C12 20.4285 12.5873 19.4014 13.5369 18.8579L28.2097 10.3936C29.1379 9.86881 30.3704 9.86881 31.292 10.3936L45.9461 18.8617C46.891 19.4079 47.4821 20.4322 47.4821 21.5331V38.4468C47.4821 39.544 46.891 40.5674 45.9452 41.1183L31.2911 49.5817C30.8214 49.8534 30.2892 49.9925 29.7467 49.9925" fill="black"/>
<path d="M34.2751 38.345C27.8622 38.345 26.5176 35.401 26.5176 32.9322C26.5176 32.6978 26.7071 32.5101 26.9424 32.5101H28.8361C29.0452 32.5101 29.2217 32.6623 29.2544 32.8687C29.5401 34.7978 30.3917 35.7707 34.2695 35.7707C37.3583 35.7707 38.6721 35.0732 38.6721 33.4345C38.6721 32.4914 38.2976 31.7911 33.4991 31.3215C29.485 30.9255 27.005 30.0413 27.005 26.8311C27.005 23.8739 29.4999 22.1129 33.6784 22.1129C38.3714 22.1129 40.6973 23.7423 40.9905 27.2419C41.0017 27.3633 40.9579 27.48 40.8766 27.5688C40.7963 27.6528 40.6824 27.7041 40.5648 27.7041H38.6609C38.4629 27.7041 38.2902 27.565 38.25 27.3736C37.7915 25.3446 36.6832 24.6956 33.671 24.6956C30.2992 24.6956 29.9071 25.8693 29.9071 26.7499C29.9071 27.8171 30.3693 28.129 34.9184 28.7313C39.4237 29.3289 41.5629 30.173 41.5629 33.3393C41.5629 36.5308 38.899 38.3619 34.2545 38.3619" fill="black"/>
<defs>
<linearGradient id="paint0_linear_544_292" x1="30" y1="0" x2="30" y2="60" gradientUnits="userSpaceOnUse">
<stop stop-color="#404040"/>
<stop offset="1" stop-color="#1A1A1A"/>
</linearGradient>
</defs>
</svg>
