<svg width="60" height="60" viewBox="0 0 60 60" fill="none" xmlns="http://www.w3.org/2000/svg">
<path d="M0 5C0 2.23858 2.23858 0 5 0H55C57.7614 0 60 2.23858 60 5V55C60 57.7614 57.7614 60 55 60H5C2.23858 60 0 57.7614 0 55V5Z" fill="url(#paint0_linear_1012_137)"/>
<path d="M29.7465 50C29.2106 50 28.6793 49.8599 28.2097 49.5892L23.3172 46.6918C22.5861 46.2828 22.9428 46.1381 23.1837 46.055C24.1584 45.7141 24.3554 45.6366 25.3956 45.0456C25.5048 44.983 25.6477 45.0054 25.7597 45.0717L29.5187 47.3024C29.6541 47.3762 29.8474 47.3762 29.9725 47.3024L44.6285 38.8418C44.7639 38.7643 44.8526 38.6074 44.8526 38.4459V21.5331C44.8526 21.3641 44.7648 21.2137 44.6257 21.1297L29.9762 12.6756C29.8408 12.5953 29.6606 12.5953 29.5253 12.6756L14.8776 21.1288C14.7357 21.2091 14.6451 21.3669 14.6451 21.5284V38.4422C14.6451 38.6037 14.7329 38.7578 14.8729 38.8343L18.8869 41.1528C21.0661 42.2425 22.3975 40.9586 22.3975 39.6672V22.9748C22.3975 22.7367 22.5842 22.5527 22.8233 22.5527H24.6794C24.911 22.5527 25.1015 22.7357 25.1015 22.9748V39.6756C25.1015 42.5814 23.517 44.251 20.7617 44.251C19.9139 44.251 19.2463 44.251 17.3827 43.334L13.5378 41.1183C12.5873 40.5674 12 39.5393 12 38.4431V21.5294C12 20.4285 12.5873 19.4014 13.5368 18.8579L28.2088 10.3936C29.1368 9.86881 30.3693 9.86881 31.2908 10.3936L45.9441 18.8617C46.889 19.4079 47.48 20.4322 47.48 21.5331V38.4468C47.48 39.544 46.889 40.5674 45.9432 41.1183L31.2899 49.5817C30.8203 49.8534 30.2881 49.9925 29.7456 49.9925" fill="#B3B3B3"/>
<path d="M34.274 38.3451C27.8615 38.3451 26.517 35.401 26.517 32.9322C26.517 32.6978 26.7065 32.5101 26.9418 32.5101H28.8353C29.0445 32.5101 29.2209 32.6623 29.2536 32.8687C29.5393 34.7978 30.3908 35.7707 34.2684 35.7707C37.357 35.7707 38.6707 35.0732 38.6707 33.4345C38.6707 32.4915 38.2963 31.7912 33.4981 31.3215C29.4842 30.9256 27.0044 30.0413 27.0044 26.8311C27.0044 23.874 29.4992 22.1129 33.6774 22.1129C38.3701 22.1129 40.6959 23.7423 40.9891 27.242C41.0003 27.3634 40.9564 27.4801 40.8752 27.5688C40.7949 27.6528 40.681 27.7042 40.5633 27.7042H38.6595C38.4616 27.7042 38.2889 27.565 38.2487 27.3736C37.7903 25.3446 36.682 24.6957 33.6699 24.6957C30.2984 24.6957 29.9062 25.8694 29.9062 26.7499C29.9062 27.8172 30.3684 28.129 34.9173 28.7313C39.4223 29.3289 41.5614 30.173 41.5614 33.3393C41.5614 36.5308 38.8976 38.3619 34.2535 38.3619" fill="#B3B3B3"/>
<defs>
<linearGradient id="paint0_linear_1012_137" x1="30" y1="0" x2="30" y2="60" gradientUnits="userSpaceOnUse">
<stop stop-color="#EDEDED"/>
<stop offset="0.0001" stop-color="#DEDEDE"/>
<stop offset="1" stop-color="#DEDEDE"/>
</linearGradient>
</defs>
</svg>
