<svg width="60" height="60" viewBox="0 0 60 60" fill="none" xmlns="http://www.w3.org/2000/svg">
<path d="M0 5C0 2.23858 2.23858 0 5 0H55C57.7614 0 60 2.23858 60 5V55C60 57.7614 57.7614 60 55 60H5C2.23858 60 0 57.7614 0 55V5Z" fill="url(#paint0_linear_1016_156)"/>
<g clip-path="url(#clip0_1016_156)">
<path d="M10 14.4444C10 11.99 11.99 10 14.4444 10H45.5556C48.01 10 50 11.99 50 14.4444V45.5556C50 48.01 48.01 50 45.5556 50H14.4444C11.99 50 10 48.01 10 45.5556V14.4444Z" fill="#B3B3B3"/>
<path d="M25.5736 24.6378H23.3491V29.5645H25.5413C26.1491 29.5645 26.6191 29.3656 26.9525 28.9678C27.2858 28.57 27.4513 27.9912 27.4513 27.2312C27.4513 26.4423 27.2813 25.8156 26.9413 25.3489C26.6013 24.8823 26.1447 24.6456 25.5736 24.6378Z" fill="#DEDEDE"/>
<path d="M13.3335 13.3333V46.6666H46.6668V13.3333H13.3335ZM29.2946 30.8766C28.3768 31.7744 27.1035 32.2222 25.4757 32.2222H23.3491V37.7778H20.1591V21.9789H25.5413C27.1035 21.9789 28.3502 22.4644 29.2791 23.4333C30.2079 24.4022 30.6735 25.6611 30.6735 27.2089C30.6735 28.7566 30.2135 29.9789 29.2946 30.8766ZM39.6468 37.04C38.859 37.6766 37.8235 37.9944 36.5435 37.9944C35.6824 37.9944 34.9224 37.8266 34.2646 37.49C33.6068 37.1533 33.0902 36.6844 32.7179 36.0844C32.3457 35.4844 32.1591 34.8366 32.1591 34.1422H35.0779C35.0935 34.6766 35.2168 35.0789 35.4524 35.3466C35.6879 35.6144 36.0724 35.7478 36.6079 35.7478C37.4324 35.7478 37.8446 35.3755 37.8446 34.63C37.8446 34.37 37.7202 34.1289 37.4702 33.9089C37.2202 33.6889 36.6668 33.3911 35.8057 33.0144C34.5402 32.5011 33.6702 31.97 33.1957 31.4189C32.7213 30.8678 32.4846 30.1855 32.4846 29.3678C32.4846 28.34 32.8557 27.4922 33.5968 26.8233C34.3379 26.1544 35.3213 25.82 36.5424 25.82C37.8291 25.82 38.8602 26.1533 39.6346 26.8178C40.4091 27.4822 40.7957 28.3766 40.7957 29.4978H37.7246C37.7246 28.5433 37.3279 28.0655 36.5313 28.0655C36.2057 28.0655 35.9391 28.1666 35.7279 28.3689C35.5168 28.5711 35.4135 28.8544 35.4135 29.2155C35.4135 29.4755 35.529 29.7055 35.7613 29.9044C35.9935 30.1033 36.5379 30.3878 37.4002 30.7566C38.6524 31.22 39.5357 31.7355 40.0535 32.3033C40.5713 32.8711 40.829 33.6078 40.829 34.5111C40.829 35.5611 40.4346 36.4033 39.6468 37.04Z" fill="#DEDEDE"/>
</g>
<defs>
<linearGradient id="paint0_linear_1016_156" x1="30" y1="0" x2="30" y2="60" gradientUnits="userSpaceOnUse">
<stop stop-color="#EDEDED"/>
<stop offset="0.0001" stop-color="#DEDEDE"/>
<stop offset="1" stop-color="#DEDEDE"/>
</linearGradient>
<clipPath id="clip0_1016_156">
<rect width="40" height="40" fill="white" transform="translate(10 10)"/>
</clipPath>
</defs>
</svg>
