<svg width="60" height="60" viewBox="0 0 60 60" fill="none" xmlns="http://www.w3.org/2000/svg">
<rect width="60" height="60" rx="5" fill="url(#paint0_linear_544_290)"/>
<path d="M29.5652 10C22.0007 10 20.4348 13.9063 20.4348 16.1685V20.4348H29.1304V21.3043H16.1685C13.2982 21.3043 10 23.5666 10 30C10 36.4334 13.2982 38.6957 16.1685 38.6957H21.3043V33.4783C21.3043 31.5659 22.8702 30 24.7826 30H35.2174C36.695 30 37.8261 28.8689 37.8261 27.3913V16.1685C37.8261 13.125 34.9558 10 29.5652 10ZM25.6522 14.3478C26.6101 14.3478 27.3913 15.1291 27.3913 16.087C27.3913 17.0448 26.6101 17.8261 25.6522 17.8261C24.6943 17.8261 23.913 17.0448 23.913 16.087C23.913 15.1291 24.6943 14.3478 25.6522 14.3478ZM38.6957 21.3043V27.3913C38.6957 29.3037 37.1298 30.8696 35.2174 30.8696H24.7826C23.305 30.8696 22.1739 32.0007 22.1739 33.4783V43.8315C22.1739 46.875 25.0442 50 30.4348 50C37.9993 50 39.5652 46.0938 39.5652 43.8315V39.5652H30.8696V38.6957H43.8315C46.7018 38.6957 50 36.4334 50 30C50 23.5666 46.7018 21.3043 43.8315 21.3043H38.6957ZM34.3478 42.1739C35.3057 42.1739 36.087 42.9552 36.087 43.913C36.087 44.8709 35.3057 45.6522 34.3478 45.6522C33.3899 45.6522 32.6087 44.8709 32.6087 43.913C32.6087 42.9552 33.3899 42.1739 34.3478 42.1739Z" fill="black"/>
<defs>
<linearGradient id="paint0_linear_544_290" x1="30" y1="0" x2="30" y2="60" gradientUnits="userSpaceOnUse">
<stop stop-color="#404040"/>
<stop offset="1" stop-color="#1A1A1A"/>
</linearGradient>
</defs>
</svg>
