<svg width="60" height="60" viewBox="0 0 60 60" fill="none" xmlns="http://www.w3.org/2000/svg">
<path d="M0 5C0 2.23858 2.23858 0 5 0H55C57.7614 0 60 2.23858 60 5V55C60 57.7614 57.7614 60 55 60H5C2.23858 60 0 57.7614 0 55V5Z" fill="url(#paint0_linear_1012_133)"/>
<path d="M30.5099 10.0001C28.873 10.0053 27.7383 10.1496 26.3667 10.3864C22.3162 11.0917 21.5783 12.5727 21.5783 15.3022V19.4737H31.052V21.579H16.6394C13.8647 21.579 11.4363 22.8863 10.6668 26.02C9.79732 29.6168 9.75837 31.8695 10.6668 35.6252C11.3563 38.4263 12.8752 40.5263 15.651 40.5263H19.4741V35.1537C19.4741 32.0316 22.3015 28.9474 25.5415 28.9474H33.1583C35.8141 28.9474 38.4214 26.9874 38.4214 24.34V15.3022C38.4214 12.7348 36.5699 10.8148 33.9814 10.3843C34.0457 10.378 32.133 9.99376 30.5099 10.0001ZM25.2636 14.2106C26.1278 14.2106 26.8425 14.9232 26.8425 15.7916C26.8425 16.6685 26.1278 17.3685 25.2636 17.3685C24.3825 17.3685 23.6846 16.6695 23.6846 15.7916C23.6846 14.9264 24.3825 14.2106 25.2636 14.2106Z" fill="#B3B3B3"/>
<path d="M29.4899 49.9999C31.1268 49.9947 32.2615 49.8505 33.6331 49.6136C37.6836 48.9084 38.4215 47.4273 38.4215 44.6978V40.5263H28.9478V38.421H43.3615C46.1362 38.421 48.5646 37.1137 49.3341 33.98C50.2036 30.3832 50.2425 28.1305 49.3341 24.3748C48.6436 21.5737 47.1246 19.4737 44.3488 19.4737H40.5257V24.8463C40.5257 27.9684 37.6983 31.0526 34.4583 31.0526H26.8415C24.1858 31.0526 21.5784 33.0126 21.5784 35.66V44.6978C21.5784 47.2652 23.43 49.1852 26.0184 49.6157C25.9542 49.622 27.8668 50.0063 29.4899 49.9999ZM34.7373 45.7894C33.8731 45.7894 33.1584 45.0768 33.1584 44.2084C33.1584 43.3315 33.8731 42.6315 34.7373 42.6315C35.6183 42.6315 36.3162 43.3305 36.3162 44.2084C36.3162 45.0736 35.6173 45.7894 34.7373 45.7894Z" fill="#B3B3B3"/>
<defs>
<linearGradient id="paint0_linear_1012_133" x1="30" y1="0" x2="30" y2="60" gradientUnits="userSpaceOnUse">
<stop stop-color="#EDEDED"/>
<stop offset="0.0001" stop-color="#DEDEDE"/>
<stop offset="1" stop-color="#DEDEDE"/>
</linearGradient>
</defs>
</svg>
