<svg width="60" height="60" viewBox="0 0 60 60" fill="none" xmlns="http://www.w3.org/2000/svg">
<rect width="60" height="60" rx="5" fill="url(#paint0_linear_544_298)"/>
<path fill-rule="evenodd" clip-rule="evenodd" d="M39.0018 10.003C38.2595 9.97808 37.4826 10.1075 36.7036 10.36C35.1456 10.8652 33.513 11.8495 31.8375 13.2124C31.1809 13.7465 30.5184 14.357 29.8535 15.0048C29.2034 14.3735 28.5544 13.7793 27.9123 13.257C26.2382 11.8952 24.61 10.9105 23.0556 10.4065C21.5011 9.90257 19.9544 9.88696 18.6841 10.6204C17.4138 11.3538 16.6542 12.7001 16.3134 14.2983C15.9726 15.8964 16.0101 17.7997 16.3524 19.9304C16.4713 20.6705 16.6409 21.4469 16.834 22.2379C16.1082 22.4579 15.4033 22.6892 14.7496 22.9445C12.777 23.715 11.1447 24.6367 9.95609 25.7336C8.76748 26.8304 8 28.1617 8 29.6234C8 31.0852 8.76748 32.4146 9.95609 33.5115C11.1447 34.6083 12.777 35.5319 14.7496 36.3024C15.4486 36.5754 16.2053 36.8212 16.9865 37.0536C16.7055 38.1035 16.4778 39.1224 16.3227 40.0882C15.9801 42.2206 15.9439 44.1241 16.2855 45.7259C16.6271 47.3277 17.3871 48.6816 18.6637 49.4186C19.9403 50.1557 21.4939 50.1376 23.0519 49.6325C24.6098 49.1274 26.2406 48.1449 27.9161 46.782C28.5666 46.2528 29.2247 45.6491 29.8833 45.0081C30.5454 45.653 31.2061 46.2595 31.8598 46.7913C33.534 48.1531 35.164 49.1359 36.7185 49.6399C38.2729 50.1439 39.8196 50.1595 41.0899 49.4261C42.3602 48.6927 43.118 47.3464 43.4588 45.7482C43.7996 44.15 43.762 42.2486 43.4197 40.1179C43.2642 39.1495 43.0364 38.1273 42.7541 37.0741C43.5611 36.836 44.3417 36.5836 45.0616 36.3024C47.0343 35.5319 48.6665 34.6083 49.8551 33.5115C51.0437 32.4146 51.8112 31.0852 51.8112 29.6234C51.8112 28.1617 51.0437 26.8304 49.8551 25.7336C48.6665 24.6367 47.0343 23.715 45.0616 22.9445C44.3986 22.6855 43.6829 22.4512 42.9456 22.2286C43.1403 21.4328 43.3131 20.6508 43.4328 19.9062C43.7753 17.7738 43.8115 15.8685 43.4699 14.2667C43.1284 12.6648 42.3665 11.3128 41.0899 10.5757C40.4516 10.2072 39.7441 10.028 39.0018 10.003ZM38.9144 11.9405C39.3802 11.9533 39.7776 12.0641 40.1174 12.2604C40.7972 12.6528 41.2997 13.4167 41.5678 14.6739C41.8358 15.931 41.8266 17.6296 41.5101 19.5994C41.4018 20.2738 41.2445 20.9886 41.0657 21.721C39.1184 21.2523 36.9845 20.9046 34.7103 20.7002C33.5686 19.1185 32.3955 17.6776 31.2128 16.3994C31.8384 15.7887 32.4599 15.2176 33.0666 14.7241C34.6143 13.4651 36.0795 12.6084 37.3023 12.212C37.9137 12.0138 38.4486 11.9278 38.9144 11.9405ZM20.8485 11.9461C21.3169 11.933 21.853 12.0188 22.4661 12.2176C23.6924 12.6152 25.1603 13.4714 26.7093 14.7315C27.3038 15.2151 27.9114 15.7754 28.5241 16.3715C27.3326 17.6602 26.1498 19.1136 25.0005 20.7095C22.7359 20.9176 20.6107 21.2672 18.673 21.7377C18.4956 21.0094 18.3382 20.2983 18.2304 19.6273C17.9137 17.6558 17.9058 15.957 18.1746 14.6962C18.4435 13.4354 18.9501 12.6658 19.6361 12.2697C19.9792 12.0716 20.38 11.9592 20.8485 11.9461ZM29.8833 17.7698C30.6588 18.6137 31.4345 19.5373 32.2038 20.531C31.4479 20.4995 30.6827 20.4808 29.9056 20.4808C29.113 20.4808 28.3333 20.5001 27.5628 20.5328C28.3323 19.5383 29.1076 18.6144 29.8833 17.7698ZM29.9056 22.4034C31.2002 22.4034 32.4621 22.4566 33.6895 22.5466C34.534 23.7596 35.3594 25.0465 36.1458 26.4085C36.8368 27.6054 37.4621 28.8004 38.0312 29.9805C37.456 31.1762 36.8203 32.3874 36.1197 33.6007C35.5031 34.6688 34.8591 35.6832 34.2045 36.6613C32.8181 36.7772 31.3815 36.8416 29.9056 36.8416C28.3942 36.8416 26.9253 36.7733 25.5081 36.652C24.8645 35.688 24.2314 34.6889 23.6246 33.6379C22.9256 32.4273 22.2929 31.2184 21.7187 30.0251C22.2953 28.825 22.9309 27.6094 23.6338 26.3918C24.4161 25.0369 25.239 23.7574 26.079 22.5503C27.3196 22.4583 28.5961 22.4034 29.9056 22.4034ZM36.1402 22.7846C37.7096 22.9804 39.1831 23.2522 40.5544 23.5785C40.1475 24.9124 39.6463 26.3057 39.039 27.7436C38.6447 26.9835 38.2363 26.2208 37.7951 25.4565C37.2603 24.5303 36.7034 23.6473 36.1402 22.7846ZM23.5688 22.7994C23.0175 23.6461 22.475 24.5119 21.9511 25.4193C21.5042 26.1934 21.0873 26.9664 20.6886 27.7362C20.0865 26.3069 19.5883 24.9216 19.1843 23.5953C20.5454 23.2684 22.0103 22.9975 23.5688 22.7994ZM42.438 24.0843C43.1128 24.2885 43.7646 24.5016 44.3625 24.7351C46.181 25.4453 47.6194 26.2864 48.5517 27.1467C49.484 28.0071 49.8886 28.8275 49.8886 29.6234C49.8886 30.4194 49.484 31.2398 48.5517 32.1002C47.6194 32.9605 46.181 33.8016 44.3625 34.5118C43.6981 34.7713 42.9682 35.0066 42.2093 35.2295C41.6679 33.5552 40.977 31.8083 40.1546 30.0251C41.1001 27.9777 41.8639 25.9816 42.438 24.0843ZM17.3416 24.0936C17.9091 25.9719 18.6631 27.9483 19.5952 29.9749C18.7675 31.7685 18.0731 33.5253 17.5294 35.2091C16.7973 34.992 16.0921 34.7631 15.4488 34.5118C13.6303 33.8016 12.1918 32.9605 11.2595 32.1002C10.3272 31.2398 9.92262 30.4194 9.92262 29.6234C9.92262 28.8275 10.3272 28.0071 11.2595 27.1467C12.1918 26.2864 13.6303 25.4453 15.4488 24.7351C16.0374 24.5052 16.6783 24.2951 17.3416 24.0936ZM29.9056 25.2501C27.288 25.2501 25.1455 27.3926 25.1455 30.0102C25.1455 32.6278 27.288 34.7703 29.9056 34.7703C32.5232 34.7703 34.6657 32.6278 34.6657 30.0102C34.6657 27.3926 32.5232 25.2501 29.9056 25.2501ZM20.7109 32.2619C21.1114 33.0356 21.5279 33.8119 21.9771 34.5899C22.3286 35.1987 22.6875 35.7912 23.0519 36.3731C21.7733 36.1958 20.558 35.9713 19.4167 35.7056C19.7797 34.594 20.2139 33.4401 20.7109 32.2619ZM39.0632 32.2619C39.5622 33.4429 39.9966 34.5986 40.361 35.713C39.2161 35.9785 37.9971 36.2022 36.7147 36.3787C37.0839 35.7897 37.4484 35.1897 37.8043 34.5732C38.2503 33.8009 38.6652 33.0299 39.0632 32.2619ZM18.8682 37.5538C20.5912 37.962 22.4587 38.2755 24.439 38.4798C25.7609 40.3918 27.1381 42.1098 28.5241 43.6117C27.9043 44.216 27.29 44.7832 26.6888 45.2722C25.1411 46.5311 23.674 47.3859 22.4513 47.7824C21.2285 48.1788 20.3159 48.1265 19.6361 47.734C18.9563 47.3415 18.4557 46.5777 18.1877 45.3205C17.9196 44.0634 17.927 42.3667 18.2434 40.3968C18.387 39.5032 18.6015 38.5463 18.8682 37.5538ZM40.9114 37.5612C41.1803 38.5598 41.3955 39.5202 41.5399 40.4191C41.8566 42.3907 41.8645 44.0895 41.5957 45.3503C41.3268 46.6111 40.824 47.3825 40.1379 47.7786C39.4518 48.1748 38.5305 48.2264 37.3042 47.8288C36.0779 47.4313 34.6101 46.575 33.061 45.3149C32.4555 44.8224 31.837 44.2507 31.2128 43.6415C32.6081 42.1337 33.995 40.4069 35.3258 38.4835C37.311 38.2806 39.1837 37.9689 40.9114 37.5612ZM26.9231 38.675C27.9006 38.7283 28.891 38.7643 29.9056 38.7643C30.8867 38.7643 31.8449 38.7304 32.7914 38.6806C31.8239 39.986 30.8377 41.1727 29.8554 42.2413C28.8737 41.1704 27.8894 39.9816 26.9231 38.675Z" fill="#4CA8CF"/>
<defs>
<linearGradient id="paint0_linear_544_298" x1="30" y1="0" x2="30" y2="60" gradientUnits="userSpaceOnUse">
<stop stop-color="#354C57"/>
<stop offset="1" stop-color="#131C20"/>
</linearGradient>
</defs>
</svg>
