<svg width="60" height="60" viewBox="0 0 60 60" fill="none" xmlns="http://www.w3.org/2000/svg">
<path d="M0 5C0 2.23858 2.23858 0 5 0H55C57.7614 0 60 2.23858 60 5V55C60 57.7614 57.7614 60 55 60H5C2.23858 60 0 57.7614 0 55V5Z" fill="url(#paint0_linear_1010_79)"/>
<path fill-rule="evenodd" clip-rule="evenodd" d="M39.0009 12.0028C38.2587 11.98 37.4818 12.0981 36.7028 12.3287C35.1448 12.7899 33.5123 13.6886 31.8369 14.9329C31.1803 15.4206 30.5177 15.978 29.8529 16.5695C29.2028 15.993 28.5539 15.4506 27.9118 14.9737C26.2377 13.7303 24.6096 12.8313 23.0552 12.3712C21.5007 11.911 19.9541 11.8968 18.6838 12.5664C17.4136 13.236 16.6539 14.4652 16.3132 15.9243C15.9724 17.3835 16.0099 19.1212 16.3522 21.0665C16.4711 21.7422 16.6407 22.4511 16.8338 23.1733C16.1079 23.3741 15.4031 23.5853 14.7494 23.8184C12.7768 24.5219 11.1446 25.3634 9.95604 26.3649C8.76746 27.3663 8 28.5818 8 29.9164C8 31.251 8.76746 32.4647 9.95604 33.4662C11.1446 34.4676 12.7768 35.3109 14.7494 36.0143C15.4484 36.2636 16.2051 36.488 16.9862 36.7002C16.7053 37.6588 16.4776 38.589 16.3225 39.4707C15.9799 41.4177 15.9437 43.1555 16.2853 44.618C16.6268 46.0805 17.3868 47.3166 18.6634 47.9895C19.9399 48.6625 21.4935 48.6459 23.0514 48.1848C24.6094 47.7236 26.2401 46.8266 27.9155 45.5823C28.566 45.0991 29.2241 44.5479 29.8827 43.9627C30.5447 44.5515 31.2054 45.1052 31.8592 45.5908C33.5332 46.8341 35.1632 47.7314 36.7177 48.1916C38.2721 48.6517 39.8187 48.6659 41.089 47.9963C42.3593 47.3267 43.117 46.0975 43.4578 44.6384C43.7986 43.1792 43.761 41.4433 43.4188 39.4979C43.2632 38.6137 43.0354 37.6804 42.7531 36.7188C43.5601 36.5015 44.3407 36.271 45.0606 36.0143C47.0332 35.3109 48.6654 34.4676 49.854 33.4662C51.0425 32.4647 51.81 31.251 51.81 29.9164C51.81 28.5818 51.0425 27.3663 49.854 26.3649C48.6654 25.3634 47.0332 24.5219 45.0606 23.8184C44.3975 23.582 43.6819 23.3681 42.9446 23.1648C43.1393 22.4382 43.3122 21.7242 43.4318 21.0445C43.7743 19.0975 43.8105 17.358 43.469 15.8955C43.1274 14.433 42.3655 13.1986 41.089 12.5257C40.4507 12.1892 39.7432 12.0256 39.0009 12.0028ZM38.9136 13.7717C39.3793 13.7834 39.7767 13.8846 40.1166 14.0637C40.7963 14.4221 41.2988 15.1195 41.5668 16.2673C41.8349 17.4151 41.8256 18.9659 41.5092 20.7643C41.4009 21.3801 41.2436 22.0327 41.0648 22.7014C39.1175 22.2735 36.9837 21.956 34.7096 21.7694C33.5679 20.3253 32.3948 19.0097 31.2121 17.8427C31.8377 17.2851 32.4592 16.7637 33.0659 16.3131C34.6136 15.1637 36.0788 14.3815 37.3015 14.0196C37.9129 13.8386 38.4478 13.7601 38.9136 13.7717ZM20.8481 13.7768C21.3166 13.7649 21.8526 13.8432 22.4657 14.0247C23.692 14.3877 25.1598 15.1695 26.7088 16.3199C27.3033 16.7614 27.9109 17.273 28.5235 17.8172C27.332 18.9938 26.1493 20.3208 25 21.7778C22.7355 21.9679 20.6104 22.2871 18.6727 22.7166C18.4953 22.0517 18.3379 21.4024 18.2301 20.7898C17.9134 18.9898 17.9055 17.4388 18.1744 16.2876C18.4432 15.1365 18.9498 14.4339 19.6358 14.0722C19.9788 13.8914 20.3796 13.7888 20.8481 13.7768ZM29.8827 19.0939C30.6582 19.8644 31.4339 20.7076 32.2032 21.6149C31.4473 21.5861 30.6821 21.569 29.905 21.569C29.1124 21.569 28.3327 21.5866 27.5622 21.6166C28.3317 20.7086 29.107 19.865 29.8827 19.0939ZM29.905 23.3244C31.1996 23.3244 32.4614 23.373 33.6888 23.4551C34.5333 24.5626 35.3586 25.7375 36.145 26.9811C36.8359 28.0738 37.4612 29.1649 38.0304 30.2423C37.4552 31.3341 36.8195 32.4398 36.1189 33.5476C35.5023 34.5228 34.8584 35.449 34.2038 36.342C32.8174 36.4478 31.3809 36.5066 29.905 36.5066C28.3936 36.5066 26.9248 36.4443 25.5076 36.3335C24.864 35.4533 24.2309 34.5412 23.6241 33.5816C22.9252 32.4763 22.2925 31.3726 21.7183 30.2831C22.2949 29.1874 22.9305 28.0775 23.6334 26.9659C24.4157 25.7288 25.2386 24.5606 26.0785 23.4585C27.319 23.3745 28.5955 23.3244 29.905 23.3244ZM36.1394 23.6724C37.7087 23.8512 39.1822 24.0994 40.5535 24.3973C40.1466 25.6152 39.6454 26.8873 39.0381 28.2C38.6438 27.5061 38.2355 26.8097 37.7942 26.1119C37.2595 25.2663 36.7026 24.4601 36.1394 23.6724ZM23.5683 23.686C23.017 24.459 22.4746 25.2495 21.9507 26.078C21.5038 26.7847 21.087 27.4904 20.6882 28.1933C20.0862 26.8884 19.588 25.6235 19.184 24.4126C20.5451 24.1141 22.0099 23.8668 23.5683 23.686ZM42.437 24.8591C43.1119 25.0455 43.7636 25.2401 44.3614 25.4532C46.1799 26.1017 47.6183 26.8696 48.5506 27.6551C49.4828 28.4406 49.8874 29.1897 49.8874 29.9164C49.8874 30.6431 49.4828 31.3921 48.5506 32.1776C47.6183 32.9631 46.1799 33.731 44.3614 34.3795C43.6971 34.6164 42.9672 34.8312 42.2083 35.0348C41.667 33.5061 40.976 31.9112 40.1537 30.2831C41.0992 28.4138 41.863 26.5913 42.437 24.8591ZM17.3414 24.8676C17.9088 26.5825 18.6628 28.3869 19.5949 30.2372C18.7672 31.8748 18.0728 33.4788 17.5292 35.0161C16.7971 34.8179 16.0919 34.6089 15.4486 34.3795C13.6301 33.731 12.1917 32.9631 11.2594 32.1776C10.3272 31.3921 9.92257 30.6431 9.92257 29.9164C9.92257 29.1897 10.3272 28.4406 11.2594 27.6551C12.1917 26.8696 13.6301 26.1017 15.4486 25.4532C16.0372 25.2433 16.678 25.0516 17.3414 24.8676ZM29.905 25.9235C27.2874 25.9235 25.1451 27.8796 25.1451 30.2695C25.1451 32.6594 27.2874 34.6155 29.905 34.6155C32.5226 34.6155 34.6649 32.6594 34.6649 30.2695C34.6649 27.8796 32.5226 25.9235 29.905 25.9235ZM20.7105 32.3253C21.111 33.0317 21.5275 33.7404 21.9767 34.4508C22.3282 35.0066 22.6871 35.5476 23.0514 36.0788C21.773 35.917 20.5577 35.712 19.4164 35.4694C19.7793 34.4545 20.2135 33.401 20.7105 32.3253ZM39.0623 32.3253C39.5613 33.4036 39.9957 34.4587 40.3601 35.4762C39.2153 35.7185 37.9962 35.9228 36.7139 36.0839C37.0831 35.5462 37.4476 34.9984 37.8035 34.4355C38.2494 33.7304 38.6643 33.0265 39.0623 32.3253ZM18.8679 37.1568C20.5908 37.5295 22.4583 37.8158 24.4385 38.0023C25.7604 39.7479 27.1375 41.3165 28.5235 42.6878C27.9037 43.2395 27.2895 43.7573 26.6883 44.2038C25.1407 45.3532 23.6736 46.1337 22.4509 46.4956C21.2281 46.8575 20.3156 46.8098 19.6358 46.4515C18.956 46.0931 18.4554 45.3957 18.1874 44.2479C17.9193 43.1001 17.9267 41.551 18.2432 39.7525C18.3867 38.9367 18.6012 38.063 18.8679 37.1568ZM40.9105 37.1636C41.1794 38.0753 41.3945 38.9522 41.539 39.7729C41.8557 41.573 41.8636 43.124 41.5947 44.2751C41.3259 45.4262 40.8231 46.1306 40.137 46.4922C39.451 46.8539 38.5296 46.901 37.3034 46.538C36.0771 46.1751 34.6093 45.3933 33.0603 44.2428C32.4548 43.7931 31.8363 43.2711 31.2121 42.7149C32.6074 41.3383 33.9942 39.7618 35.325 38.0057C37.3102 37.8204 39.1829 37.5359 40.9105 37.1636ZM26.9226 38.1805C27.9001 38.2292 28.8904 38.262 29.905 38.262C30.886 38.262 31.8443 38.2311 32.7907 38.1856C31.8232 39.3774 30.837 40.4609 29.8548 41.4366C28.8732 40.4589 27.8888 39.3734 26.9226 38.1805Z" fill="#B3B3B3"/>
<defs>
<linearGradient id="paint0_linear_1010_79" x1="30" y1="0" x2="30" y2="60" gradientUnits="userSpaceOnUse">
<stop stop-color="#EDEDED"/>
<stop offset="0.0001" stop-color="#DEDEDE"/>
<stop offset="1" stop-color="#DEDEDE"/>
</linearGradient>
</defs>
</svg>
