<svg width="60" height="60" viewBox="0 0 60 60" fill="none" xmlns="http://www.w3.org/2000/svg">
<path d="M0 5C0 2.23858 2.23858 0 5 0H55C57.7614 0 60 2.23858 60 5V55C60 57.7614 57.7614 60 55 60H5C2.23858 60 0 57.7614 0 55V5Z" fill="url(#paint0_linear_1515_195)"/>
<path d="M45.8671 32.9565C44.3291 32.9645 42.9971 33.3335 41.8811 33.8845C41.4731 33.0695 41.0591 32.3525 40.9901 31.8195C40.9091 31.1975 40.8151 30.8255 40.9131 30.0845C41.0111 29.3435 41.4401 28.2935 41.4341 28.2145C41.4281 28.1355 41.3381 27.7585 40.4511 27.7515C39.5641 27.7455 38.8051 27.9225 38.7161 28.1565C38.6271 28.3905 38.4561 28.9175 38.3501 29.4675C38.1951 30.2715 36.5791 33.1405 35.6621 34.6405C35.3621 34.0545 35.1071 33.5385 35.0541 33.1305C34.9731 32.5085 34.8791 32.1365 34.9771 31.3955C35.0751 30.6545 35.5041 29.6045 35.4981 29.5255C35.4921 29.4465 35.4021 29.0695 34.5151 29.0625C33.6281 29.0565 32.8691 29.2335 32.7801 29.4675C32.6911 29.7015 32.5951 30.2485 32.4141 30.7785C32.2321 31.3075 30.0851 36.0925 29.5221 37.3335C29.2351 37.9655 28.9861 38.4735 28.8101 38.8195L28.8091 38.8175C28.8091 38.8175 28.7981 38.8405 28.7801 38.8795C28.6291 39.1745 28.5401 39.3375 28.5401 39.3375C28.5401 39.3375 28.5411 39.3395 28.5431 39.3435C28.4231 39.5605 28.2951 39.7615 28.2321 39.7615C28.1881 39.7615 28.0991 39.1845 28.2511 38.3925C28.5711 36.7325 29.3381 34.1445 29.3311 34.0545C29.3271 34.0085 29.4741 33.5575 28.8301 33.3215C28.2041 33.0925 27.9811 33.4745 27.9241 33.4755C27.8691 33.4765 27.8281 33.6105 27.8281 33.6105C27.8281 33.6105 28.5251 30.6995 26.4981 30.6995C25.2301 30.6995 23.4741 32.0865 22.6091 33.3435C22.0631 33.6415 20.8941 34.2795 19.6551 34.9605C19.1791 35.2225 18.6931 35.4895 18.2321 35.7435C18.2011 35.7085 18.1691 35.6745 18.1371 35.6395C15.6781 33.0165 11.1341 31.1615 11.3261 27.6345C11.3961 26.3525 11.8421 22.9765 20.0591 18.8825C26.7901 15.5285 32.1791 16.4515 33.1101 18.4965C34.4401 21.4195 30.2301 26.8505 23.2401 27.6345C20.5771 27.9335 19.1741 26.9005 18.8251 26.5165C18.4581 26.1115 18.4031 26.0935 18.2661 26.1695C18.0431 26.2935 18.1841 26.6505 18.2661 26.8635C18.4751 27.4065 19.3311 28.3695 20.7911 28.8495C22.0761 29.2715 25.2031 29.5025 28.9841 28.0395C33.2201 26.4015 36.5271 21.8435 35.5551 18.0345C34.5671 14.1605 28.1431 12.8865 22.0631 15.0465C18.4401 16.3325 14.5231 18.3505 11.7061 20.9845C8.35713 24.1165 7.82313 26.8435 8.04313 27.9825C8.82513 32.0305 14.4041 34.6665 16.6381 36.6195C16.5281 36.6805 16.4241 36.7375 16.3301 36.7895C15.2101 37.3435 10.9571 39.5695 9.89313 41.9205C8.68613 44.5875 10.0851 46.5015 11.0111 46.7595C13.8801 47.5575 16.8241 46.1215 18.4071 43.7615C19.9891 41.4025 19.7961 38.3295 19.0701 36.9275C19.0611 36.9105 19.0511 36.8935 19.0421 36.8755C19.3311 36.7045 19.6261 36.5305 19.9181 36.3585C20.4881 36.0235 21.0481 35.7115 21.5331 35.4475C21.2611 36.1915 21.0621 37.0845 20.9591 38.3735C20.8371 39.8875 21.4581 41.8445 22.2701 42.6145C22.6281 42.9535 23.0581 42.9615 23.3301 42.9615C24.2751 42.9615 24.7061 42.1755 25.1811 41.2455C25.7631 40.1055 26.2801 38.7775 26.2801 38.7775C26.2801 38.7775 25.6321 42.3635 27.3981 42.3635C28.0421 42.3635 28.6891 41.5285 28.9781 41.1035C28.9791 41.1085 28.9791 41.1105 28.9791 41.1105C28.9791 41.1105 28.9961 41.0825 29.0291 41.0275C29.0961 40.9255 29.1341 40.8605 29.1341 40.8605C29.1341 40.8605 29.1351 40.8535 29.1371 40.8415C29.3961 40.3925 29.9701 39.3685 30.8301 37.6795C31.9421 35.4975 33.0081 32.7635 33.0081 32.7635C33.0081 32.7635 33.1071 33.4315 33.4321 34.5375C33.6231 35.1875 34.0291 35.9065 34.3501 36.5965C34.0921 36.9545 33.9341 37.1595 33.9341 37.1595C33.9341 37.1595 33.9351 37.1635 33.9381 37.1705C33.7321 37.4445 33.5011 37.7395 33.2591 38.0275C32.3811 39.0725 31.3361 40.2665 31.1961 40.6105C31.0311 41.0165 31.0701 41.3145 31.3891 41.5555C31.6221 41.7305 32.0361 41.7585 32.4691 41.7295C33.2581 41.6765 33.8121 41.4805 34.0861 41.3615C34.5131 41.2105 35.0101 40.9735 35.4761 40.6305C36.3371 39.9975 36.8561 39.0925 36.8061 37.8925C36.7781 37.2315 36.5681 36.5765 36.3011 35.9585C36.3791 35.8465 36.4571 35.7325 36.5361 35.6185C37.8931 33.6345 38.9461 31.4545 38.9461 31.4545C38.9461 31.4545 39.0451 32.1225 39.3701 33.2285C39.5341 33.7875 39.8591 34.3985 40.1511 34.9965C38.8751 36.0335 38.0841 37.2385 37.8091 38.0285C37.3011 39.4905 37.6991 40.1525 38.4451 40.3035C38.7831 40.3715 39.2611 40.2165 39.6201 40.0645C40.0671 39.9165 40.6041 39.6695 41.1061 39.3005C41.9671 38.6675 42.7951 37.7815 42.7451 36.5825C42.7221 36.0365 42.5741 35.4945 42.3731 34.9745C43.4551 34.5235 44.8551 34.2735 46.6391 34.4815C50.4661 34.9285 51.2161 37.3175 51.0731 38.3175C50.9291 39.3175 50.1271 39.8675 49.8581 40.0335C49.5901 40.1995 49.5081 40.2575 49.5301 40.3805C49.5631 40.5595 49.6871 40.5535 49.9161 40.5145C50.2311 40.4615 51.9251 39.7015 51.9981 37.8555C52.0891 35.5095 49.8441 32.9355 45.8671 32.9565ZM16.3701 42.9005C15.1021 44.2835 13.3321 44.8055 12.5721 44.3655C11.7521 43.8905 12.0771 41.8545 13.6321 40.3865C14.5801 39.4925 15.8041 38.6685 16.6161 38.1615C16.8011 38.0505 17.0721 37.8875 17.4021 37.6895C17.4571 37.6585 17.4881 37.6415 17.4881 37.6415L17.4871 37.6395C17.5511 37.6015 17.6161 37.5625 17.6831 37.5215C18.2501 39.6105 17.7011 41.4495 16.3701 42.9005ZM25.6051 36.6235C25.1641 37.6995 24.2401 40.4535 23.6771 40.3055C23.1941 40.1785 22.9001 38.0855 23.5811 36.0255C23.9231 34.9885 24.6551 33.7495 25.0851 33.2685C25.7771 32.4945 26.5391 32.2415 26.7241 32.5555C26.9591 32.9555 25.8821 35.9485 25.6051 36.6235ZM33.2341 40.2635C33.0471 40.3615 32.8751 40.4225 32.7961 40.3755C32.7371 40.3405 32.8731 40.2115 32.8731 40.2115C32.8731 40.2115 33.8271 39.1845 34.2031 38.7175C34.4221 38.4455 34.6751 38.1225 34.9511 37.7625C34.9531 37.7985 34.9541 37.8345 34.9541 37.8695C34.9521 39.0995 33.7641 39.9295 33.2341 40.2635ZM39.1111 38.9235C38.9711 38.8245 38.9951 38.5035 39.4541 37.5025C39.6341 37.1095 40.0461 36.4485 40.7601 35.8165C40.8431 36.0765 40.8931 36.3255 40.8921 36.5575C40.8831 38.1055 39.7791 38.6835 39.1111 38.9235Z" fill="#F06292"/>
<defs>
<linearGradient id="paint0_linear_1515_195" x1="30" y1="0" x2="30" y2="60" gradientUnits="userSpaceOnUse">
<stop offset="0.374" stop-color="#FFCFE5"/>
<stop offset="1" stop-color="white"/>
</linearGradient>
</defs>
</svg>
