<svg width="60" height="60" viewBox="0 0 60 60" fill="none" xmlns="http://www.w3.org/2000/svg">
<path d="M24.974 33.5C24.974 34.328 24.303 35 23.474 35C22.645 35 21.974 34.328 21.974 33.5V19.5C21.974 18.847 22.397 18.269 23.019 18.07C23.644 17.872 24.321 18.1 24.698 18.633L41.475 42.337C46.617 38.709 50 32.735 50 26C50 15 41 6 30 6C19 6 10 15 10 26C10 37 19 46 30 46C33.192 46 36.206 45.223 38.89 43.878L24.974 24.216V33.5ZM34.974 18.5C34.974 17.672 35.645 17 36.474 17C37.303 17 37.974 17.672 37.974 18.5V32.34L34.974 28.113V18.5Z" fill="#207FB4"/>
<rect width="60" height="60" rx="6" fill="url(#paint0_linear_1515_193)"/>
<path d="M45.8669 31.9561C44.3289 31.9641 42.9969 32.3331 41.8809 32.8841C41.4729 32.0691 41.0589 31.3521 40.9899 30.8191C40.9089 30.1971 40.8149 29.8251 40.9129 29.0841C41.0109 28.3431 41.4399 27.2931 41.4339 27.2141C41.4279 27.1351 41.3379 26.7581 40.4509 26.7511C39.5639 26.7451 38.8049 26.9221 38.7159 27.1561C38.6269 27.3901 38.4559 27.9171 38.3499 28.4671C38.1949 29.2711 36.5789 32.1401 35.6619 33.6401C35.3619 33.0541 35.1069 32.5381 35.0539 32.1301C34.9729 31.5081 34.8789 31.1361 34.9769 30.3951C35.0749 29.6541 35.5039 28.6041 35.4979 28.5251C35.4919 28.4461 35.4019 28.0691 34.5149 28.0621C33.6279 28.0561 32.8689 28.2331 32.7799 28.4671C32.6909 28.7011 32.5949 29.2481 32.4139 29.7781C32.2319 30.3071 30.0849 35.0921 29.5219 36.3331C29.2349 36.9651 28.9859 37.4731 28.8099 37.8191L28.8089 37.8171C28.8089 37.8171 28.7979 37.8401 28.7799 37.8791C28.6289 38.1741 28.5399 38.3371 28.5399 38.3371C28.5399 38.3371 28.5409 38.3391 28.5429 38.3431C28.4229 38.5601 28.2949 38.7611 28.2319 38.7611C28.1879 38.7611 28.0989 38.1841 28.2509 37.3921C28.5709 35.7321 29.3379 33.1441 29.3309 33.0541C29.3269 33.0081 29.4739 32.5571 28.8299 32.3211C28.2039 32.0921 27.9809 32.4741 27.9239 32.4751C27.8689 32.4761 27.8279 32.6101 27.8279 32.6101C27.8279 32.6101 28.5249 29.6991 26.4979 29.6991C25.2299 29.6991 23.4739 31.0861 22.6089 32.3431C22.0629 32.6411 20.8939 33.2791 19.6549 33.9601C19.1789 34.2221 18.6929 34.4891 18.2319 34.7431C18.2009 34.7081 18.1689 34.6741 18.1369 34.6391C15.6779 32.0161 11.1339 30.1611 11.3259 26.6341C11.3959 25.3521 11.8419 21.9761 20.0589 17.8821C26.7899 14.5281 32.1789 15.4511 33.1099 17.4961C34.4399 20.4191 30.2299 25.8501 23.2399 26.6341C20.5769 26.9331 19.1739 25.9001 18.8249 25.5161C18.4579 25.1111 18.4029 25.0931 18.2659 25.1691C18.0429 25.2931 18.1839 25.6501 18.2659 25.8631C18.4749 26.4061 19.3309 27.3691 20.7909 27.8491C22.0759 28.2711 25.2029 28.5021 28.9839 27.0391C33.2199 25.4011 36.5269 20.8431 35.5549 17.0341C34.5669 13.1601 28.1429 11.8861 22.0629 14.0461C18.4399 15.3321 14.5229 17.3501 11.7059 19.9841C8.35689 23.1161 7.82289 25.8431 8.04289 26.9821C8.82489 31.0301 14.4039 33.6661 16.6379 35.6191C16.5279 35.6801 16.4239 35.7371 16.3299 35.7891C15.2099 36.3431 10.9569 38.5691 9.89289 40.9201C8.68589 43.5871 10.0849 45.5011 11.0109 45.7591C13.8799 46.5571 16.8239 45.1211 18.4069 42.7611C19.9889 40.4021 19.7959 37.3291 19.0699 35.9271C19.0609 35.9101 19.0509 35.8931 19.0419 35.8751C19.3309 35.7041 19.6259 35.5301 19.9179 35.3581C20.4879 35.0231 21.0479 34.7111 21.5329 34.4471C21.2609 35.1911 21.0619 36.0841 20.9589 37.3731C20.8369 38.8871 21.4579 40.8441 22.2699 41.6141C22.6279 41.9531 23.0579 41.9611 23.3299 41.9611C24.2749 41.9611 24.7059 41.1751 25.1809 40.2451C25.7629 39.1051 26.2799 37.7771 26.2799 37.7771C26.2799 37.7771 25.6319 41.3631 27.3979 41.3631C28.0419 41.3631 28.6889 40.5281 28.9779 40.1031C28.9789 40.1081 28.9789 40.1101 28.9789 40.1101C28.9789 40.1101 28.9959 40.0821 29.0289 40.0271C29.0959 39.9251 29.1339 39.8601 29.1339 39.8601C29.1339 39.8601 29.1349 39.8531 29.1369 39.8411C29.3959 39.3921 29.9699 38.3681 30.8299 36.6791C31.9419 34.4971 33.0079 31.7631 33.0079 31.7631C33.0079 31.7631 33.1069 32.4311 33.4319 33.5371C33.6229 34.1871 34.0289 34.9061 34.3499 35.5961C34.0919 35.9541 33.9339 36.1591 33.9339 36.1591C33.9339 36.1591 33.9349 36.1631 33.9379 36.1701C33.7319 36.4441 33.5009 36.7391 33.2589 37.0271C32.3809 38.0721 31.3359 39.2661 31.1959 39.6101C31.0309 40.0161 31.0699 40.3141 31.3889 40.5551C31.6219 40.7301 32.0359 40.7581 32.4689 40.7291C33.2579 40.6761 33.8119 40.4801 34.0859 40.3611C34.5129 40.2101 35.0099 39.9731 35.4759 39.6301C36.3369 38.9971 36.8559 38.0921 36.8059 36.8921C36.7779 36.2311 36.5679 35.5761 36.3009 34.9581C36.3789 34.8461 36.4569 34.7321 36.5359 34.6181C37.8929 32.6341 38.9459 30.4541 38.9459 30.4541C38.9459 30.4541 39.0449 31.1221 39.3699 32.2281C39.5339 32.7871 39.8589 33.3981 40.1509 33.9961C38.8749 35.0331 38.0839 36.2381 37.8089 37.0281C37.3009 38.4901 37.6989 39.1521 38.4449 39.3031C38.7829 39.3711 39.2609 39.2161 39.6199 39.0641C40.0669 38.9161 40.6039 38.6691 41.1059 38.3001C41.9669 37.6671 42.7949 36.7811 42.7449 35.5821C42.7219 35.0361 42.5739 34.4941 42.3729 33.9741C43.4549 33.5231 44.8549 33.2731 46.6389 33.4811C50.4659 33.9281 51.2159 36.3171 51.0729 37.3171C50.9289 38.3171 50.1269 38.8671 49.8579 39.0331C49.5899 39.1991 49.5079 39.2571 49.5299 39.3801C49.5629 39.5591 49.6869 39.5531 49.9159 39.5141C50.2309 39.4611 51.9249 38.7011 51.9979 36.8551C52.0889 34.5091 49.8439 31.9351 45.8669 31.9561ZM16.3699 41.9001C15.1019 43.2831 13.3319 43.8051 12.5719 43.3651C11.7519 42.8901 12.0769 40.8541 13.6319 39.3861C14.5799 38.4921 15.8039 37.6681 16.6159 37.1611C16.8009 37.0501 17.0719 36.8871 17.4019 36.6891C17.4569 36.6581 17.4879 36.6411 17.4879 36.6411L17.4869 36.6391C17.5509 36.6011 17.6159 36.5621 17.6829 36.5211C18.2499 38.6101 17.7009 40.4491 16.3699 41.9001ZM25.6049 35.6231C25.1639 36.6991 24.2399 39.4531 23.6769 39.3051C23.1939 39.1781 22.8999 37.0851 23.5809 35.0251C23.9229 33.9881 24.6549 32.7491 25.0849 32.2681C25.7769 31.4941 26.5389 31.2411 26.7239 31.5551C26.9589 31.9551 25.8819 34.9481 25.6049 35.6231ZM33.2339 39.2631C33.0469 39.3611 32.8749 39.4221 32.7959 39.3751C32.7369 39.3401 32.8729 39.2111 32.8729 39.2111C32.8729 39.2111 33.8269 38.1841 34.2029 37.7171C34.4219 37.4451 34.6749 37.1221 34.9509 36.7621C34.9529 36.7981 34.9539 36.8341 34.9539 36.8691C34.9519 38.0991 33.7639 38.9291 33.2339 39.2631ZM39.1109 37.9231C38.9709 37.8241 38.9949 37.5031 39.4539 36.5021C39.6339 36.1091 40.0459 35.4481 40.7599 34.8161C40.8429 35.0761 40.8929 35.3251 40.8919 35.5571C40.8829 37.1051 39.7789 37.6831 39.1109 37.9231Z" fill="black"/>
<defs>
<linearGradient id="paint0_linear_1515_193" x1="30" y1="0" x2="30" y2="60" gradientUnits="userSpaceOnUse">
<stop stop-color="#404040"/>
<stop offset="1" stop-color="#1A1A1A"/>
</linearGradient>
</defs>
</svg>
