<svg width="60" height="60" viewBox="0 0 60 60" fill="none" xmlns="http://www.w3.org/2000/svg">
<rect width="60" height="60" rx="5" fill="url(#paint0_linear_544_304)"/>
<rect width="60" height="60" rx="5" fill="url(#paint1_linear_544_304)"/>
<path d="M30 10C24.2468 10 20.3783 13.3883 18.3926 20.1664C18.1868 20.8679 18.8219 21.4444 19.2326 20.9318C21.3274 18.3173 23.6816 17.4518 26.2942 18.3326C28.1739 18.9661 29.5172 20.8068 31.0047 22.8434C33.4258 26.1595 36.2288 29.9993 42.3526 29.9993C48.1059 29.9993 51.9753 26.6096 53.96 19.8316C54.1659 19.13 53.5307 18.5535 53.12 19.0661C51.0252 21.6806 48.671 22.5475 46.0584 21.6667C44.1798 21.0332 42.8364 19.1925 41.349 17.1559C38.9268 13.8384 36.1228 10 30 10ZM17.6474 29.9993C11.8941 29.9993 8.02468 33.389 6.04002 40.1671C5.83415 40.8686 6.46928 41.4451 6.88 40.9325C8.9748 38.318 11.329 37.4511 13.9416 38.3333C15.8202 38.9682 17.1636 40.8075 18.651 42.8427C21.0732 46.1602 23.8772 50 30 50C35.7532 50 39.6227 46.6103 41.6074 39.8323C41.8132 39.1307 41.1781 38.5542 40.7674 39.0668C38.6726 41.6813 36.3184 42.5482 33.7058 41.666C31.8261 41.0325 30.4828 39.1918 28.9953 37.1566C26.5742 33.8391 23.7712 29.9993 17.6474 29.9993Z" fill="url(#paint2_linear_544_304)"/>
<defs>
<linearGradient id="paint0_linear_544_304" x1="30" y1="0" x2="30" y2="60" gradientUnits="userSpaceOnUse">
<stop stop-color="#404040"/>
<stop offset="1" stop-color="#1A1A1A"/>
</linearGradient>
<linearGradient id="paint1_linear_544_304" x1="30" y1="0" x2="30" y2="60" gradientUnits="userSpaceOnUse">
<stop stop-color="white"/>
<stop offset="1" stop-color="#B3B3B3"/>
</linearGradient>
<linearGradient id="paint2_linear_544_304" x1="27.7981" y1="8.10093" x2="34.896" y2="46.8613" gradientUnits="userSpaceOnUse">
<stop stop-color="#00C1E0"/>
<stop offset="1" stop-color="#009BB8"/>
</linearGradient>
</defs>
</svg>
