<svg width="60" height="60" viewBox="0 0 60 60" fill="none" xmlns="http://www.w3.org/2000/svg">
<path d="M0 5C0 2.23858 2.23858 0 5 0H55C57.7614 0 60 2.23858 60 5V55C60 57.7614 57.7614 60 55 60H5C2.23858 60 0 57.7614 0 55V5Z" fill="url(#paint0_linear_1012_129)"/>
<path d="M14.2857 25.2857C14.2857 24.4967 14.9253 23.8571 15.7143 23.8571H44.2857C45.0747 23.8571 45.7143 24.4967 45.7143 25.2857V31C45.7143 31.789 45.0747 32.4285 44.2857 32.4285H15.7143C14.9253 32.4285 14.2857 31.789 14.2857 31V25.2857Z" fill="#B3B3B3"/>
<path d="M14.2857 35.2857C14.2857 34.4967 14.9253 33.8571 15.7143 33.8571H24.2857C25.0747 33.8571 25.7143 34.4967 25.7143 35.2857V45.2857C25.7143 46.0747 25.0747 46.7143 24.2857 46.7143H15.7143C14.9253 46.7143 14.2857 46.0747 14.2857 45.2857V35.2857Z" fill="#B3B3B3"/>
<path d="M27.1429 35.2857C27.1429 34.4967 27.7824 33.8571 28.5714 33.8571H44.2857C45.0747 33.8571 45.7143 34.4967 45.7143 35.2857V45.2857C45.7143 46.0747 45.0747 46.7143 44.2857 46.7143H28.5714C27.7824 46.7143 27.1429 46.0747 27.1429 45.2857V35.2857Z" fill="#B3B3B3"/>
<path fill-rule="evenodd" clip-rule="evenodd" d="M10 15.2857C10 12.9188 11.9188 11 14.2857 11H45.7143C48.0813 11 50 12.9188 50 15.2857V46.7143C50 49.0813 48.0813 51 45.7143 51H14.2857C11.9188 51 10 49.0813 10 46.7143V15.2857ZM47.1429 22.4286H12.8571V46.7143C12.8571 47.5033 13.4967 48.1429 14.2857 48.1429H45.7143C46.5033 48.1429 47.1429 47.5033 47.1429 46.7143V22.4286Z" fill="#B3B3B3"/>
<defs>
<linearGradient id="paint0_linear_1012_129" x1="30" y1="0" x2="30" y2="60" gradientUnits="userSpaceOnUse">
<stop stop-color="#EDEDED"/>
<stop offset="0.0001" stop-color="#DEDEDE"/>
<stop offset="1" stop-color="#DEDEDE"/>
</linearGradient>
</defs>
</svg>
