<svg width="60" height="60" viewBox="0 0 60 60" fill="none" xmlns="http://www.w3.org/2000/svg">
<rect width="60" height="60" rx="5" fill="url(#paint0_linear_544_300)"/>
<path d="M14.2856 24.2857C14.2856 23.4967 14.9252 22.8571 15.7142 22.8571H44.2856C45.0746 22.8571 45.7142 23.4967 45.7142 24.2857V30C45.7142 30.789 45.0746 31.4286 44.2856 31.4286H15.7142C14.9252 31.4286 14.2856 30.789 14.2856 30V24.2857Z" fill="black"/>
<path d="M14.2856 34.2857C14.2856 33.4967 14.9252 32.8571 15.7142 32.8571H24.2856C25.0746 32.8571 25.7142 33.4967 25.7142 34.2857V44.2857C25.7142 45.0747 25.0746 45.7143 24.2856 45.7143H15.7142C14.9252 45.7143 14.2856 45.0747 14.2856 44.2857V34.2857Z" fill="black"/>
<path d="M27.1431 34.2857C27.1431 33.4967 27.7826 32.8571 28.5716 32.8571H44.2859C45.0749 32.8571 45.7145 33.4967 45.7145 34.2857V44.2857C45.7145 45.0747 45.0749 45.7143 44.2859 45.7143H28.5716C27.7826 45.7143 27.1431 45.0747 27.1431 44.2857V34.2857Z" fill="black"/>
<path fill-rule="evenodd" clip-rule="evenodd" d="M10 14.2857C10 11.9188 11.9188 10 14.2857 10H45.7143C48.0813 10 50 11.9188 50 14.2857V45.7143C50 48.0813 48.0813 50 45.7143 50H14.2857C11.9188 50 10 48.0813 10 45.7143V14.2857ZM47.1429 21.4286H12.8571V45.7143C12.8571 46.5033 13.4967 47.1429 14.2857 47.1429H45.7143C46.5033 47.1429 47.1429 46.5033 47.1429 45.7143V21.4286Z" fill="black"/>
<defs>
<linearGradient id="paint0_linear_544_300" x1="30" y1="0" x2="30" y2="60" gradientUnits="userSpaceOnUse">
<stop stop-color="#644A9B"/>
<stop offset="1" stop-color="#0E002B"/>
</linearGradient>
</defs>
</svg>
