<svg width="177" height="34" viewBox="0 0 177 34" fill="none" xmlns="http://www.w3.org/2000/svg">
<path d="M81.5962 14.363H77.0748V16.0788H80.7966V18.8012H77.0748V20.5628H81.5962V23.6207H74V11.3279H81.5962V14.363Z" fill="url(#paint0_linear_825_2695)"/>
<path d="M87.157 11.3279C91.1404 11.3127 93.5756 13.6462 93.5756 17.4896C93.5756 21.3025 91.1404 23.6207 87.157 23.6207H83.3335V11.3355L87.157 11.3279ZM87.1061 20.5475C89.1851 20.5475 90.4572 19.3884 90.4572 17.482C90.4572 15.5526 89.1778 14.3782 87.077 14.3782H86.3647V20.5475H87.1061Z" fill="url(#paint1_linear_825_2695)"/>
<path d="M99.8706 23.9639C97.1883 23.9639 95.0076 21.9736 95.0076 19.152V11.3279H98.1405V19.1444C98.1405 20.1662 98.9765 20.8449 99.8633 20.8449C100.743 20.8449 101.601 20.151 101.601 19.1444V11.3279H104.734V19.152C104.734 21.9736 102.553 23.9639 99.8706 23.9639Z" fill="url(#paint2_linear_825_2695)"/>
<path d="M113.675 23.6207L113.086 22.1871H108.71L108.114 23.6207H104.712L110.156 11.1754H111.632L117.084 23.6207H113.675ZM109.691 19.8002H112.097L110.898 16.8871L109.691 19.8002Z" fill="url(#paint3_linear_825_2695)"/>
<path d="M128.154 23.6207H124.513L121.38 18.2827V23.6207H118.269L118.254 11.3279H122.703C125.232 11.3279 127.042 13.12 127.042 15.3238C127.042 16.8566 126.163 18.1378 125.014 18.6868L128.154 23.6207ZM121.365 14.2639V16.727L122.637 16.7346C123.299 16.7422 123.902 16.2542 123.902 15.4992C123.902 14.7367 123.291 14.2639 122.637 14.2639H121.365Z" fill="url(#paint4_linear_825_2695)"/>
<path d="M133.097 11.3279C137.081 11.3127 139.516 13.6462 139.516 17.4896C139.516 21.3025 137.081 23.6207 133.097 23.6207H129.274V11.3355L133.097 11.3279ZM133.047 20.5475C135.126 20.5475 136.398 19.3884 136.398 17.482C136.398 15.5526 135.118 14.3782 133.017 14.3782H132.305V20.5475H133.047Z" fill="url(#paint5_linear_825_2695)"/>
<path d="M146.967 23.9334C143.325 23.9334 140.541 21.15 140.541 17.4896C140.541 13.7987 143.332 11 146.974 11C150.616 11 153.407 13.7987 153.407 17.4896C153.407 21.15 150.616 23.9334 146.967 23.9334ZM146.974 20.8144C148.835 20.8144 150.26 19.3579 150.26 17.4667C150.26 15.5679 148.835 14.1037 146.974 14.1037C145.113 14.1037 143.688 15.5679 143.688 17.4667C143.688 19.3579 145.113 20.8144 146.974 20.8144Z" fill="url(#paint6_linear_825_2695)"/>
<path d="M176.485 23.6207H172.844L169.711 18.2827V23.6207H166.6L166.585 11.3279H171.034C173.563 11.3279 175.373 13.12 175.373 15.3238C175.373 16.8566 174.494 18.1378 173.345 18.6868L176.485 23.6207ZM169.696 14.2639V16.727L170.968 16.7346C171.63 16.7422 172.233 16.2542 172.233 15.4992C172.233 14.7367 171.622 14.2639 170.968 14.2639H169.696Z" fill="url(#paint7_linear_825_2695)"/>
<path d="M156.349 23.6207H159.991L163.124 18.2827V23.6207H166.235L166.249 11.3279H161.801C159.271 11.3279 157.461 13.12 157.461 15.3238C157.461 16.8566 158.34 18.1378 159.489 18.6868L156.349 23.6207ZM163.138 14.2639V16.727L161.866 16.7346C161.204 16.7422 160.601 16.2542 160.601 15.4992C160.601 14.7367 161.212 14.2639 161.866 14.2639H163.138Z" fill="url(#paint8_linear_825_2695)"/>
<path d="M58 34H47.4258L38.329 19.2357V34H29.2955L29.2533 0H42.1703C49.5153 0 54.7707 4.95658 54.7707 11.0521C54.7707 15.2916 52.2169 18.835 48.8821 20.3536L58 34ZM38.2868 8.12035V14.933L41.9804 14.9541C43.901 14.9752 45.6528 13.6253 45.6528 11.5372C45.6528 9.42804 43.8799 8.12035 41.9804 8.12035H38.2868Z" fill="url(#paint9_linear_825_2695)"/>
<path d="M0 34H10.5742L19.671 19.2357V34H28.7045L28.7467 0H15.8297C8.48472 0 3.22926 4.95658 3.22926 11.0521C3.22926 15.2916 5.78312 18.835 9.1179 20.3536L0 34ZM19.7132 8.12035V14.933L16.0197 14.9541C14.099 14.9752 12.3472 13.6253 12.3472 11.5372C12.3472 9.42804 14.1201 8.12035 16.0197 8.12035H19.7132Z" fill="url(#paint10_linear_825_2695)"/>
<defs>
<linearGradient id="paint0_linear_825_2695" x1="125.64" y1="23.9639" x2="125.64" y2="11" gradientUnits="userSpaceOnUse">
<stop stop-color="#4CA8CF"/>
<stop offset="1" stop-color="#82D1F2"/>
</linearGradient>
<linearGradient id="paint1_linear_825_2695" x1="125.64" y1="23.9639" x2="125.64" y2="11" gradientUnits="userSpaceOnUse">
<stop stop-color="#4CA8CF"/>
<stop offset="1" stop-color="#82D1F2"/>
</linearGradient>
<linearGradient id="paint2_linear_825_2695" x1="125.64" y1="23.9639" x2="125.64" y2="11" gradientUnits="userSpaceOnUse">
<stop stop-color="#4CA8CF"/>
<stop offset="1" stop-color="#82D1F2"/>
</linearGradient>
<linearGradient id="paint3_linear_825_2695" x1="125.64" y1="23.9639" x2="125.64" y2="11" gradientUnits="userSpaceOnUse">
<stop stop-color="#4CA8CF"/>
<stop offset="1" stop-color="#82D1F2"/>
</linearGradient>
<linearGradient id="paint4_linear_825_2695" x1="125.64" y1="23.9639" x2="125.64" y2="11" gradientUnits="userSpaceOnUse">
<stop stop-color="#4CA8CF"/>
<stop offset="1" stop-color="#82D1F2"/>
</linearGradient>
<linearGradient id="paint5_linear_825_2695" x1="125.64" y1="23.9639" x2="125.64" y2="11" gradientUnits="userSpaceOnUse">
<stop stop-color="#4CA8CF"/>
<stop offset="1" stop-color="#82D1F2"/>
</linearGradient>
<linearGradient id="paint6_linear_825_2695" x1="125.64" y1="23.9639" x2="125.64" y2="11" gradientUnits="userSpaceOnUse">
<stop stop-color="#4CA8CF"/>
<stop offset="1" stop-color="#82D1F2"/>
</linearGradient>
<linearGradient id="paint7_linear_825_2695" x1="125.64" y1="23.9639" x2="125.64" y2="11" gradientUnits="userSpaceOnUse">
<stop stop-color="#4CA8CF"/>
<stop offset="1" stop-color="#82D1F2"/>
</linearGradient>
<linearGradient id="paint8_linear_825_2695" x1="125.64" y1="23.9639" x2="125.64" y2="11" gradientUnits="userSpaceOnUse">
<stop stop-color="#4CA8CF"/>
<stop offset="1" stop-color="#82D1F2"/>
</linearGradient>
<linearGradient id="paint9_linear_825_2695" x1="29.2248" y1="34" x2="29.2248" y2="1.33317e-06" gradientUnits="userSpaceOnUse">
<stop stop-color="#4CA8CF"/>
<stop offset="1" stop-color="#82D1F2"/>
</linearGradient>
<linearGradient id="paint10_linear_825_2695" x1="29.2248" y1="34" x2="29.2248" y2="1.33317e-06" gradientUnits="userSpaceOnUse">
<stop stop-color="#4CA8CF"/>
<stop offset="1" stop-color="#82D1F2"/>
</linearGradient>
</defs>
</svg>
