<svg width="177" height="34" fill="none">
  <path d="M81.5962 14.363h-4.5214v1.7158h3.7218v2.7224h-3.7218v1.7616h4.5214v3.0579H74V11.3279h7.5962v3.0351Z" fill="url(#a)"/>
  <path d="M87.157 11.3279c3.9834-.0152 6.4186 2.3183 6.4186 6.1617 0 3.8129-2.4352 6.1311-6.4186 6.1311h-3.8235V11.3355l3.8235-.0076Zm-.0509 9.2196c2.079 0 3.3511-1.1591 3.3511-3.0655 0-1.9294-1.2794-3.1038-3.3802-3.1038h-.7123v6.1693h.7414Z" fill="url(#b)"/>
  <path d="M99.8706 23.9639c-2.6823 0-4.863-1.9903-4.863-4.8119v-7.8241h3.1329v7.8165c0 1.0218.836 1.7005 1.7228 1.7005.8797 0 1.7377-.6939 1.7377-1.7005v-7.8165h3.133v7.8241c0 2.8216-2.181 4.8119-4.8634 4.8119Z" fill="url(#c)"/>
  <path d="m113.675 23.6207-.589-1.4336h-4.376l-.596 1.4336h-3.402l5.444-12.4453h1.476l5.452 12.4453h-3.409Zm-3.984-3.8205h2.406l-1.199-2.9131-1.207 2.9131Z" fill="url(#d)"/>
  <path d="M128.154 23.6207h-3.641l-3.133-5.338v5.338h-3.111l-.015-12.2928h4.449c2.529 0 4.339 1.7921 4.339 3.9959 0 1.5328-.879 2.814-2.028 3.363l3.14 4.9339Zm-6.789-9.3568v2.4631l1.272.0076c.662.0076 1.265-.4804 1.265-1.2354 0-.7625-.611-1.2353-1.265-1.2353h-1.272Z" fill="url(#e)"/>
  <path d="M133.097 11.3279c3.984-.0152 6.419 2.3183 6.419 6.1617 0 3.8129-2.435 6.1311-6.419 6.1311h-3.823V11.3355l3.823-.0076Zm-.05 9.2196c2.079 0 3.351-1.1591 3.351-3.0655 0-1.9294-1.28-3.1038-3.381-3.1038h-.712v6.1693h.742Z" fill="url(#f)"/>
  <path d="M146.967 23.9334c-3.642 0-6.426-2.7834-6.426-6.4438 0-3.6909 2.791-6.4896 6.433-6.4896s6.433 2.7987 6.433 6.4896c0 3.6604-2.791 6.4438-6.44 6.4438Zm.007-3.119c1.861 0 3.286-1.4565 3.286-3.3477 0-1.8988-1.425-3.363-3.286-3.363s-3.286 1.4642-3.286 3.363c0 1.8912 1.425 3.3477 3.286 3.3477Z" fill="url(#g)"/>
  <path d="M176.485 23.6207h-3.641l-3.133-5.338v5.338H166.6l-.015-12.2928h4.449c2.529 0 4.339 1.7921 4.339 3.9959 0 1.5328-.879 2.814-2.028 3.363l3.14 4.9339Zm-6.789-9.3568v2.4631l1.272.0076c.662.0076 1.265-.4804 1.265-1.2354 0-.7625-.611-1.2353-1.265-1.2353h-1.272Z" fill="url(#h)"/>
  <path d="M156.349 23.6207h3.642l3.133-5.338v5.338h3.111l.014-12.2928h-4.448c-2.53 0-4.34 1.7921-4.34 3.9959 0 1.5328.879 2.814 2.028 3.363l-3.14 4.9339Zm6.789-9.3568v2.4631l-1.272.0076c-.662.0076-1.265-.4804-1.265-1.2354 0-.7625.611-1.2353 1.265-1.2353h1.272Z" fill="url(#i)"/>
  <path d="M58 34H47.4258L38.329 19.2357V34h-9.0335l-.0422-34h12.917c7.345 0 12.6004 4.95658 12.6004 11.0521 0 4.2395-2.5538 7.7829-5.8886 9.3015L58 34ZM38.2868 8.12035V14.933l3.6936.0211c1.9206.0211 3.6724-1.3288 3.6724-3.4169 0-2.10916-1.7729-3.41685-3.6724-3.41685h-3.6936Z" fill="url(#j)"/>
  <path d="M0 34h10.5742l9.0968-14.7643V34h9.0335l.0422-34h-12.917C8.48472 0 3.22926 4.95658 3.22926 11.0521c0 4.2395 2.55386 7.7829 5.88864 9.3015L0 34ZM19.7132 8.12035V14.933l-3.6935.0211c-1.9207.0211-3.6725-1.3288-3.6725-3.4169 0-2.10916 1.7729-3.41685 3.6725-3.41685h3.6935Z" fill="url(#k)"/>
  <defs>
    <linearGradient id="a" x1="125.64" y1="23.9639" x2="125.64" y2="11" gradientUnits="userSpaceOnUse">
      <stop stop-color="#4CA8CF"/>
      <stop offset="1" stop-color="#82D1F2"/>
    </linearGradient>
    <linearGradient id="b" x1="125.64" y1="23.9639" x2="125.64" y2="11" gradientUnits="userSpaceOnUse">
      <stop stop-color="#4CA8CF"/>
      <stop offset="1" stop-color="#82D1F2"/>
    </linearGradient>
    <linearGradient id="c" x1="125.64" y1="23.9639" x2="125.64" y2="11" gradientUnits="userSpaceOnUse">
      <stop stop-color="#4CA8CF"/>
      <stop offset="1" stop-color="#82D1F2"/>
    </linearGradient>
    <linearGradient id="d" x1="125.64" y1="23.9639" x2="125.64" y2="11" gradientUnits="userSpaceOnUse">
      <stop stop-color="#4CA8CF"/>
      <stop offset="1" stop-color="#82D1F2"/>
    </linearGradient>
    <linearGradient id="e" x1="125.64" y1="23.9639" x2="125.64" y2="11" gradientUnits="userSpaceOnUse">
      <stop stop-color="#4CA8CF"/>
      <stop offset="1" stop-color="#82D1F2"/>
    </linearGradient>
    <linearGradient id="f" x1="125.64" y1="23.9639" x2="125.64" y2="11" gradientUnits="userSpaceOnUse">
      <stop stop-color="#4CA8CF"/>
      <stop offset="1" stop-color="#82D1F2"/>
    </linearGradient>
    <linearGradient id="g" x1="125.64" y1="23.9639" x2="125.64" y2="11" gradientUnits="userSpaceOnUse">
      <stop stop-color="#4CA8CF"/>
      <stop offset="1" stop-color="#82D1F2"/>
    </linearGradient>
    <linearGradient id="h" x1="125.64" y1="23.9639" x2="125.64" y2="11" gradientUnits="userSpaceOnUse">
      <stop stop-color="#4CA8CF"/>
      <stop offset="1" stop-color="#82D1F2"/>
    </linearGradient>
    <linearGradient id="i" x1="125.64" y1="23.9639" x2="125.64" y2="11" gradientUnits="userSpaceOnUse">
      <stop stop-color="#4CA8CF"/>
      <stop offset="1" stop-color="#82D1F2"/>
    </linearGradient>
    <linearGradient id="j" x1="29.2248" y1="34" x2="29.2248" y2=".00000133" gradientUnits="userSpaceOnUse">
      <stop stop-color="#4CA8CF"/>
      <stop offset="1" stop-color="#82D1F2"/>
    </linearGradient>
    <linearGradient id="k" x1="29.2248" y1="34" x2="29.2248" y2=".00000133" gradientUnits="userSpaceOnUse">
      <stop stop-color="#4CA8CF"/>
      <stop offset="1" stop-color="#82D1F2"/>
    </linearGradient>
  </defs>
</svg>
